<?xml version="1.0" standalone="no"?>
<!DOCTYPE svg PUBLIC "-//W3C//DTD SVG 1.1//EN" "http://www.w3.org/Graphics/SVG/1.1/DTD/svg11.dtd" >
<svg xmlns="http://www.w3.org/2000/svg" xmlns:xlink="http://www.w3.org/1999/xlink" version="1.1">
<metadata>
Created by FontForge 20190801 at Sat Mar 31 11:43:24 2018
 By Jimmy Wärting
Copyright (c) 2003 by Bitstream, Inc. All Rights Reserved.
DejaVu changes are in public domain
Changes by Saber Rastikerdar are in public domain.
Non-Arabic(Latin) glyphs and data in extended version are imported from Roboto font under the Apache License, Version 2.0.
</metadata>
<defs>
<font id="Nahid-FD" horiz-adv-x="0" >
  <font-face 
    font-family="Nahid FD"
    font-weight="400"
    font-stretch="normal"
    units-per-em="2048"
    panose-1="2 11 6 3 3 8 4 2 2 4"
    ascent="1638"
    descent="-410"
    x-height="1082"
    cap-height="1456"
    bbox="-985 -854.679 3056 2390"
    underline-thickness="100"
    underline-position="-600"
    unicode-range="U+0002-FFFD"
  />
<missing-glyph horiz-adv-x="507" 
 />
    <glyph glyph-name="uni0622" unicode="&#x627;&#x653;" horiz-adv-x="583" 
d="M215 1255.24h165v-1254.34h-165v1254.34zM223 1459q-56 7 -107 -16.5t-97 -76.5l-99 103q118 168 285 141l149 -24q97 -16 219 45l64 -133q-64 -39 -132 -54t-142 -5z" />
    <glyph glyph-name="uni0623" unicode="&#x627;&#x654;" horiz-adv-x="497" 
d="M172 1255.24h165v-1254.34h-165v1254.34zM125 1493q-93 72 -93 179q0 87 58 149q69 72 176 72q47 0 89.5 -10.5t79.5 -31.5l1 -127q-92 40 -156 40q-32 0 -56.5 -8.5t-41.5 -26.5q-29 -29 -29 -70q1 -38 30 -67t86 -49q12 -4 25 -3q49 6 168 27v-131l-433 -97v129l95 22
h4z" />
    <glyph glyph-name="afii57412" unicode="&#x648;&#x654;" horiz-adv-x="845" 
d="M293 1000q-93 72 -93 179q0 87 58 149q69 72 176 72q47 0 89.5 -10.5t79.5 -31.5l1 -127q-92 40 -156 40q-32 0 -56.5 -8.5t-41.5 -26.5q-29 -29 -29 -70q1 -38 30 -67t86 -49q12 -4 25 -3q49 6 168 27v-131l-433 -97v129l95 22h4zM687 532q56 -116 71 -269q6 -56 6 -108
q0 -234 -117 -378q-166 -204 -560 -243l-29 164q439 34 520 302l-58 1q-430 6 -430 331q0 154 87 264q87 109 231 109q195 0 279 -173zM593 183q-22 342 -186 342q-73 0 -115 -55q-39 -54 -39 -125q0 -161 266 -164h72h2v2z" />
    <glyph glyph-name="uni0625" unicode="&#x627;&#x655;" horiz-adv-x="497" 
d="M120 -491q-93 72 -93 179q0 87 58 149q69 72 176 72q47 0 89.5 -10.5t79.5 -31.5l1 -127q-92 40 -156 40q-32 0 -56.5 -8.5t-41.5 -26.5q-29 -29 -29 -70q1 -38 30 -67t86 -49q12 -4 25 -3q49 6 168 27v-131l-433 -97v129l95 22h4zM167 1396h165v-1395h-165v1395z" />
    <glyph glyph-name="afii57414" unicode="&#x64a;&#x654;" horiz-adv-x="1413" 
d="M475 856q-93 72 -93 179q0 87 58 149q69 72 176 72q47 0 89.5 -10.5t79.5 -31.5l1 -127q-92 40 -156 40q-32 0 -56.5 -8.5t-41.5 -26.5q-29 -29 -29 -70q1 -38 30 -67t86 -49q12 -4 25 -3q49 6 168 27v-131l-433 -97v129l95 22h4zM702 -227q237 1 355 94q87 68 96 164
q1 65 -90 66l-81 1q-237 3 -240 218q-3 244 186 369q138 92 377 97v-189q-259 -3 -353 -133q-40 -56 -39 -130q1 -50 63 -50h61q287 0 286 -212q-1 -169 -113 -288q-165 -177 -515 -178q-220 0 -366 85q-228 134 -227 462q0 203 67 398l158 -45q-54 -180 -54 -351
q0 -381 429 -378z" />
    <glyph glyph-name="uni06C0" unicode="&#x647;&#x654;" horiz-adv-x="942" 
d="M193 1200q60 -13 114 -13q133 0 187 46q54 47 54 92q0 14 -10 20q-10 7 -29 8l-100 2q-105 3 -105 119q0 137 114 210q88 56 244 57l-9 -122q-226 -6 -243 -133l-1 -10v-2h2l111 -4q114 -3 136 -100q5 -23 5 -45q0 -100 -102 -184q-92 -76 -261 -74q-20 0 -40.5 1
t-41.5 4q-22 2 -43 6zM461 644q-191 -167 -191 -295q0 -168 205 -168q208 0 207 169q0 119 -219 294l-1 1zM393 927q456 -324 456 -583q0 -160 -116 -257q-99 -83 -257 -83q-142 0 -237 65q-134 91 -136 275q-1 188 222 415l-2 1l-30 22z" />
    <glyph glyph-name="fi" unicode="fi" horiz-adv-x="1134" 
d="M202 0v939h-171v143h171v94q0 92 27.5 163t78.5 119.5t124.5 73.5t165.5 25q73 0 141.5 -17.5t141.5 -43.5l-31 -156q-45 18 -105.5 34t-132.5 16q-119 0 -171.5 -53.5t-52.5 -160.5v-94h221v-143h-221v-939h-186zM973 0h-186v1082h186v-1082z" />
    <glyph glyph-name="uniFBA5.fina" unicode="&#xfeea;&#x654;" horiz-adv-x="946" arabic-form="final" 
d="M287 1091q60 -13 114 -13q133 0 187 46q54 47 54 92q0 14 -10 20q-10 7 -29 8l-100 2q-105 3 -105 119q0 137 114 210q88 56 244 57l-9 -122q-226 -6 -243 -133l-1 -10v-2h2l111 -4q114 -3 136 -100q5 -23 5 -45q0 -100 -102 -184q-92 -76 -261 -74q-20 0 -40.5 1
t-41.5 4q-22 2 -43 6zM955 180q18 0 18 -70v-24q0 -44 -5 -64q-5 -22 -13 -22h-20q-260 0 -309 346l-21 142q-9 63 -32 93q-24 31 -63 31q-38 0 -93 -33q-71 -42 -112 -107q-38 -58 -38 -116q-1 -139 163 -155q68 -7 158 -8l-6 -172q-172 0 -287 46q-192 77 -192 289
q0 193 190 348q111 91 234 91q131 0 181 -73q22 -30 37 -77q14 -46 21 -109q29 -248 66 -298q42 -58 112 -58h11z" />
    <glyph glyph-name="uniFDF2" unicode="&#x627;&#xfedf;&#xfee0;&#xfeea;" horiz-adv-x="2649" arabic-form="isolated" 
d="M1234 1693v368h84v-368h-84zM1288 1366q-25 -106 -151 -106q-132 0 -136 167q-1 58 13 106l74 -12q-35 -167 61 -167q84 -1 88 115q2 50 1 117h74l2 -80q-1 -94 68 -94q102 1 56 219l85 14q17 -61 17 -120q0 -200 -145 -201q-72 -1 -107 42zM955 180q18 0 18 -70v-24
q0 -44 -5 -64q-5 -22 -13 -22h-20q-260 0 -309 346l-21 142q-9 63 -32 93q-24 31 -63 31q-38 0 -93 -33q-71 -42 -112 -107q-38 -58 -38 -116q-1 -139 163 -155q68 -7 158 -8l-6 -172q-172 0 -287 46q-192 77 -192 289q0 193 190 348q111 91 234 91q131 0 181 -73
q22 -30 37 -77q14 -46 21 -109q29 -248 66 -298q42 -58 112 -58h11zM1283 134q-92 -134 -309 -134h-29q-56 0 -56 86v19q0 75 56 75h31q234 0 234 253v709h169v-709q0 -253 205 -253h11q29 0 29 -75v-19q0 -86 -29 -86h-8q-209 0 -304 134zM1596 0q-56 0 -56 86v19
q0 75 56 75h58q202 0 202 217v908h166v-914q0 -391 -374 -391h-52zM2318 1396h165v-1395h-165v1395z" />
    <glyph glyph-name="uniFE70" unicode="&#x20;&#x64b;" horiz-adv-x="791" arabic-form="isolated" 
d="M48 1077v100l451 184v-99zM48 1329v100l451 184v-99z" />
    <glyph glyph-name="uniFE72" unicode="&#x20;&#x64c;" horiz-adv-x="791" arabic-form="isolated" 
d="M305 1716q-20 -23 -20 -54q0 -58 67 -86l74 -25l2 -1l1 2l6.5 13t6.5 13.5t5 13.5t4 13.5t3 13.5t1.5 14t0.5 14q0 100 -83 99q-43 0 -68 -30zM36 1510q2 -113 36 -169q35 -57 100 -56q36 1 73 19.5t76 56.5q22 22 43 52q22 32 41 70l2 3h-3l-30 6q-13 3 -31 8
q-15 5 -28 10t-24 10q-12 6 -21 13q-10 6 -17 13q-8 7 -14 15q-16 21 -24 44t-8 48q0 51 17 84q22 42 58 63t87 21q71 1 114 -40q47 -46 47 -133q1 -40 -21 -108l-1 -3h3l30 -1q29 -2 56 -2v-75q-37 1 -48 2l-76 7h-2v-1q-15 -37 -35 -70t-48.5 -56t-57.5 -48
q-71 -63 -75 -65q-40 -17 -82 -17q-92 -1 -139 74t-50 225h52z" />
    <glyph glyph-name="uniFE74" unicode="&#x20;&#x64d;" horiz-adv-x="791" arabic-form="isolated" 
d="M53 -485v99l452 185v-99zM53 -233v99l452 185v-99z" />
    <glyph glyph-name="uniFE76" unicode="&#x20;&#x64e;" horiz-adv-x="791" arabic-form="isolated" 
d="M17 1350v99l452 185v-99z" />
    <glyph glyph-name="uniFE78" unicode="&#x20;&#x64f;" horiz-adv-x="791" arabic-form="isolated" 
d="M540 1474q-15 0 -28.5 0.5t-25.5 1t-22.5 1.5t-20.5 2l-31 4h-1l-1 -1q-33 -46 -72.5 -82t-86 -61t-99.5 -39t-112 -17v74q189 9 287 147l1 3h-3q-42 9 -88 34q-86 48 -86 133q0 15 2.5 30t7 28t11 25t15.5 23q45 54 125 54q30 0 56 -9t48 -27q32 -25 47 -63
q5 -14 7.5 -29.5t2.5 -32.5q-1 -19 -3.5 -38.5t-8.5 -39.5t-14 -40l-1 -3h3l19 -2q39 -3 72 -2v-74zM371 1567l6 14q21 49 21 91t-26 63q-25 22 -56 22q-15 1 -28 -2.5t-24 -11t-19 -18.5q-9 -12 -13.5 -25.5t-4.5 -29.5q0 -48 67 -79q23 -11 74 -25l2 -1z" />
    <glyph glyph-name="uniFE7A" unicode="&#x20;&#x650;" horiz-adv-x="791" arabic-form="isolated" 
d="M64 -345v100l451 184v-99z" />
    <glyph glyph-name="uniFE7C" unicode="&#x20;&#x651;" horiz-adv-x="791" arabic-form="isolated" 
d="M302 1544q-25 -106 -151 -106q-132 0 -136 167q-1 58 13 106l74 -12q-35 -167 61 -167q84 -1 88 115q2 50 1 117h74l2 -80q-1 -94 68 -94q102 1 56 219l85 14q17 -61 17 -120q0 -200 -145 -201q-72 -1 -107 42z" />
    <glyph glyph-name="uniFE7E" unicode="&#x20;&#x652;" horiz-adv-x="791" arabic-form="isolated" 
d="M119 1460q0 81 56 137t137.5 56t137.5 -56q28 -28 42 -62.5t14 -74.5q0 -81 -56 -138q-14 -14 -30 -24.5t-33 -17.5t-35.5 -10.5t-39.5 -3.5q-40 0 -74.5 14t-62.5 42.5t-42 62.5t-14 75zM202 1459q-1 -48 33 -81q32 -33 80 -33q47 0 81 33q32 33 33 81q-1 47 -33 80
q-11 11 -24 18.5t-27 11t-30 3.5q-48 0 -80 -33q-34 -33 -33 -80z" />
    <glyph glyph-name="uniFEF5" unicode="&#xfedf;&#xfe82;" horiz-adv-x="1169" arabic-form="isolated" 
d="M214 1492q-56 7 -107 -16.5t-97 -76.5l-99 103q118 168 285 141l149 -24q97 -16 219 45l64 -133q-64 -39 -132 -54t-142 -5zM249 1343q201 -487 372 -1122l1 -2h2q235 77 235 419v758h165v-759q0 -634 -668 -634q-136 0 -221 15v178q167 -22 320 -12h2l-1 3
q-197 683 -364 1064z" />
    <glyph glyph-name="uniFEF6" unicode="&#xfee0;&#xfe82;" horiz-adv-x="1233" arabic-form="final" 
d="M249 1343q200 -485 373 -1124q237 77 237 419v758h165v-849q-1 -367 193 -367h25q18 0 18 -75v-19q0 -86 -18 -86h-29q-232 0 -297 229q-164 -226 -560 -226q-136 0 -221 15v178q167 -22 322 -12q-197 681 -365 1067zM214 1492q-56 7 -107 -16.5t-97 -76.5l-99 103
q118 168 285 141l149 -24q97 -16 219 45l64 -133q-64 -39 -132 -54t-142 -5z" />
    <glyph glyph-name="uniFEF7" unicode="&#xfedf;&#xfe84;" horiz-adv-x="1169" arabic-form="isolated" 
d="M68 1539q-93 72 -93 179q0 87 58 149q69 72 176 72q47 0 89.5 -10.5t79.5 -31.5l1 -127q-92 40 -156 40q-32 0 -56.5 -8.5t-41.5 -26.5q-29 -29 -29 -70q1 -38 30 -67t86 -49q12 -4 25 -3q49 6 168 27v-131l-433 -97v129l95 22h4zM249 1343q201 -487 372 -1122l1 -2h2
q235 77 235 419v758h165v-759q0 -634 -668 -634q-136 0 -221 15v178q167 -22 320 -12h2l-1 3q-197 683 -364 1064z" />
    <glyph glyph-name="uniFEF8" unicode="&#xfee0;&#xfe84;" horiz-adv-x="1233" arabic-form="final" 
d="M249 1343q200 -485 373 -1124q237 77 237 419v758h165v-849q-1 -367 193 -367h25q18 0 18 -75v-19q0 -86 -18 -86h-29q-232 0 -297 229q-164 -226 -560 -226q-136 0 -221 15v178q167 -22 322 -12q-197 681 -365 1067zM68 1539q-93 72 -93 179q0 87 58 149q69 72 176 72
q47 0 89.5 -10.5t79.5 -31.5l1 -127q-92 40 -156 40q-32 0 -56.5 -8.5t-41.5 -26.5q-29 -29 -29 -70q1 -38 30 -67t86 -49q12 -4 25 -3q49 6 168 27v-131l-433 -97v129l95 22h4z" />
    <glyph glyph-name="uniFEF9" unicode="&#xfedf;&#xfe88;" horiz-adv-x="1169" arabic-form="isolated" 
d="M250 -483q-93 72 -93 179q0 87 58 149q69 72 176 72q47 0 89.5 -10.5t79.5 -31.5l1 -127q-92 40 -156 40q-32 0 -56.5 -8.5t-41.5 -26.5q-29 -29 -29 -70q1 -38 30 -67t86 -49q12 -4 25 -3q49 6 168 27v-131l-433 -97v129l95 22h4zM249 1343q201 -487 372 -1122l1 -2h2
q235 77 235 419v758h165v-759q0 -634 -668 -634q-136 0 -221 15v178q167 -22 320 -12h2l-1 3q-197 683 -364 1064z" />
    <glyph glyph-name="uniFEFA" unicode="&#xfee0;&#xfe88;" horiz-adv-x="1233" arabic-form="final" 
d="M250 -483q-93 72 -93 179q0 87 58 149q69 72 176 72q47 0 89.5 -10.5t79.5 -31.5l1 -127q-92 40 -156 40q-32 0 -56.5 -8.5t-41.5 -26.5q-29 -29 -29 -70q1 -38 30 -67t86 -49q12 -4 25 -3q49 6 168 27v-131l-433 -97v129l95 22h4zM249 1343q200 -485 373 -1124
q237 77 237 419v758h165v-849q-1 -367 193 -367h25q18 0 18 -75v-19q0 -86 -18 -86h-29q-232 0 -297 229q-164 -226 -560 -226q-136 0 -221 15v178q167 -22 322 -12q-197 681 -365 1067z" />
    <glyph glyph-name="uniFEFB" unicode="&#xfedf;&#xfe8e;" horiz-adv-x="1169" arabic-form="isolated" 
d="M249 1343q201 -487 372 -1122l1 -2h2q235 77 235 419v758h165v-759q0 -634 -668 -634q-136 0 -221 15v178q167 -22 320 -12h2l-1 3q-197 683 -364 1064z" />
    <glyph glyph-name="uniFEFC" unicode="&#xfee0;&#xfe8e;" horiz-adv-x="1233" arabic-form="final" 
d="M249 1343q200 -485 373 -1124q237 77 237 419v758h165v-849q-1 -367 193 -367h25q18 0 18 -75v-19q0 -86 -18 -86h-29q-232 0 -297 229q-164 -226 -560 -226q-136 0 -221 15v178q167 -22 322 -12q-197 681 -365 1067z" />
    <glyph glyph-name="uni0651064B" unicode="&#x64b;&#x651;" 
d="M336 1279v100l451 184v-99zM336 1531v100l451 184v-99zM590 1003q-25 -106 -151 -106q-132 0 -136 167q-1 58 13 106l74 -12q-35 -167 61 -167q84 -1 88 115q2 50 1 117h74l2 -80q-1 -94 68 -94q102 1 56 219l85 14q17 -61 17 -120q0 -200 -145 -201q-72 -1 -107 42z" />
    <glyph glyph-name="uni0651064C" unicode="&#x64c;&#x651;" 
d="M580 1788q-20 -23 -20 -54q0 -58 67 -86l74 -25l2 -1l1 2l6.5 13t6.5 13.5t5 13.5t4 13.5t3 13.5t1.5 14t0.5 14q0 100 -83 99q-43 0 -68 -30zM311 1582q2 -113 36 -169q35 -57 100 -56q36 1 73 19.5t76 56.5q22 22 43 52q22 32 41 70l2 3h-3l-30 6q-13 3 -31 8
q-15 5 -28 10t-24 10q-12 6 -21 13q-10 6 -17 13q-8 7 -14 15q-16 21 -24 44t-8 48q0 51 17 84q22 42 58 63t87 21q71 1 114 -40q47 -46 47 -133q1 -40 -21 -108l-1 -3h3l30 -1q29 -2 56 -2v-75q-37 1 -48 2l-76 7h-2v-1q-15 -37 -35 -70t-48.5 -56t-57.5 -48
q-71 -63 -75 -65q-40 -17 -82 -17q-92 -1 -139 74t-50 225h52zM607 997q-25 -106 -151 -106q-132 0 -136 167q-1 58 13 106l74 -12q-35 -167 61 -167q84 -1 88 115q2 50 1 117h74l2 -80q-1 -94 68 -94q102 1 56 219l85 14q17 -61 17 -120q0 -200 -145 -201q-72 -1 -107 42z
" />
    <glyph glyph-name="uni064B0651" unicode="&#x64d;&#x651;" 
d="M488 1529q-25 -106 -151 -106q-132 0 -136 167q-1 58 13 106l74 -12q-35 -167 61 -167q84 -1 88 115q2 50 1 117h74l2 -80q-1 -94 68 -94q102 1 56 219l85 14q17 -61 17 -120q0 -200 -145 -201q-72 -1 -107 42zM285 870v100l451 184v-99zM285 1122v100l451 184v-99z" />
    <glyph glyph-name="uni0651064E" unicode="&#x64e;&#x651;" 
d="M320 1478v99l452 185v-99zM595 1211q-25 -106 -151 -106q-132 0 -136 167q-1 58 13 106l74 -12q-35 -167 61 -167q84 -1 88 115q2 50 1 117h74l2 -80q-1 -94 68 -94q102 1 56 219l85 14q17 -61 17 -120q0 -200 -145 -201q-72 -1 -107 42z" />
    <glyph glyph-name="uni0651064F" unicode="&#x64f;&#x651;" 
d="M817 1461q-15 0 -28.5 0.5t-25.5 1t-22.5 1.5t-20.5 2l-31 4h-1l-1 -1q-33 -46 -72.5 -82t-86 -61t-99.5 -39t-112 -17v74q189 9 287 147l1 3h-3q-42 9 -88 34q-86 48 -86 133q0 15 2.5 30t7 28t11 25t15.5 23q45 54 125 54q30 0 56 -9t48 -27q32 -25 47 -63
q5 -14 7.5 -29.5t2.5 -32.5q-1 -19 -3.5 -38.5t-8.5 -39.5t-14 -40l-1 -3h3l19 -2q39 -3 72 -2v-74zM648 1554l6 14q21 49 21 91t-26 63q-25 22 -56 22q-15 1 -28 -2.5t-24 -11t-19 -18.5q-9 -12 -13.5 -25.5t-4.5 -29.5q0 -48 67 -79q23 -11 74 -25l2 -1zM592 1004
q-25 -106 -151 -106q-132 0 -136 167q-1 58 13 106l74 -12q-35 -167 61 -167q84 -1 88 115q2 50 1 117h74l2 -80q-1 -94 68 -94q102 1 56 219l85 14q17 -61 17 -120q0 -200 -145 -201q-72 -1 -107 42z" />
    <glyph glyph-name="uni064E0651" unicode="&#x650;&#x651;" 
d="M580 1416q-25 -106 -151 -106q-132 0 -136 167q-1 58 13 106l74 -12q-35 -167 61 -167q84 -1 88 115q2 50 1 117h74l2 -80q-1 -94 68 -94q102 1 56 219l85 14q17 -61 17 -120q0 -200 -145 -201q-72 -1 -107 42zM356 1000v99l452 185v-99z" />
    <glyph glyph-name="uni0654064E" unicode="&#x64e;&#x654;" 
d="M406 1746v99l452 185v-99zM531 1339q-93 72 -93 179q0 87 58 149q69 72 176 72q47 0 89.5 -10.5t79.5 -31.5l1 -127q-92 40 -156 40q-32 0 -56.5 -8.5t-41.5 -26.5q-29 -29 -29 -70q1 -38 30 -67t86 -49q12 -4 25 -3q49 6 168 27v-131l-433 -97v129l95 22h4z" />
    <glyph glyph-name="uni0654064F" unicode="&#x64f;&#x654;" 
d="M905 1755q-15 0 -28.5 0.5t-25.5 1t-22.5 1.5t-20.5 2l-31 4h-1l-1 -1q-33 -46 -72.5 -82t-86 -61t-99.5 -39t-112 -17v74q189 9 287 147l1 3h-3q-42 9 -88 34q-86 48 -86 133q0 15 2.5 30t7 28t11 25t15.5 23q45 54 125 54q30 0 56 -9t48 -27q32 -25 47 -63
q5 -14 7.5 -29.5t2.5 -32.5q-1 -19 -3.5 -38.5t-8.5 -39.5t-14 -40l-1 -3h3l19 -2q39 -3 72 -2v-74zM736 1848l6 14q21 49 21 91t-26 63q-25 22 -56 22q-15 1 -28 -2.5t-24 -11t-19 -18.5q-9 -12 -13.5 -25.5t-4.5 -29.5q0 -48 67 -79q23 -11 74 -25l2 -1zM524 1121
q-93 72 -93 179q0 87 58 149q69 72 176 72q47 0 89.5 -10.5t79.5 -31.5l1 -127q-92 40 -156 40q-32 0 -56.5 -8.5t-41.5 -26.5q-29 -29 -29 -70q1 -38 30 -67t86 -49q12 -4 25 -3q49 6 168 27v-131l-433 -97v129l95 22h4z" />
    <glyph glyph-name="uni066E.fina" unicode="&#x66e;" horiz-adv-x="1811" 
d="M1521 152q-134 -152 -657 -152h-3q-754 0 -755 464q0 99 27 221l156 -30q-18 -86 -18 -172q1 -303 581 -303q448 0 576 104q40 33 45 90l14 197h121l15 -200q15 -191 185 -191h8q18 0 18 -84v-10q0 -86 -18 -86h-10q-205 0 -285 152z" />
    <glyph glyph-name="uni066F.fina" unicode="&#x66f;" horiz-adv-x="1396" 
d="M681 -468q-182 1 -320 72q-257 133 -256 495q0 158 65 347l159 -45q-54 -168 -54 -300q1 -395 419 -397q386 -2 425 296l-58 1q-430 6 -430 332q0 153 87 263q87 109 231 109q193 1 279 -173q58 -116 66 -352h110q6 0 9 -8q6 -14 7 -25q2 -42 2 -43v-19q0 -19 -2 -48
q-2 -17 -7 -28q-4 -9 -9 -9l-115 1h-2v-2q-51 -466 -606 -467zM1134 183q-22 342 -185 343q-74 -1 -115 -56q-40 -54 -40 -125q0 -160 266 -163l72 -1h2v2z" />
    <glyph glyph-name="uni06A1.init" unicode="&#x6a1;" horiz-adv-x="914" 
d="M631 530q-20 318 -173 318q-83 0 -125 -84q-21 -43 -21 -96q0 -135 235 -139q42 -1 82 -1h2v2zM801 482q0 -189 -61 -285q-124 -197 -495 -197h-252q-56 0 -56 86v19q0 75 56 75h263q362 0 373 175h-81q-400 3 -399 300q0 114 47 204q89 169 263 169q218 0 292 -211
q50 -141 50 -335z" />
    <glyph glyph-name="uni06A1.medi" unicode="&#x6a1;" horiz-adv-x="1012" 
d="M653 583q-107 87 -212 1q-63 -50 -63 -125q1 -65 56 -128q61 -71 110 -75q52 -4 115 74q53 66 53 127q0 79 -59 126zM543 91q-123 -91 -509 -91h-41q-56 0 -56 86v19q0 75 56 75h41q304 2 326 9q-151 126 -152 267q0 134 74 221q105 124 264 123q156 0 254 -110
q82 -95 82 -231q0 -149 -148 -270q29 -9 254 -9h32q18 0 18 -75v-19q0 -86 -18 -86h-30q-325 0 -447 91z" />
    <glyph glyph-name="uni06A1.fina" unicode="&#x6a1;" horiz-adv-x="1915" 
d="M1556 583q-107 87 -212 1q-63 -50 -63 -125q1 -65 56 -128q61 -71 110 -75q52 -4 115 74q53 66 53 127q0 79 -59 126zM1637 189q27 -9 254 -9h32q18 0 18 -75v-19q0 -86 -18 -86h-30q-325 0 -447 91q-132 -91 -582 -91h-3q-754 0 -755 464q0 99 27 221l156 -30
q-18 -86 -18 -172q1 -303 583 -303q390 0 409 9q-151 126 -152 267q0 134 74 221q105 124 264 123q156 0 254 -110q82 -95 82 -231q0 -149 -148 -270z" />
    <glyph glyph-name="uni06CA.fina" unicode="&#x6ca;" horiz-adv-x="833" 
d="M414 1036l127 126l126 -127l-126 -126zM131 1036l126 126l127 -127l-127 -126zM748 0q-18 -82 -39 -125q-141 -293 -622 -341l-29 164q440 34 520 302l-58 1q-430 6 -430 331q0 154 87 264q87 109 231 109q194 0 279 -173q64 -131 72 -352h82q18 0 18 -84v-10
q0 -86 -18 -86h-93zM593 183q-22 342 -186 342q-73 0 -115 -55q-39 -54 -39 -125q0 -161 266 -164h72h2v2z" />
    <glyph glyph-name="uni06D5.fina" unicode="&#x6d5;" horiz-adv-x="946" 
d="M955 180q18 0 18 -70v-24q0 -44 -5 -64q-5 -22 -13 -22h-20q-260 0 -309 346l-21 142q-9 63 -32 93q-24 31 -63 31q-38 0 -93 -33q-71 -42 -112 -107q-38 -58 -38 -116q-1 -139 163 -155q68 -7 158 -8l-6 -172q-172 0 -287 46q-192 77 -192 289q0 193 190 348
q111 91 234 91q131 0 181 -73q22 -30 37 -77q14 -46 21 -109q29 -248 66 -298q42 -58 112 -58h11z" />
    <glyph glyph-name="uniFB56" unicode="&#x67e;" horiz-adv-x="1747" arabic-form="isolated" 
d="M271 483q2 -303 595 -303q630 1 620 303q-2 78 -31 184l158 30q40 -120 40 -209q-1 -488 -789 -488h-3q-754 0 -755 464q0 99 27 221l156 -30q-18 -86 -18 -172zM786.674 -537.974l131.603 131.604l131.604 -131.604l-131.604 -131.604zM938.605 -290.816
l131.604 131.604l131.604 -130.533l-131.604 -132.674zM634.741 -290.816l131.604 131.604l131.603 -130.533l-131.603 -132.674z" />
    <glyph glyph-name="uniFB57" unicode="&#x67e;" horiz-adv-x="1811" arabic-form="final" 
d="M758.674 -537.974l131.603 131.604l131.604 -131.604l-131.604 -131.604zM910.605 -290.816l131.604 131.604l131.604 -130.533l-131.604 -132.674zM606.741 -290.816l131.604 131.604l131.603 -130.533l-131.603 -132.674zM1521 152q-134 -152 -657 -152h-3
q-754 0 -755 464q0 99 27 221l156 -30q-18 -86 -18 -172q1 -303 581 -303q448 0 576 104q40 33 45 90l14 197h121l15 -200q15 -191 185 -191h8q18 0 18 -84v-10q0 -86 -18 -86h-10q-205 0 -285 152z" />
    <glyph glyph-name="uniFB58" unicode="&#x67e;" horiz-adv-x="616" arabic-form="initial" 
d="M129 0h-136q-56 0 -56 86v19q0 75 56 75h146q231 0 231 279q0 106 -28 227l163 30q27 -137 27 -253q0 -463 -403 -463zM115.674 -537.974l131.603 131.604l131.604 -131.604l-131.604 -131.604zM267.605 -290.816l131.604 131.604l131.604 -130.533l-131.604 -132.674z
M-36.2588 -290.816l131.604 131.604l131.603 -130.533l-131.603 -132.674z" />
    <glyph glyph-name="uniFB59" unicode="&#x67e;" horiz-adv-x="667" arabic-form="medial" 
d="M115.674 -537.974l131.603 131.604l131.604 -131.604l-131.604 -131.604zM267.605 -290.816l131.604 131.604l131.604 -130.533l-131.604 -132.674zM-36.2588 -290.816l131.604 131.604l131.603 -130.533l-131.603 -132.674zM413 133q-94 -133 -307 -133h-114
q-55 0 -55 86v19q0 75 55 75h109q216 0 231 194l14 197h121l15 -200q15 -191 185 -191h8q18 0 18 -84v-10q0 -86 -18 -86h-10q-182 0 -252 133z" />
    <glyph glyph-name="uniFB7A" unicode="&#x686;" horiz-adv-x="1306" arabic-form="isolated" 
d="M794 535q-289 117 -365 117q-95 0 -221 -148l-126 106q152 220 333 220q90 0 407 -128q227 -92 377 -101l-16 -174q-175 -11 -291 -37q-609 -143 -609 -511q0 -351 533 -351q191 0 370 85v-184q-152 -72 -384 -72q-487 0 -632 276q-53 100 -53 230q0 522 677 672z
M661.674 -193.974l131.603 131.604l131.604 -131.604l-131.604 -131.604zM813.605 53.1836l131.604 131.604l131.604 -130.533l-131.604 -132.674zM509.741 53.1836l131.604 131.604l131.603 -130.533l-131.603 -132.674z" />
    <glyph glyph-name="uniFB7B" unicode="&#x686;" horiz-adv-x="1326" arabic-form="final" 
d="M550.748 -246.253l116.8 116.799l116.799 -116.799l-116.799 -116.799zM685.59 -26.8984l116.799 116.799l116.799 -115.85l-116.799 -117.748zM415.907 -26.8984l116.799 116.799l116.8 -115.85l-116.8 -117.748zM1199 601l-16 -174q-125 -8 -195 -18v-13
q0 -216 303 -216h43q18 0 18 -70v-24q0 -86 -18 -86h-43q-444 0 -450 362v15q-558 -146 -558 -498q0 -351 533 -351q191 0 370 85v-184q-152 -72 -384 -72q-489 0 -632 274q-54 102 -53 232q0 522 677 672q-289 117 -365 117q-95 0 -221 -148l-126 106q152 220 333 220
q90 0 407 -128q227 -92 377 -101z" />
    <glyph glyph-name="uniFB7C" unicode="&#x686;" horiz-adv-x="1289" arabic-form="initial" 
d="M-7 180h165q334 0 743 280q-396 162 -479 162q-95 0 -221 -148l-126 106q152 220 333 220q90 0 407 -128q227 -92 377 -101l-18 -166q-41 -7 -120 -53q-157 -91 -332 -197q-256 -155 -571 -155h-158q-56 0 -56 86v19q0 75 56 75zM549.674 -537.974l131.603 131.604
l131.604 -131.604l-131.604 -131.604zM701.605 -290.816l131.604 131.604l131.604 -130.533l-131.604 -132.674zM397.741 -290.816l131.604 131.604l131.603 -130.533l-131.603 -132.674z" />
    <glyph glyph-name="uniFB7D" unicode="&#x686;" horiz-adv-x="1321" arabic-form="medial" 
d="M549.674 -537.974l131.603 131.604l131.604 -131.604l-131.604 -131.604zM701.605 -290.816l131.604 131.604l131.604 -130.533l-131.604 -132.674zM397.741 -290.816l131.604 131.604l131.603 -130.533l-131.603 -132.674zM158 180q333 0 743 280q-396 162 -479 162
q-95 0 -221 -148l-126 106q152 220 333 220q90 0 407 -128q227 -92 377 -101l-18 -166q-41 -7 -120 -53l-66 -38q45 -134 299 -134h43q19 0 19 -70v-24q0 -86 -19 -86h-49q-350 0 -425 236q-66 -40 -134 -81q-256 -155 -571 -155h-158q-56 0 -56 86v19q0 75 56 75h165z" />
    <glyph glyph-name="uniFB8A" unicode="&#x698;" horiz-adv-x="820" arabic-form="isolated" 
d="M545 160q0 148 -92 281l147 78q111 -165 111 -358q0 -560 -681 -627l-29 164q544 44 544 462zM341.674 1064.03l131.603 131.604l131.604 -132.674l-131.604 -131.604zM493.605 816.875l131.604 131.604l131.604 -132.673l-131.604 -131.604zM189.741 816.875
l131.604 131.604l131.603 -132.673l-131.603 -131.604z" />
    <glyph glyph-name="uniFB8B" unicode="&#x698;" horiz-adv-x="854" arabic-form="final" 
d="M341.674 1064.03l131.603 131.604l131.604 -132.674l-131.604 -131.604zM493.605 816.875l131.604 131.604l131.604 -132.673l-131.604 -131.604zM189.741 816.875l131.604 131.604l131.603 -132.673l-131.603 -131.604zM703 48q-5 -36 -15 -75q-99 -384 -658 -439
l-29 164q546 44 544 462q0 148 -92 281l147 78q28 -69 97 -221q54 -118 138 -118h28q18 0 18 -70v-24q0 -86 -18 -86h-17q-100 0 -143 48z" />
    <glyph glyph-name="uniFB8E" unicode="&#x6a9;" horiz-adv-x="1810" arabic-form="isolated" 
d="M271 483q2 -303 572 -303h242q343 0 346 203q1 96 -81 178q-49 49 -300 244q-110 85 -110 177q0 62 37 111q30 39 102 69l670 277v-180l-654 -272l345 -281q159 -130 156 -328q-5 -378 -510 -378h-243q-737 0 -737 464q0 99 27 221l156 -30q-18 -86 -18 -172z" />
    <glyph glyph-name="uniFB8F" unicode="&#x6a9;" horiz-adv-x="1877" arabic-form="final" 
d="M843 180h242q343 0 346 203q1 96 -81 178q-49 49 -300 244q-110 85 -110 177q0 62 36 110q31 40 103 70l670 277v-180l-651 -271l-3 -1l2 -2l343 -279q149 -122 156 -328q8 -198 272 -198h16q18 0 18 -75v-19q0 -86 -18 -86h-16q-278 0 -351 146q-103 -146 -431 -146
h-243q-737 0 -737 464q0 99 27 221l156 -30q-18 -86 -18 -172q2 -303 572 -303z" />
    <glyph glyph-name="uniFB90" unicode="&#x6a9;" horiz-adv-x="960" arabic-form="initial" 
d="M236 0h-243q-56 0 -56 86v19q0 75 56 75h242q343 0 346 203q1 96 -81 178q-49 49 -300 244q-110 85 -110 177q0 62 36 110q28 39 103 70l670 277v-180l-651 -271l-3 -1l2 -2l343 -279q159 -130 156 -328q-5 -378 -510 -378z" />
    <glyph glyph-name="uniFB91" unicode="&#x6a9;" horiz-adv-x="987" arabic-form="medial" 
d="M236 0h-243q-56 0 -56 86v19q0 75 56 75h242q343 0 346 203q1 96 -81 178q-49 49 -300 244q-110 85 -110 177q0 60 36 110q28 39 103 70l670 277v-180l-651 -271l-3 -1l2 -2l343 -279q149 -122 156 -328q8 -198 232 -198h16q18 0 18 -75v-19q0 -86 -18 -86h-16
q-238 0 -311 146q-103 -146 -431 -146z" />
    <glyph glyph-name="uniFB92" unicode="&#x6af;" horiz-adv-x="1821" arabic-form="isolated" 
d="M271 483q2 -303 572 -303h242q343 0 346 203q1 96 -81 178q-49 49 -300 244q-110 85 -110 177q0 62 37 111q30 39 102 69l670 277v-180l-654 -272l345 -281q159 -130 156 -328q-5 -378 -510 -378h-243q-737 0 -737 464q0 99 27 221l156 -30q-18 -86 -18 -172z
M1742.81 1599.01l-756.452 -327.404v124.114l756.452 326.333v-123.043z" />
    <glyph glyph-name="uniFB93" unicode="&#x6af;" horiz-adv-x="1877" arabic-form="final" 
d="M1742.81 1599.01l-756.452 -327.404v124.114l756.452 326.333v-123.043zM843 180h242q343 0 346 203q1 96 -81 178q-49 49 -300 244q-110 85 -110 177q0 62 36 110q31 40 103 70l670 277v-180l-651 -271l-3 -1l2 -2l343 -279q149 -122 156 -328q8 -198 272 -198h16
q18 0 18 -75v-19q0 -86 -18 -86h-16q-278 0 -351 146q-103 -146 -431 -146h-243q-737 0 -737 464q0 99 27 221l156 -30q-18 -86 -18 -172q2 -303 572 -303z" />
    <glyph glyph-name="uniFB94" unicode="&#x6af;" horiz-adv-x="960" arabic-form="initial" 
d="M236 0h-243q-56 0 -56 86v19q0 75 56 75h242q343 0 346 203q1 96 -81 178q-49 49 -300 244q-110 85 -110 177q0 62 36 110q28 39 103 70l670 277v-180l-651 -271l-3 -1l2 -2l343 -279q159 -130 156 -328q-5 -378 -510 -378zM892.81 1602.01l-756.452 -327.404v124.114
l756.452 326.333v-123.043z" />
    <glyph glyph-name="uniFB95" unicode="&#x6af;" horiz-adv-x="987" arabic-form="medial" 
d="M892.81 1602.01l-756.452 -327.404v124.114l756.452 326.333v-123.043zM236 0h-243q-56 0 -56 86v19q0 75 56 75h242q343 0 346 203q1 96 -81 178q-49 49 -300 244q-110 85 -110 177q0 60 36 110q28 39 103 70l670 277v-180l-651 -271l-3 -1l2 -2l343 -279
q149 -122 156 -328q8 -198 232 -198h16q18 0 18 -75v-19q0 -86 -18 -86h-16q-238 0 -311 146q-103 -146 -431 -146z" />
    <glyph glyph-name="uniFB9E" unicode="&#x6ba;" horiz-adv-x="1405" arabic-form="isolated" 
d="M1245 573q56 -169 56 -360q-1 -246 -102 -393q-151 -221 -518 -221q-181 0 -320 72q-257 133 -256 495q0 158 65 347l158 -45q-54 -168 -54 -300q1 -396 419 -397q265 -1 371 161q72 110 73 300q0 130 -59 301z" />
    <glyph glyph-name="uniFB9F" unicode="&#x6ba;" horiz-adv-x="1469" arabic-form="final" 
d="M1277 375q23 -99 51 -133q52 -62 131 -62h19q18 0 18 -70v-24q0 -86 -18 -86h-15q-103 0 -165 58q-15 -182 -104 -310q-153 -216 -513 -216q-181 0 -320 72q-257 133 -256 495q0 158 65 347l159 -45q-54 -168 -54 -300q1 -396 419 -397q265 -1 371 161q72 110 73 300
q0 130 -59 301l167 40z" />
    <glyph glyph-name="uniFBAC" unicode="&#x6be;" horiz-adv-x="1395" arabic-form="initial" 
d="M516 72q-244 -72 -421 -72h-102q-56 0 -56 86v19q0 75 56 75h321q-148 102 -147 278q0 128 84 225q103 120 267 119q151 -1 262 -107q86 -82 87 -202q0 -159 -132 -261q-20 -15 -42 -28q21 -4 41 -8q102 -17 194 -17q187 0 188 175q0 97 -102 214q-174 203 -396 291
l65 163q608 -333 610 -665q1 -124 -68 -219q-98 -136 -326 -137q-156 -1 -383 71zM622 329q81 73 80 161q-1 50 -38 90q-54 60 -140 60q-101 0 -156 -88q-27 -42 -28 -98q0 -81 65 -139q27 -24 61 -40q24 -11 52 -19q49 23 104 73z" />
    <glyph glyph-name="uniFBAD" unicode="&#x6be;" horiz-adv-x="1022" arabic-form="medial" 
d="M617 -291q30 471 391 471h22q18 0 18 -75v-19q0 -86 -18 -86h-24q-260 0 -253 -356q0 -26 4 -116q-408 11 -521 472h-243q-56 0 -56 86v19q0 75 56 75h213h18v2q4 626 326 626q121 0 187 -79q71 -87 72 -234q0 -211 -146 -360q-110 -111 -267 -137q54 -206 221 -289z
M387 179q264 36 264 323q0 135 -111 135q-152 0 -153 -456v-2z" />
    <glyph glyph-name="uniFBE8" unicode="&#x649;" horiz-adv-x="616" arabic-form="initial" 
d="M129 0h-136q-56 0 -56 86v19q0 75 56 75h146q231 0 231 279q0 106 -28 227l163 30q27 -137 27 -253q0 -463 -403 -463z" />
    <glyph glyph-name="uniFBE9" unicode="&#x649;" horiz-adv-x="667" arabic-form="medial" 
d="M413 133q-94 -133 -307 -133h-114q-55 0 -55 86v19q0 75 55 75h109q216 0 231 194l14 197h121l15 -200q15 -191 185 -191h8q18 0 18 -84v-10q0 -86 -18 -86h-10q-182 0 -252 133z" />
    <glyph glyph-name="uniFBFC" unicode="&#x6cc;" horiz-adv-x="1413" arabic-form="isolated" 
d="M702 -227q237 1 355 94q87 68 96 164q1 65 -90 66l-81 1q-237 3 -240 218q-3 244 186 369q138 92 377 97v-189q-259 -3 -353 -133q-40 -56 -39 -130q1 -50 63 -50h61q287 0 286 -212q-1 -169 -113 -288q-165 -177 -515 -178q-220 0 -366 85q-228 134 -227 462
q0 203 67 398l158 -45q-54 -180 -54 -351q0 -381 429 -378z" />
    <glyph glyph-name="uniFBFD" unicode="&#x6cc;" horiz-adv-x="1433" arabic-form="final" 
d="M886 27q-20 23 -34 84q-15 62 3 69h584q19 0 19 -75v-19q0 -86 -19 -86h-62h-90q35 -45 35 -106q0 -33 -11 -72q-36 -129 -187 -207q-158 -82 -419 -83q-193 0 -340 66q-264 116 -263 451q0 129 55 292l159 -45q-43 -149 -43 -245q0 -349 439 -348q331 1 425 142
q23 35 23 68q-2 87 -134 88h-93q-28 3 -47 26z" />
    <glyph glyph-name="uniFBFE" unicode="&#x6cc;" horiz-adv-x="616" arabic-form="initial" 
d="M129 0h-136q-56 0 -56 86v19q0 75 56 75h146q231 0 231 279q0 106 -28 227l163 30q27 -137 27 -253q0 -463 -403 -463zM270.326 -316.796l135.883 134.813l134.813 -135.883l-134.813 -134.813zM-32.4688 -316.796l134.813 134.813l135.883 -135.883l-135.883 -134.813z
" />
    <glyph glyph-name="uniFBFF" unicode="&#x6cc;" horiz-adv-x="667" arabic-form="medial" 
d="M270.326 -316.796l135.883 134.813l134.813 -135.883l-134.813 -134.813zM-32.4688 -316.796l134.813 134.813l135.883 -135.883l-135.883 -134.813zM413 133q-94 -133 -307 -133h-114q-55 0 -55 86v19q0 75 55 75h109q216 0 231 194l14 197h121l15 -200
q15 -191 185 -191h8q18 0 18 -84v-10q0 -86 -18 -86h-10q-182 0 -252 133z" />
    <glyph glyph-name="uniFDFC" unicode="&#xfdfc;" horiz-adv-x="3256" arabic-form="isolated" 
d="M668 -246q388 -1 389 394l3 1248h166l-1 -1229q0 -584 -558 -584q-223 2 -362 89q-202 127 -201 427q0 158 65 347l160 -45q-54 -168 -54 -300q0 -347 393 -347zM2890 101q0 148 -92 281l147 78q111 -165 111 -358q0 -560 -681 -627l-29 164q544 44 544 462zM2023 0h-136
q-56 0 -56 86v19q0 75 56 75h146q231 0 231 279q0 106 -28 227l163 30q27 -137 27 -253q0 -463 -403 -463zM2026.33 -251.796l135.883 134.813l134.813 -135.883l-134.813 -134.813zM1723.53 -251.796l134.813 134.813l135.883 -135.883l-135.883 -134.813zM1910 86
q1 -86 -18 -86h-21q-352 0 -352 436v960h166v-958q0 -258 189 -258h18q18 0 18 -75v-19z" />
    <glyph glyph-name="uniFE71" unicode="&#xfe71;" horiz-adv-x="791" arabic-form="medial" 
d="M819 86q0 -86 -18 -86h-302q-56 0 -56 86v19q0 75 56 75h302q18 0 18 -75v-19zM561 86q0 -86 -18 -86h-302q-56 0 -56 86v19q0 75 56 75h302q18 0 18 -75v-19zM313 86q0 -86 -18 -86h-302q-56 0 -56 86v19q0 75 56 75h302q18 0 18 -75v-19zM48 1077v100l451 184v-99z
M48 1329v100l451 184v-99z" />
    <glyph glyph-name="uniFE77" unicode="&#xfe77;" horiz-adv-x="791" arabic-form="medial" 
d="M819 86q0 -86 -18 -86h-302q-56 0 -56 86v19q0 75 56 75h302q18 0 18 -75v-19zM561 86q0 -86 -18 -86h-302q-56 0 -56 86v19q0 75 56 75h302q18 0 18 -75v-19zM313 86q0 -86 -18 -86h-302q-56 0 -56 86v19q0 75 56 75h302q18 0 18 -75v-19zM17 1350v99l452 185v-99z" />
    <glyph glyph-name="uniFE79" unicode="&#xfe79;" horiz-adv-x="791" arabic-form="medial" 
d="M819 86q0 -86 -18 -86h-302q-56 0 -56 86v19q0 75 56 75h302q18 0 18 -75v-19zM561 86q0 -86 -18 -86h-302q-56 0 -56 86v19q0 75 56 75h302q18 0 18 -75v-19zM313 86q0 -86 -18 -86h-302q-56 0 -56 86v19q0 75 56 75h302q18 0 18 -75v-19zM540 1474q-15 0 -28.5 0.5
t-25.5 1t-22.5 1.5t-20.5 2l-31 4h-1l-1 -1q-33 -46 -72.5 -82t-86 -61t-99.5 -39t-112 -17v74q189 9 287 147l1 3h-3q-42 9 -88 34q-86 48 -86 133q0 15 2.5 30t7 28t11 25t15.5 23q45 54 125 54q30 0 56 -9t48 -27q32 -25 47 -63q5 -14 7.5 -29.5t2.5 -32.5
q-1 -19 -3.5 -38.5t-8.5 -39.5t-14 -40l-1 -3h3l19 -2q39 -3 72 -2v-74zM371 1567l6 14q21 49 21 91t-26 63q-25 22 -56 22q-15 1 -28 -2.5t-24 -11t-19 -18.5q-9 -12 -13.5 -25.5t-4.5 -29.5q0 -48 67 -79q23 -11 74 -25l2 -1z" />
    <glyph glyph-name="uniFE7B" unicode="&#xfe7b;" horiz-adv-x="791" arabic-form="medial" 
d="M819 86q0 -86 -18 -86h-302q-56 0 -56 86v19q0 75 56 75h302q18 0 18 -75v-19zM561 86q0 -86 -18 -86h-302q-56 0 -56 86v19q0 75 56 75h302q18 0 18 -75v-19zM313 86q0 -86 -18 -86h-302q-56 0 -56 86v19q0 75 56 75h302q18 0 18 -75v-19zM64 -451v100l451 184v-99z" />
    <glyph glyph-name="uniFE7D" unicode="&#xfe7d;" horiz-adv-x="791" arabic-form="medial" 
d="M819 86q0 -86 -18 -86h-302q-56 0 -56 86v19q0 75 56 75h302q18 0 18 -75v-19zM561 86q0 -86 -18 -86h-302q-56 0 -56 86v19q0 75 56 75h302q18 0 18 -75v-19zM313 86q0 -86 -18 -86h-302q-56 0 -56 86v19q0 75 56 75h302q18 0 18 -75v-19zM302 1544q-25 -106 -151 -106
q-132 0 -136 167q-1 58 13 106l74 -12q-35 -167 61 -167q84 -1 88 115q2 50 1 117h74l2 -80q-1 -94 68 -94q102 1 56 219l85 14q17 -61 17 -120q0 -200 -145 -201q-72 -1 -107 42z" />
    <glyph glyph-name="uniFE7F" unicode="&#xfe7f;" horiz-adv-x="791" arabic-form="medial" 
d="M819 86q0 -86 -18 -86h-302q-56 0 -56 86v19q0 75 56 75h302q18 0 18 -75v-19zM561 86q0 -86 -18 -86h-302q-56 0 -56 86v19q0 75 56 75h302q18 0 18 -75v-19zM313 86q0 -86 -18 -86h-302q-56 0 -56 86v19q0 75 56 75h302q18 0 18 -75v-19zM119 1460q0 81 56 137
t137.5 56t137.5 -56q28 -28 42 -62.5t14 -74.5q0 -81 -56 -138q-14 -14 -30 -24.5t-33 -17.5t-35.5 -10.5t-39.5 -3.5q-40 0 -74.5 14t-62.5 42.5t-42 62.5t-14 75zM202 1459q-1 -48 33 -81q32 -33 80 -33q47 0 81 33q32 33 33 81q-1 47 -33 80q-11 11 -24 18.5t-27 11
t-30 3.5q-48 0 -80 -33q-34 -33 -33 -80z" />
    <glyph glyph-name="uniFE80" unicode="&#x621;" horiz-adv-x="908" arabic-form="isolated" 
d="M120 13v174q127 80 239 116l4 1l-4 2q-231 121 -230 311q0 123 83 221q98 114 277 114q154 0 273 -100l-56 -125q-50 27 -101 40t-105 13q-103 0 -155 -40.5t-52 -122.5q0 -126 224 -231h1l280 57v-169q-260 -31 -678 -261z" />
    <glyph glyph-name="uniFE81" unicode="&#x622;" horiz-adv-x="583" arabic-form="isolated" 
d="M215 1255.24h165v-1254.34h-165v1254.34zM223 1459q-56 7 -107 -16.5t-97 -76.5l-99 103q118 168 285 141l149 -24q97 -16 219 45l64 -133q-64 -39 -132 -54t-142 -5z" />
    <glyph glyph-name="uniFE82" unicode="&#x622;" horiz-adv-x="571" arabic-form="final" 
d="M223 1459q-56 7 -107 -16.5t-97 -76.5l-99 103q118 168 285 141l149 -24q97 -16 219 45l64 -133q-64 -39 -132 -54t-142 -5zM557 86q1 -86 -18 -86h-21q-352 0 -352 436v820h166v-818q0 -258 189 -258h18q18 0 18 -75v-19z" />
    <glyph glyph-name="uniFE83" unicode="&#x623;" horiz-adv-x="497" arabic-form="isolated" 
d="M172 1255.24h165v-1254.34h-165v1254.34zM125 1493q-93 72 -93 179q0 87 58 149q69 72 176 72q47 0 89.5 -10.5t79.5 -31.5l1 -127q-92 40 -156 40q-32 0 -56.5 -8.5t-41.5 -26.5q-29 -29 -29 -70q1 -38 30 -67t86 -49q12 -4 25 -3q49 6 168 27v-131l-433 -97v129l95 22
h4z" />
    <glyph glyph-name="uniFE84" unicode="&#x623;" horiz-adv-x="571" arabic-form="final" 
d="M125 1493q-93 72 -93 179q0 87 58 149q69 72 176 72q47 0 89.5 -10.5t79.5 -31.5l1 -127q-92 40 -156 40q-32 0 -56.5 -8.5t-41.5 -26.5q-29 -29 -29 -70q1 -38 30 -67t86 -49q12 -4 25 -3q49 6 168 27v-131l-433 -97v129l95 22h4zM557 86q1 -86 -18 -86h-21
q-352 0 -352 436v820h166v-818q0 -258 189 -258h18q18 0 18 -75v-19z" />
    <glyph glyph-name="uniFE85" unicode="&#x624;" horiz-adv-x="845" arabic-form="isolated" 
d="M293 1000q-93 72 -93 179q0 87 58 149q69 72 176 72q47 0 89.5 -10.5t79.5 -31.5l1 -127q-92 40 -156 40q-32 0 -56.5 -8.5t-41.5 -26.5q-29 -29 -29 -70q1 -38 30 -67t86 -49q12 -4 25 -3q49 6 168 27v-131l-433 -97v129l95 22h4zM687 532q56 -116 71 -269q6 -56 6 -108
q0 -234 -117 -378q-166 -204 -560 -243l-29 164q439 34 520 302l-58 1q-430 6 -430 331q0 154 87 264q87 109 231 109q195 0 279 -173zM593 183q-22 342 -186 342q-73 0 -115 -55q-39 -54 -39 -125q0 -161 266 -164h72h2v2z" />
    <glyph glyph-name="uniFE86" unicode="&#x624;" horiz-adv-x="833" arabic-form="final" 
d="M748 0q-18 -82 -39 -125q-141 -293 -622 -341l-29 164q440 34 520 302l-58 1q-430 6 -430 331q0 154 87 264q87 109 231 109q194 0 279 -173q64 -131 72 -352h82q18 0 18 -84v-10q0 -86 -18 -86h-93zM593 183q-22 342 -186 342q-73 0 -115 -55q-39 -54 -39 -125
q0 -161 266 -164h72h2v2zM293 1000q-93 72 -93 179q0 87 58 149q69 72 176 72q47 0 89.5 -10.5t79.5 -31.5l1 -127q-92 40 -156 40q-32 0 -56.5 -8.5t-41.5 -26.5q-29 -29 -29 -70q1 -38 30 -67t86 -49q12 -4 25 -3q49 6 168 27v-131l-433 -97v129l95 22h4z" />
    <glyph glyph-name="uniFE87" unicode="&#x625;" horiz-adv-x="497" arabic-form="isolated" 
d="M120 -491q-93 72 -93 179q0 87 58 149q69 72 176 72q47 0 89.5 -10.5t79.5 -31.5l1 -127q-92 40 -156 40q-32 0 -56.5 -8.5t-41.5 -26.5q-29 -29 -29 -70q1 -38 30 -67t86 -49q12 -4 25 -3q49 6 168 27v-131l-433 -97v129l95 22h4zM167 1396h165v-1395h-165v1395z" />
    <glyph glyph-name="uniFE88" unicode="&#x625;" horiz-adv-x="531" arabic-form="final" 
d="M557 86q1 -86 -18 -86h-21q-352 0 -352 436v960h166v-958q0 -258 189 -258h18q18 0 18 -75v-19zM189 -490q-93 72 -93 179q0 87 58 149q69 72 176 72q47 0 89.5 -10.5t79.5 -31.5l1 -127q-92 40 -156 40q-32 0 -56.5 -8.5t-41.5 -26.5q-29 -29 -29 -70q1 -38 30 -67
t86 -49q12 -4 25 -3q49 6 168 27v-131l-433 -97v129l95 22h4z" />
    <glyph glyph-name="uniFE89" unicode="&#x626;" horiz-adv-x="1413" arabic-form="isolated" 
d="M475 856q-93 72 -93 179q0 87 58 149q69 72 176 72q47 0 89.5 -10.5t79.5 -31.5l1 -127q-92 40 -156 40q-32 0 -56.5 -8.5t-41.5 -26.5q-29 -29 -29 -70q1 -38 30 -67t86 -49q12 -4 25 -3q49 6 168 27v-131l-433 -97v129l95 22h4zM702 -227q237 1 355 94q87 68 96 164
q1 65 -90 66l-81 1q-237 3 -240 218q-3 244 186 369q138 92 377 97v-189q-259 -3 -353 -133q-40 -56 -39 -130q1 -50 63 -50h61q287 0 286 -212q-1 -169 -113 -288q-165 -177 -515 -178q-220 0 -366 85q-228 134 -227 462q0 203 67 398l158 -45q-54 -180 -54 -351
q0 -381 429 -378z" />
    <glyph glyph-name="uniFE8A" unicode="&#x626;" horiz-adv-x="1433" arabic-form="final" 
d="M886 27q-20 23 -34 84q-15 62 3 69h584q19 0 19 -75v-19q0 -86 -19 -86h-62h-90q35 -45 35 -106q0 -33 -11 -72q-36 -129 -187 -207q-158 -82 -419 -83q-193 0 -340 66q-264 116 -263 451q0 129 55 292l159 -45q-43 -149 -43 -245q0 -349 439 -348q331 1 425 142
q23 35 23 68q-2 87 -134 88h-93q-28 3 -47 26zM598 537q-93 72 -93 179q0 87 58 149q69 72 176 72q47 0 89.5 -10.5t79.5 -31.5l1 -127q-92 40 -156 40q-32 0 -56.5 -8.5t-41.5 -26.5q-29 -29 -29 -70q1 -38 30 -67t86 -49q12 -4 25 -3q49 6 168 27v-131l-433 -97v129l95 22
h4z" />
    <glyph glyph-name="uniFE8B" unicode="&#x626;" horiz-adv-x="616" arabic-form="initial" 
d="M129 0h-136q-56 0 -56 86v19q0 75 56 75h146q231 0 231 279q0 106 -28 227l163 30q27 -137 27 -253q0 -463 -403 -463zM174 972q-93 72 -93 179q0 87 58 149q69 72 176 72q47 0 89.5 -10.5t79.5 -31.5l1 -127q-92 40 -156 40q-32 0 -56.5 -8.5t-41.5 -26.5
q-29 -29 -29 -70q1 -38 30 -67t86 -49q12 -4 25 -3q49 6 168 27v-131l-433 -97v129l95 22h4z" />
    <glyph glyph-name="uniFE8C" unicode="&#x626;" horiz-adv-x="667" arabic-form="medial" 
d="M413 133q-94 -133 -307 -133h-114q-55 0 -55 86v19q0 75 55 75h109q216 0 231 194l14 197h121l15 -200q15 -191 185 -191h8q18 0 18 -84v-10q0 -86 -18 -86h-10q-182 0 -252 133zM201 876q-93 72 -93 179q0 87 58 149q69 72 176 72q47 0 89.5 -10.5t79.5 -31.5l1 -127
q-92 40 -156 40q-32 0 -56.5 -8.5t-41.5 -26.5q-29 -29 -29 -70q1 -38 30 -67t86 -49q12 -4 25 -3q49 6 168 27v-131l-433 -97v129l95 22h4z" />
    <glyph glyph-name="uniFE8D" unicode="&#x627;" horiz-adv-x="497" arabic-form="isolated" 
d="M167 1396h165v-1395h-165v1395z" />
    <glyph glyph-name="uniFE8E" unicode="&#x627;" horiz-adv-x="531" arabic-form="final" 
d="M557 86q1 -86 -18 -86h-21q-352 0 -352 436v960h166v-958q0 -258 189 -258h18q18 0 18 -75v-19z" />
    <glyph glyph-name="uniFE8F" unicode="&#x628;" horiz-adv-x="1747" arabic-form="isolated" 
d="M271 483q2 -303 595 -303q630 1 620 303q-2 78 -31 184l158 30q40 -120 40 -209q-1 -488 -789 -488h-3q-754 0 -755 464q0 99 27 221l156 -30q-18 -86 -18 -172zM782.901 -316.796l134.813 134.813l135.883 -135.883l-134.812 -134.813z" />
    <glyph glyph-name="uniFE90" unicode="&#x628;" horiz-adv-x="1811" arabic-form="final" 
d="M1521 152q-134 -152 -657 -152h-3q-754 0 -755 464q0 99 27 221l156 -30q-18 -86 -18 -172q1 -303 581 -303q448 0 576 104q40 33 45 90l14 197h121l15 -200q15 -191 185 -191h8q18 0 18 -84v-10q0 -86 -18 -86h-10q-205 0 -285 152zM742.901 -316.796l134.813 134.813
l135.883 -135.883l-134.812 -134.813z" />
    <glyph glyph-name="uniFE91" unicode="&#x628;" horiz-adv-x="576" arabic-form="initial" 
d="M79 0h-86q-56 0 -56 86v19q0 75 56 75h96q231 0 231 279q0 106 -28 227l163 30q27 -137 27 -253q0 -463 -403 -463zM112.901 -316.796l134.813 134.813l135.883 -135.883l-134.812 -134.813z" />
    <glyph glyph-name="uniFE92" unicode="&#x628;" horiz-adv-x="627" arabic-form="medial" 
d="M373 133q-94 -133 -297 -133h-84q-55 0 -55 86v19q0 75 55 75h79q206 0 221 194l14 197h121l15 -200q15 -191 185 -191h8q18 0 18 -84v-10q0 -86 -18 -86h-10q-182 0 -252 133zM141.901 -316.796l134.813 134.813l135.883 -135.883l-134.812 -134.813z" />
    <glyph glyph-name="uniFE93" unicode="&#x629;" horiz-adv-x="942" arabic-form="isolated" 
d="M461 644q-191 -167 -191 -295q0 -168 205 -168q208 0 207 169q0 119 -219 294l-1 1zM393 927q456 -324 456 -583q0 -160 -116 -257q-99 -83 -257 -83q-142 0 -237 65q-134 91 -136 275q-1 188 222 415l-2 1l-30 22zM469.326 1200.2l135.883 134.813l134.813 -135.883
l-134.813 -134.813zM166.531 1200.2l134.813 134.813l135.883 -135.883l-135.883 -134.813z" />
    <glyph glyph-name="uniFE94" unicode="&#x629;" horiz-adv-x="946" arabic-form="final" 
d="M955 180q18 0 18 -70v-24q0 -44 -5 -64q-5 -22 -13 -22h-20q-260 0 -309 346l-21 142q-9 63 -32 93q-24 31 -63 31q-38 0 -93 -33q-71 -42 -112 -107q-38 -58 -38 -116q-1 -139 163 -155q68 -7 158 -8l-6 -172q-172 0 -287 46q-192 77 -192 289q0 193 190 348
q111 91 234 91q131 0 181 -73q22 -30 37 -77q14 -46 21 -109q29 -248 66 -298q42 -58 112 -58h11zM518.326 1144.2l135.883 134.813l134.813 -135.883l-134.813 -134.813zM215.531 1144.2l134.813 134.813l135.883 -135.883l-135.883 -134.813z" />
    <glyph glyph-name="uniFE95" unicode="&#x62a;" horiz-adv-x="1747" arabic-form="isolated" 
d="M271 483q2 -303 595 -303q630 1 620 303q-2 78 -31 184l158 30q40 -120 40 -209q-1 -488 -789 -488h-3q-754 0 -755 464q0 99 27 221l156 -30q-18 -86 -18 -172zM904.326 942.204l135.883 134.813l134.813 -135.883l-134.813 -134.813zM601.531 942.204l134.813 134.813
l135.883 -135.883l-135.883 -134.813z" />
    <glyph glyph-name="uniFE96" unicode="&#x62a;" horiz-adv-x="1811" arabic-form="final" 
d="M1521 152q-134 -152 -657 -152h-3q-754 0 -755 464q0 99 27 221l156 -30q-18 -86 -18 -172q1 -303 581 -303q448 0 576 104q40 33 45 90l14 197h121l15 -200q15 -191 185 -191h8q18 0 18 -84v-10q0 -86 -18 -86h-10q-205 0 -285 152zM917.326 942.204l135.883 134.813
l134.813 -135.883l-134.813 -134.813zM614.531 942.204l134.813 134.813l135.883 -135.883l-135.883 -134.813z" />
    <glyph glyph-name="uniFE97" unicode="&#x62a;" horiz-adv-x="639" arabic-form="initial" 
d="M129 0h-136q-56 0 -56 86v19q0 75 56 75h146q231 0 231 279q0 106 -28 227l163 30q27 -137 27 -253q0 -463 -403 -463zM296.326 1055.2l135.883 134.813l134.813 -135.883l-134.813 -134.813zM-6.46875 1055.2l134.813 134.813l135.883 -135.883l-135.883 -134.813z" />
    <glyph glyph-name="uniFE98" unicode="&#x62a;" horiz-adv-x="667" arabic-form="medial" 
d="M413 133q-94 -133 -307 -133h-114q-55 0 -55 86v19q0 75 55 75h109q216 0 231 194l14 197h121l15 -200q15 -191 185 -191h8q18 0 18 -84v-10q0 -86 -18 -86h-10q-182 0 -252 133zM273.326 942.204l135.883 134.813l134.813 -135.883l-134.813 -134.813zM-29.4688 942.204
l134.813 134.813l135.883 -135.883l-135.883 -134.813z" />
    <glyph glyph-name="uniFE99" unicode="&#x62b;" horiz-adv-x="1747" arabic-form="isolated" 
d="M271 483q2 -303 595 -303q630 1 620 303q-2 78 -31 184l158 30q40 -120 40 -209q-1 -488 -789 -488h-3q-754 0 -755 464q0 99 27 221l156 -30q-18 -86 -18 -172zM756.674 1127.03l131.603 131.604l131.604 -132.674l-131.604 -131.604zM908.605 879.875l131.604 131.604
l131.604 -132.673l-131.604 -131.604zM604.741 879.875l131.604 131.604l131.603 -132.673l-131.603 -131.604z" />
    <glyph glyph-name="uniFE9A" unicode="&#x62b;" horiz-adv-x="1811" arabic-form="final" 
d="M1521 152q-134 -152 -657 -152h-3q-754 0 -755 464q0 99 27 221l156 -30q-18 -86 -18 -172q1 -303 581 -303q448 0 576 104q40 33 45 90l14 197h121l15 -200q15 -191 185 -191h8q18 0 18 -84v-10q0 -86 -18 -86h-10q-205 0 -285 152zM765.674 1125.03l131.603 131.604
l131.604 -132.674l-131.604 -131.604zM917.605 877.875l131.604 131.604l131.604 -132.673l-131.604 -131.604zM613.741 877.875l131.604 131.604l131.603 -132.673l-131.603 -131.604z" />
    <glyph glyph-name="uniFE9B" unicode="&#x62b;" horiz-adv-x="616" arabic-form="initial" 
d="M129 0h-136q-56 0 -56 86v19q0 75 56 75h146q231 0 231 279q0 106 -28 227l163 30q27 -137 27 -253q0 -463 -403 -463zM140.674 1248.03l131.603 131.604l131.604 -132.674l-131.604 -131.604zM292.605 1000.88l131.604 131.604l131.604 -132.673l-131.604 -131.604z
M-11.2588 1000.88l131.604 131.604l131.603 -132.673l-131.603 -131.604z" />
    <glyph glyph-name="uniFE9C" unicode="&#x62b;" horiz-adv-x="667" arabic-form="medial" 
d="M413 133q-94 -133 -307 -133h-114q-55 0 -55 86v19q0 75 55 75h109q216 0 231 194l14 197h121l15 -200q15 -191 185 -191h8q18 0 18 -84v-10q0 -86 -18 -86h-10q-182 0 -252 133zM125.674 1161.03l131.603 131.604l131.604 -132.674l-131.604 -131.604zM277.605 913.875
l131.604 131.604l131.604 -132.673l-131.604 -131.604zM-26.2588 913.875l131.604 131.604l131.603 -132.673l-131.603 -131.604z" />
    <glyph glyph-name="uniFE9D" unicode="&#x62c;" horiz-adv-x="1306" arabic-form="isolated" 
d="M794 535q-289 117 -365 117q-95 0 -221 -148l-126 106q152 220 333 220q90 0 407 -128q227 -92 377 -101l-16 -174q-175 -11 -291 -37q-609 -143 -609 -511q0 -351 533 -351q191 0 370 85v-184q-152 -72 -384 -72q-487 0 -632 276q-53 100 -53 230q0 522 677 672z
M669.901 -64.7959l134.813 134.813l135.883 -135.883l-134.812 -134.813z" />
    <glyph glyph-name="uniFE9E" unicode="&#x62c;" horiz-adv-x="1326" arabic-form="final" 
d="M1199 601l-16 -174q-125 -8 -195 -18v-13q0 -216 303 -216h43q18 0 18 -70v-24q0 -86 -18 -86h-43q-444 0 -450 362v15q-558 -146 -558 -498q0 -351 533 -351q191 0 370 85v-184q-152 -72 -384 -72q-489 0 -632 274q-54 102 -53 232q0 522 677 672q-289 117 -365 117
q-95 0 -221 -148l-126 106q152 220 333 220q90 0 407 -128q227 -92 377 -101zM576.901 -104.796l134.813 134.813l135.883 -135.883l-134.812 -134.813z" />
    <glyph glyph-name="uniFE9F" unicode="&#x62c;" horiz-adv-x="1289" arabic-form="initial" 
d="M543.901 -316.796l134.813 134.813l135.883 -135.883l-134.812 -134.813zM-7 180h165q334 0 743 280q-396 162 -479 162q-95 0 -221 -148l-126 106q152 220 333 220q90 0 407 -128q227 -92 377 -101l-18 -166q-41 -7 -120 -53q-157 -91 -332 -197q-256 -155 -571 -155
h-158q-56 0 -56 86v19q0 75 56 75z" />
    <glyph glyph-name="uniFEA0" unicode="&#x62c;" horiz-adv-x="1321" arabic-form="medial" 
d="M542.901 -316.796l134.813 134.813l135.883 -135.883l-134.812 -134.813zM158 180q333 0 743 280q-396 162 -479 162q-95 0 -221 -148l-126 106q152 220 333 220q90 0 407 -128q227 -92 377 -101l-18 -166q-41 -7 -120 -53l-66 -38q45 -134 299 -134h43q19 0 19 -70v-24
q0 -86 -19 -86h-49q-350 0 -425 236q-66 -40 -134 -81q-256 -155 -571 -155h-158q-56 0 -56 86v19q0 75 56 75h165z" />
    <glyph glyph-name="uniFEA1" unicode="&#x62d;" horiz-adv-x="1306" arabic-form="isolated" 
d="M794 535q-289 117 -365 117q-95 0 -221 -148l-126 106q152 220 333 220q90 0 407 -128q227 -92 377 -101l-16 -174q-175 -11 -291 -37q-609 -143 -609 -511q0 -351 533 -351q191 0 370 85v-184q-152 -72 -384 -72q-487 0 -632 276q-53 100 -53 230q0 522 677 672z" />
    <glyph glyph-name="uniFEA2" unicode="&#x62d;" horiz-adv-x="1326" arabic-form="final" 
d="M1199 601l-16 -174q-125 -8 -195 -18v-13q0 -216 303 -216h43q18 0 18 -70v-24q0 -86 -18 -86h-43q-444 0 -450 362v15q-558 -146 -558 -498q0 -351 533 -351q191 0 370 85v-184q-152 -72 -384 -72q-489 0 -632 274q-54 102 -53 232q0 522 677 672q-289 117 -365 117
q-95 0 -221 -148l-126 106q152 220 333 220q90 0 407 -128q227 -92 377 -101z" />
    <glyph glyph-name="uniFEA3" unicode="&#x62d;" horiz-adv-x="1289" arabic-form="initial" 
d="M-7 180h165q334 0 743 280q-396 162 -479 162q-95 0 -221 -148l-126 106q152 220 333 220q90 0 407 -128q227 -92 377 -101l-18 -166q-41 -7 -120 -53q-157 -91 -332 -197q-256 -155 -571 -155h-158q-56 0 -56 86v19q0 75 56 75z" />
    <glyph glyph-name="uniFEA4" unicode="&#x62d;" horiz-adv-x="1321" arabic-form="medial" 
d="M158 180q333 0 743 280q-396 162 -479 162q-95 0 -221 -148l-126 106q152 220 333 220q90 0 407 -128q227 -92 377 -101l-18 -166q-41 -7 -120 -53l-66 -38q45 -134 299 -134h43q19 0 19 -70v-24q0 -86 -19 -86h-49q-350 0 -425 236q-66 -40 -134 -81
q-256 -155 -571 -155h-158q-56 0 -56 86v19q0 75 56 75h165z" />
    <glyph glyph-name="uniFEA5" unicode="&#x62e;" horiz-adv-x="1306" arabic-form="isolated" 
d="M444.901 1178.2l134.813 134.813l135.883 -135.883l-134.812 -134.813zM794 535q-289 117 -365 117q-95 0 -221 -148l-126 106q152 220 333 220q90 0 407 -128q227 -92 377 -101l-16 -174q-175 -11 -291 -37q-609 -143 -609 -511q0 -351 533 -351q191 0 370 85v-184
q-152 -72 -384 -72q-487 0 -632 276q-53 100 -53 230q0 522 677 672z" />
    <glyph glyph-name="uniFEA6" unicode="&#x62e;" horiz-adv-x="1326" arabic-form="final" 
d="M444.901 1188.2l134.813 134.813l135.883 -135.883l-134.812 -134.813zM1199 601l-16 -174q-125 -8 -195 -18v-13q0 -216 303 -216h43q18 0 18 -70v-24q0 -86 -18 -86h-43q-444 0 -450 362v15q-558 -146 -558 -498q0 -351 533 -351q191 0 370 85v-184q-152 -72 -384 -72
q-489 0 -632 274q-54 102 -53 232q0 522 677 672q-289 117 -365 117q-95 0 -221 -148l-126 106q152 220 333 220q90 0 407 -128q227 -92 377 -101z" />
    <glyph glyph-name="uniFEA7" unicode="&#x62e;" horiz-adv-x="1289" arabic-form="initial" 
d="M404.901 1165.2l134.813 134.813l135.883 -135.883l-134.812 -134.813zM-7 180h165q334 0 743 280q-396 162 -479 162q-95 0 -221 -148l-126 106q152 220 333 220q90 0 407 -128q227 -92 377 -101l-18 -166q-41 -7 -120 -53q-157 -91 -332 -197q-256 -155 -571 -155h-158
q-56 0 -56 86v19q0 75 56 75z" />
    <glyph glyph-name="uniFEA8" unicode="&#x62e;" horiz-adv-x="1321" arabic-form="medial" 
d="M404.901 1165.2l134.813 134.813l135.883 -135.883l-134.812 -134.813zM158 180q333 0 743 280q-396 162 -479 162q-95 0 -221 -148l-126 106q152 220 333 220q90 0 407 -128q227 -92 377 -101l-18 -166q-41 -7 -120 -53l-66 -38q45 -134 299 -134h43q19 0 19 -70v-24
q0 -86 -19 -86h-49q-350 0 -425 236q-66 -40 -134 -81q-256 -155 -571 -155h-158q-56 0 -56 86v19q0 75 56 75h165z" />
    <glyph glyph-name="uniFEA9" unicode="&#x62f;" horiz-adv-x="950" arabic-form="isolated" 
d="M103 205q120 -25 229 -25q342 0 342 170q0 195 -369 427l72 163q470 -284 469 -587q0 -350 -501 -351q-136 0 -242 23v180z" />
    <glyph glyph-name="uniFEAA" unicode="&#x62f;" horiz-adv-x="1041" arabic-form="final" 
d="M328 1q-73 0 -224 28v186q143 -30 229 -30q322 0 322 142q0 61 -91 280l-102 244l168 65l161 -427q116 -309 238 -309h20q18 0 18 -75v-19q0 -45 -5 -65q-5 -21 -13 -21h-20q-158 0 -255 153l-2 2l-2 -2q-125 -153 -442 -152z" />
    <glyph glyph-name="uniFEAB" unicode="&#x630;" horiz-adv-x="950" arabic-form="isolated" 
d="M103 205q120 -25 229 -25q342 0 342 170q0 195 -369 427l72 163q470 -284 469 -587q0 -350 -501 -351q-136 0 -242 23v180zM231.901 1266.2l134.813 134.813l135.883 -135.883l-134.812 -134.813z" />
    <glyph glyph-name="uniFEAC" unicode="&#x630;" horiz-adv-x="1041" arabic-form="final" 
d="M328 1q-73 0 -224 28v186q143 -30 229 -30q322 0 322 142q0 61 -91 280l-102 244l168 65l161 -427q116 -309 238 -309h20q18 0 18 -75v-19q0 -45 -5 -65q-5 -21 -13 -21h-20q-158 0 -255 153l-2 2l-2 -2q-125 -153 -442 -152zM365.901 1259.2l134.813 134.813
l135.883 -135.883l-134.812 -134.813z" />
    <glyph glyph-name="uniFEAD" unicode="&#x631;" horiz-adv-x="605" arabic-form="isolated" 
d="M545 160q0 148 -92 281l147 78q111 -165 111 -358q0 -560 -681 -627l-29 164q544 44 544 462z" />
    <glyph glyph-name="uniFEAE" unicode="&#x631;" horiz-adv-x="854" arabic-form="final" 
d="M703 48q-5 -36 -15 -75q-99 -384 -658 -439l-29 164q546 44 544 462q0 148 -92 281l147 78q28 -69 97 -221q54 -118 138 -118h28q18 0 18 -70v-24q0 -86 -18 -86h-17q-100 0 -143 48z" />
    <glyph glyph-name="uniFEAF" unicode="&#x632;" horiz-adv-x="816" arabic-form="isolated" 
d="M545 160q0 148 -92 281l147 78q111 -165 111 -358q0 -560 -681 -627l-29 164q544 44 544 462zM335.83 905.882l139.312 139.312l140.418 -140.418l-139.312 -139.312z" />
    <glyph glyph-name="uniFEB0" unicode="&#x632;" horiz-adv-x="854" arabic-form="final" 
d="M335.83 905.882l139.312 139.312l140.418 -140.418l-139.312 -139.312zM704 48q-5 -36 -15 -75q-99 -384 -658 -439l-29 164q546 44 544 462q0 148 -92 281l147 78q28 -69 97 -221q54 -118 138 -118h28q18 0 18 -70v-24q0 -86 -18 -86h-17q-100 0 -143 48z" />
    <glyph glyph-name="uniFEB1" unicode="&#x633;" horiz-adv-x="2428" arabic-form="isolated" 
d="M681 -468q-181 0 -320 72q-257 133 -256 495q0 158 65 347l159 -45q-54 -168 -54 -300q0 -397 419 -397q442 0 444 462q0 130 -59 301l167 40l31 -131q46 -196 227 -196q178 0 197 201l15 159h121l15 -160q18 -198 153 -200q158 -1 157 240q-1 106 -28 227l163 30
q26 -137 26 -253q-1 -423 -313 -423q-168 0 -233 132q-95 -133 -275 -133q-132 0 -204 58q-15 -182 -104 -310q-153 -216 -513 -216z" />
    <glyph glyph-name="uniFEB2" unicode="&#x633;" horiz-adv-x="2525" arabic-form="final" 
d="M681 -468q-181 0 -320 72q-257 133 -256 495q0 158 65 347l159 -45q-54 -168 -54 -300q0 -397 419 -397q442 0 444 462q0 130 -59 301l167 40l31 -131q46 -196 227 -196q173 0 192 201l15 159h121l15 -160q18 -199 180 -200q132 0 142 197l10 193h123l15 -192
q16 -198 192 -198h18q18 0 18 -75v-19q0 -86 -18 -86h-16q-206 0 -261 131q-76 -130 -220 -130q-198 0 -253 132q-96 -133 -275 -133q-132 0 -204 58q-15 -182 -104 -310q-153 -216 -513 -216z" />
    <glyph glyph-name="uniFEB3" unicode="&#x633;" horiz-adv-x="1605" arabic-form="initial" 
d="M1179 180q157 -1 157 240q0 106 -28 227l163 30q27 -137 27 -253q-2 -423 -313 -423q-168 0 -234 132q-95 -133 -263 -133q-211 1 -296 133q-75 -133 -313 -133h-86q-56 0 -56 86v19q0 75 56 75h88q220 0 239 202l15 158h121l15 -159q19 -201 217 -201q164 0 182 201
l15 159h121l15 -159q19 -199 158 -201z" />
    <glyph glyph-name="uniFEB4" unicode="&#x633;" horiz-adv-x="1693" arabic-form="medial" 
d="M1425 131q-76 -130 -220 -130q-198 0 -254 132q-95 -133 -275 -133q-199 1 -284 133q-75 -133 -313 -133h-86q-56 0 -56 86v19q0 75 56 75h88q220 0 239 202l15 158h121l15 -159q19 -201 217 -201q164 0 182 201l15 159h121l15 -159q19 -199 180 -200q133 -1 143 196
l10 193h123l15 -192q15 -198 191 -198h18q18 0 18 -75v-19q0 -86 -18 -86h-16q-205 0 -260 131z" />
    <glyph glyph-name="uniFEB5" unicode="&#x634;" horiz-adv-x="2428" arabic-form="isolated" 
d="M1601.67 1158.03l131.603 131.604l131.604 -132.674l-131.604 -131.604zM1753.61 910.875l131.604 131.604l131.604 -132.673l-131.604 -131.604zM1449.74 910.875l131.604 131.604l131.603 -132.673l-131.603 -131.604zM681 -468q-181 0 -320 72q-257 133 -256 495
q0 158 65 347l159 -45q-54 -168 -54 -300q0 -397 419 -397q442 0 444 462q0 130 -59 301l167 40l31 -131q46 -196 227 -196q178 0 197 201l15 159h121l15 -160q18 -198 153 -200q158 -1 157 240q-1 106 -28 227l163 30q26 -137 26 -253q-1 -423 -313 -423q-168 0 -233 132
q-95 -133 -275 -133q-132 0 -204 58q-15 -182 -104 -310q-153 -216 -513 -216z" />
    <glyph glyph-name="uniFEB6" unicode="&#x634;" horiz-adv-x="2525" arabic-form="final" 
d="M1592.67 1158.03l131.603 131.604l131.604 -132.674l-131.604 -131.604zM1744.61 910.875l131.604 131.604l131.604 -132.673l-131.604 -131.604zM1440.74 910.875l131.604 131.604l131.603 -132.673l-131.603 -131.604zM681 -468q-181 0 -320 72q-257 133 -256 495
q0 158 65 347l159 -45q-54 -168 -54 -300q0 -397 419 -397q442 0 444 462q0 130 -59 301l167 40l31 -131q46 -196 227 -196q173 0 192 201l15 159h121l15 -160q18 -199 180 -200q132 0 142 197l10 193h123l15 -192q16 -198 192 -198h18q18 0 18 -75v-19q0 -86 -18 -86h-16
q-206 0 -261 131q-76 -130 -220 -130q-198 0 -253 132q-96 -133 -275 -133q-132 0 -204 58q-15 -182 -104 -310q-153 -216 -513 -216z" />
    <glyph glyph-name="uniFEB7" unicode="&#x634;" horiz-adv-x="1605" arabic-form="initial" 
d="M782.674 1158.03l131.603 131.604l131.604 -132.674l-131.604 -131.604zM934.605 910.875l131.604 131.604l131.604 -132.673l-131.604 -131.604zM630.741 910.875l131.604 131.604l131.603 -132.673l-131.603 -131.604zM1179 180q157 -1 157 240q0 106 -28 227l163 30
q27 -137 27 -253q-2 -423 -313 -423q-168 0 -234 132q-95 -133 -263 -133q-211 1 -296 133q-75 -133 -313 -133h-86q-56 0 -56 86v19q0 75 56 75h88q220 0 239 202l15 158h121l15 -159q19 -201 217 -201q164 0 182 201l15 159h121l15 -159q19 -199 158 -201z" />
    <glyph glyph-name="uniFEB8" unicode="&#x634;" horiz-adv-x="1693" arabic-form="medial" 
d="M782.674 1158.03l131.603 131.604l131.604 -132.674l-131.604 -131.604zM934.605 910.875l131.604 131.604l131.604 -132.673l-131.604 -131.604zM630.741 910.875l131.604 131.604l131.603 -132.673l-131.603 -131.604zM1425 131q-76 -130 -220 -130q-198 0 -254 132
q-95 -133 -275 -133q-199 1 -284 133q-75 -133 -313 -133h-86q-56 0 -56 86v19q0 75 56 75h88q220 0 239 202l15 158h121l15 -159q19 -201 217 -201q164 0 182 201l15 159h121l15 -159q19 -199 180 -200q133 -1 143 196l10 193h123l15 -192q15 -198 191 -198h18q18 0 18 -75
v-19q0 -86 -18 -86h-16q-205 0 -260 131z" />
    <glyph glyph-name="uniFEB9" unicode="&#x635;" horiz-adv-x="2525" arabic-form="isolated" 
d="M680 -468q-180 0 -319 72q-257 133 -256 495q0 158 65 347l159 -45q-54 -168 -54 -300q1 -395 419 -397q442 -2 444 461q0 130 -59 301l167 40l31 -131q38 -162 88 -166q340 573 678 572q214 0 320 -153q60 -87 60 -202q-1 -426 -720 -426h-51q-238 0 -355 58
q-15 -182 -104 -310q-151 -216 -513 -216zM2042 599q-224 -1 -491 -419l158 1q535 0 536 226q0 86 -58 139t-145 53z" />
    <glyph glyph-name="uniFEBA" unicode="&#x635;" horiz-adv-x="2556" arabic-form="final" 
d="M680 -468q-179 0 -319 72q-257 132 -256 495q0 158 65 347l159 -45q-54 -168 -54 -300q1 -395 419 -397q442 -2 444 461q0 130 -59 301l167 40l31 -131q38 -161 88 -166q332 561 668 562q211 1 316 -152q62 -91 62 -217q0 -113 -79 -221l214 -1h18q18 0 18 -75v-19
q0 -86 -18 -86h-24q-273 0 -363 72q-126 -72 -474 -72h-51q-238 0 -355 58q-15 -182 -104 -310q-151 -216 -513 -216zM1555 180h154q528 0 526 219q-1 66 -35 111q-60 78 -168 79q-220 -1 -479 -406l-2 -3h4z" />
    <glyph glyph-name="uniFEBB" unicode="&#x635;" horiz-adv-x="1670" arabic-form="initial" 
d="M271 376l15 198h121l15 -200q11 -147 96 -165q333 563 668 562q214 0 320 -153q60 -87 60 -202q-1 -416 -710 -416h-51q-369 0 -456 147q-108 -147 -339 -147h-17q-56 0 -56 86v19q0 75 57 75h16q246 0 261 196zM1185 589q-219 -1 -481 -409l158 1q525 0 526 216
q0 86 -58 139t-145 53z" />
    <glyph glyph-name="uniFEBC" unicode="&#x635;" horiz-adv-x="1709" arabic-form="medial" 
d="M271 376l15 198h121l15 -200q12 -163 96 -164q331 560 668 561q211 1 316 -152q62 -91 62 -217q0 -113 -79 -221l214 -1h18q18 0 18 -75v-19q0 -86 -18 -86h-24q-273 0 -363 72q-126 -72 -474 -72h-51q-365 0 -455 144l-2 3l-1 -3q-106 -144 -337 -144h-17q-56 0 -56 86
v19q0 75 56 75h17q246 0 261 196zM708 180h154q528 0 526 219q-1 66 -35 111q-60 78 -168 79q-220 -1 -479 -406l-2 -3h4z" />
    <glyph glyph-name="uniFEBD" unicode="&#x636;" horiz-adv-x="2525" arabic-form="isolated" 
d="M1856.9 1153.2l134.813 134.813l135.883 -135.883l-134.812 -134.813zM680 -468q-180 0 -319 72q-257 133 -256 495q0 158 65 347l159 -45q-54 -168 -54 -300q1 -395 419 -397q442 -2 444 461q0 130 -59 301l167 40l31 -131q38 -162 88 -166q340 573 678 572
q214 0 320 -153q60 -87 60 -202q-1 -426 -720 -426h-51q-238 0 -355 58q-15 -182 -104 -310q-151 -216 -513 -216zM2042 599q-224 -1 -491 -419l158 1q535 0 536 226q0 86 -58 139t-145 53z" />
    <glyph glyph-name="uniFEBE" unicode="&#x636;" horiz-adv-x="2556" arabic-form="final" 
d="M1856.9 1153.2l134.813 134.813l135.883 -135.883l-134.812 -134.813zM680 -468q-179 0 -319 72q-257 132 -256 495q0 158 65 347l159 -45q-54 -168 -54 -300q1 -395 419 -397q442 -2 444 461q0 130 -59 301l167 40l31 -131q38 -161 88 -166q332 561 668 562
q211 1 316 -152q62 -91 62 -217q0 -113 -79 -221l214 -1h18q18 0 18 -75v-19q0 -86 -18 -86h-24q-273 0 -363 72q-126 -72 -474 -72h-51q-238 0 -355 58q-15 -182 -104 -310q-151 -216 -513 -216zM1555 180h154q528 0 526 219q-1 66 -35 111q-60 78 -168 79
q-220 -1 -479 -406l-2 -3h4z" />
    <glyph glyph-name="uniFEBF" unicode="&#x636;" horiz-adv-x="1670" arabic-form="initial" 
d="M1006.9 1153.2l134.813 134.813l135.883 -135.883l-134.812 -134.813zM271 376l15 198h121l15 -200q11 -147 96 -165q333 563 668 562q214 0 320 -153q60 -87 60 -202q-1 -416 -710 -416h-51q-369 0 -456 147q-108 -147 -339 -147h-17q-56 0 -56 86v19q0 75 57 75h16
q246 0 261 196zM1185 589q-219 -1 -481 -409l158 1q525 0 526 216q0 86 -58 139t-145 53z" />
    <glyph glyph-name="uniFEC0" unicode="&#x636;" horiz-adv-x="1709" arabic-form="medial" 
d="M1006.9 1153.2l134.813 134.813l135.883 -135.883l-134.812 -134.813zM271 376l15 198h121l15 -200q12 -163 96 -164q331 560 668 561q211 1 316 -152q62 -91 62 -217q0 -113 -79 -221l214 -1h18q18 0 18 -75v-19q0 -86 -18 -86h-24q-273 0 -363 72q-126 -72 -474 -72
h-51q-365 0 -455 144l-2 3l-1 -3q-106 -144 -337 -144h-17q-56 0 -56 86v19q0 75 56 75h17q246 0 261 196zM708 180h154q528 0 526 219q-1 66 -35 111q-60 78 -168 79q-220 -1 -479 -406l-2 -3h4z" />
    <glyph glyph-name="uniFEC1" unicode="&#x637;" horiz-adv-x="1474" arabic-form="isolated" 
d="M567 521q200 250 421 250q214 0 320 -153q60 -87 60 -202q-1 -416 -710 -416h-555v180h219h2h1l76 118l1 1v1098h165v-876zM326 183zM664 181q525 0 526 216q0 86 -58 139t-145 53q-221 0 -481 -408h158z" />
    <glyph glyph-name="uniFEC2" unicode="&#x637;" horiz-adv-x="1516" arabic-form="final" 
d="M506 181h158q525 0 526 216q0 86 -58 139q-59 53 -148 53q-223 -3 -478 -408zM1116 72q-136 -72 -458 -72h-555v180h219h2h1l76 118l1 1v1098h165v-876q199 250 419 250q214 1 322 -153q61 -87 61 -212q-1 -116 -87 -225l223 -1h18q18 0 18 -75v-19q-1 -86 -18 -86h-24
q-294 0 -383 72zM326 183z" />
    <glyph glyph-name="uniFEC3" unicode="&#x637;" horiz-adv-x="1310" arabic-form="initial" 
d="M496 0h-503q-56 0 -56 86v19q0 75 56 75h168h1q32 54 77 119v1098h165v-877q199 251 420 251q215 1 321 -153q60 -86 60 -201q0 -417 -709 -417zM343 181h158q526 0 526 216q0 86 -59 139q-58 53 -146 53q-223 -3 -479 -408z" />
    <glyph glyph-name="uniFEC4" unicode="&#x637;" horiz-adv-x="1354" arabic-form="medial" 
d="M343 181h158q526 0 526 216q0 86 -59 139q-58 53 -146 53q-223 -3 -479 -408zM954 72q-145 -72 -458 -72h-503q-56 0 -56 86v19q0 75 56 75h168h1q55 81 77 119v1098h165v-877q199 250 420 251q219 1 321 -153q60 -89 60 -215q0 -118 -86 -222l223 -1h19q18 0 18 -75v-19
q0 -86 -18 -86h-24q-295 0 -383 72z" />
    <glyph glyph-name="uniFEC5" unicode="&#x638;" horiz-adv-x="1474" arabic-form="isolated" 
d="M567 521q200 250 421 250q214 0 320 -153q60 -87 60 -202q-1 -416 -710 -416h-555v180h219h2h1l76 118l1 1v1098h165v-876zM326 183zM664 181q525 0 526 216q0 86 -58 139t-145 53q-221 0 -481 -408h158zM834.901 1153.2l134.813 134.813l135.883 -135.883
l-134.812 -134.813z" />
    <glyph glyph-name="uniFEC6" unicode="&#x638;" horiz-adv-x="1516" arabic-form="final" 
d="M834.901 1153.2l134.813 134.813l135.883 -135.883l-134.812 -134.813zM506 181h158q525 0 526 216q0 86 -58 139q-59 53 -148 53q-223 -3 -478 -408zM1116 72q-136 -72 -458 -72h-555v180h219h2h1l76 118l1 1v1098h165v-876q199 250 419 250q214 1 322 -153
q61 -87 61 -212q-1 -116 -87 -225l223 -1h18q18 0 18 -75v-19q-1 -86 -18 -86h-24q-294 0 -383 72zM326 183z" />
    <glyph glyph-name="uniFEC7" unicode="&#x638;" horiz-adv-x="1310" arabic-form="initial" 
d="M674.901 1153.2l134.813 134.813l135.883 -135.883l-134.812 -134.813zM496 0h-503q-56 0 -56 86v19q0 75 56 75h168h1q32 54 77 119v1098h165v-877q199 251 420 251q215 1 321 -153q60 -86 60 -201q0 -417 -709 -417zM343 181h158q526 0 526 216q0 86 -59 139
q-58 53 -146 53q-223 -3 -479 -408z" />
    <glyph glyph-name="uniFEC8" unicode="&#x638;" horiz-adv-x="1354" arabic-form="medial" 
d="M674.901 1153.2l134.813 134.813l135.883 -135.883l-134.812 -134.813zM343 181h158q526 0 526 216q0 86 -59 139q-58 53 -146 53q-223 -3 -479 -408zM954 72q-145 -72 -458 -72h-503q-56 0 -56 86v19q0 75 56 75h168h1q55 81 77 119v1098h165v-877q199 250 420 251
q219 1 321 -153q60 -89 60 -215q0 -118 -86 -222l223 -1h19q18 0 18 -75v-19q0 -86 -18 -86h-24q-295 0 -383 72z" />
    <glyph glyph-name="uniFEC9" unicode="&#x639;" horiz-adv-x="1286" arabic-form="isolated" 
d="M489 405q-128 148 -128 290t106.5 254t280.5 112t324 -122l-65 -146q-139 89 -241 89q-128 0 -189 -100q-30 -48 -30 -100q0 -46 24 -95q22 -45 86 -127q169 30 320 30q80 0 155 -9v-171q-65 2 -125 2q-734 0 -734 -423q0 -361 534 -361q190 0 369 85v-184
q-152 -72 -384 -72q-538 0 -655 330q-30 83 -30 186q0 376 382 532z" />
    <glyph glyph-name="uniFECA" unicode="&#x639;" horiz-adv-x="1128" arabic-form="final" 
d="M437 336q-240 178 -240 229q0 80 140 138q108 45 239 44q151 0 254 -50q119 -58 119 -127q0 -50 -260 -253l-2 -2q147 -135 401 -135h48q18 0 18 -75v-19q0 -86 -18 -86h-48q-293 0 -530 216l-1 1h-1q-144 -80 -213 -181q-70 -99 -70 -220q1 -283 406 -284q166 0 342 72
l3 -183q-137 -61 -346 -60q-571 3 -572 455q0 300 331 516l2 2zM688 535q-9 14 -24 23.5t-36.5 14t-49.5 4.5q-41 0 -70 -11t-46 -33q-5 -7 23.5 -32t93.5 -75l1 -1l2 1q60 54 84.5 79t21.5 30z" />
    <glyph glyph-name="uniFECB" unicode="&#x639;" horiz-adv-x="1038" arabic-form="initial" 
d="M832 585q-121 100 -245 102q-32 1 -61 -4q-29 -4 -55 -14q-51 -18 -88 -55q-4 -3 -7 -7q-4 -3 -7 -7t-6 -7.5t-6 -7.5t-5 -8l-6 -8q-2 -4 -5 -8l-4 -8t-4 -9l-4 -8q-18 -44 -18 -96q0 -129 157 -208q22 -11 28 -10l433 106v-180q-489 -148 -874 -148h-62q-56 0 -56 86v19
q0 75 56 75h243h7h5l-3 4q-23 26 -27 31q-12 16 -22 31q-56 85 -55 204q1 160 89 271q15 19 33.5 36.5t38.5 32.5q21 15 45 27q91 50 215 49q203 -1 335 -137z" />
    <glyph glyph-name="uniFECC" unicode="&#x639;" horiz-adv-x="1051" arabic-form="medial" 
d="M1035 180h23q18 0 18 -75v-19q0 -86 -18 -86h-23q-272 0 -458 144q-168 -144 -560 -144h-24q-56 0 -56 86v19q0 75 56 75h27q331 0 446 75q-276 191 -276 254q0 80 141 138q107 45 238 45q77 -1 140 -13q64 -13 114 -38q60 -29 89.5 -61t29.5 -66q0 -55 -263 -260
q126 -74 356 -74zM682 479q-27 42 -110 43q-42 0 -71 -11t-45 -34q-1 -1 -1 -2q0 -3 4 -10q7 -8 22.5 -22t37 -31t53.5 -42l2 -1l1 1q60 54 85 79t22 30z" />
    <glyph glyph-name="uniFECD" unicode="&#x63a;" horiz-adv-x="1286" arabic-form="isolated" 
d="M489 405q-128 148 -128 290t106.5 254t280.5 112t324 -122l-65 -146q-139 89 -241 89q-128 0 -189 -100q-30 -48 -30 -100q0 -46 24 -95q22 -45 86 -127q169 30 320 30q80 0 155 -9v-171q-65 2 -125 2q-734 0 -734 -423q0 -361 534 -361q190 0 369 85v-184
q-152 -72 -384 -72q-538 0 -655 330q-30 83 -30 186q0 376 382 532zM599.901 1367.2l134.813 134.813l135.883 -135.883l-134.812 -134.813z" />
    <glyph glyph-name="uniFECE" unicode="&#x63a;" horiz-adv-x="1128" arabic-form="final" 
d="M437 336q-240 178 -240 229q0 80 140 138q108 45 239 44q151 0 254 -50q119 -58 119 -127q0 -50 -260 -253l-2 -2q147 -135 401 -135h48q18 0 18 -75v-19q0 -86 -18 -86h-48q-293 0 -530 216l-1 1h-1q-144 -80 -213 -181q-70 -99 -70 -220q1 -283 406 -284q166 0 342 72
l3 -183q-137 -61 -346 -60q-571 3 -572 455q0 300 331 516l2 2zM688 535q-9 14 -24 23.5t-36.5 14t-49.5 4.5q-41 0 -70 -11t-46 -33q-5 -7 23.5 -32t93.5 -75l1 -1l2 1q60 54 84.5 79t21.5 30zM434.901 1054.2l134.813 134.813l135.883 -135.883l-134.812 -134.813z" />
    <glyph glyph-name="uniFECF" unicode="&#x63a;" horiz-adv-x="1038" arabic-form="initial" 
d="M832 585q-121 100 -245 102q-32 1 -61 -4q-29 -4 -55 -14q-51 -18 -88 -55q-4 -3 -7 -7q-4 -3 -7 -7t-6 -7.5t-6 -7.5t-5 -8l-6 -8q-2 -4 -5 -8l-4 -8t-4 -9l-4 -8q-18 -44 -18 -96q0 -129 157 -208q22 -11 28 -10l433 106v-180q-489 -148 -874 -148h-62q-56 0 -56 86v19
q0 75 56 75h243h7h5l-3 4q-23 26 -27 31q-12 16 -22 31q-56 85 -55 204q1 160 89 271q15 19 33.5 36.5t38.5 32.5q21 15 45 27q91 50 215 49q203 -1 335 -137zM403.901 1212.2l134.813 134.813l135.883 -135.883l-134.812 -134.813z" />
    <glyph glyph-name="uniFED0" unicode="&#x63a;" horiz-adv-x="1051" arabic-form="medial" 
d="M1035 180h23q18 0 18 -75v-19q0 -86 -18 -86h-23q-272 0 -458 144q-168 -144 -560 -144h-24q-56 0 -56 86v19q0 75 56 75h27q331 0 446 75q-276 191 -276 254q0 80 141 138q107 45 238 45q77 -1 140 -13q64 -13 114 -38q60 -29 89.5 -61t29.5 -66q0 -55 -263 -260
q126 -74 356 -74zM682 479q-27 42 -110 43q-42 0 -71 -11t-45 -34q-1 -1 -1 -2q0 -3 4 -10q7 -8 22.5 -22t37 -31t53.5 -42l2 -1l1 1q60 54 85 79t22 30zM422.901 1029.2l134.813 134.813l135.883 -135.883l-134.812 -134.813z" />
    <glyph glyph-name="uniFED1" unicode="&#x641;" horiz-adv-x="1761" arabic-form="isolated" 
d="M1147.9 1329.2l134.813 134.813l135.883 -135.883l-134.812 -134.813zM1480 530q-20 318 -173 318q-67 0 -107 -55q-39 -54 -39 -125q0 -135 235 -139q42 -1 82 -1h2v2zM1094 0h-243q-744 0 -745 464q0 99 27 221l156 -30q-18 -86 -18 -172q2 -303 571 -303h263
q362 0 373 175h-81q-400 3 -399 300q0 153 86 264q85 109 244 109q198 0 272 -211q50 -141 50 -335q0 -189 -61 -285q-124 -197 -495 -197z" />
    <glyph glyph-name="uniFED2" unicode="&#x641;" horiz-adv-x="1915" arabic-form="final" 
d="M1294.9 1142.2l134.813 134.813l135.883 -135.883l-134.812 -134.813zM1556 583q-107 87 -212 1q-63 -50 -63 -125q1 -65 56 -128q61 -71 110 -75q52 -4 115 74q53 66 53 127q0 79 -59 126zM1637 189q27 -9 254 -9h32q18 0 18 -75v-19q0 -86 -18 -86h-30q-325 0 -447 91
q-132 -91 -582 -91h-3q-754 0 -755 464q0 99 27 221l156 -30q-18 -86 -18 -172q1 -303 583 -303q390 0 409 9q-151 126 -152 267q0 134 74 221q105 124 264 123q156 0 254 -110q82 -95 82 -231q0 -149 -148 -270z" />
    <glyph glyph-name="uniFED3" unicode="&#x641;" horiz-adv-x="904" arabic-form="initial" 
d="M631 530q-20 318 -173 318q-83 0 -125 -84q-21 -43 -21 -96q0 -135 235 -139q42 -1 82 -1h2v2zM801 482q0 -189 -61 -285q-124 -197 -495 -197h-252q-56 0 -56 86v19q0 75 56 75h263q362 0 373 175h-81q-400 3 -399 300q0 114 47 204q89 169 263 169q218 0 292 -211
q50 -141 50 -335zM293.901 1329.2l134.813 134.813l135.883 -135.883l-134.812 -134.813z" />
    <glyph glyph-name="uniFED4" unicode="&#x641;" horiz-adv-x="1012" arabic-form="medial" 
d="M653 583q-107 87 -212 1q-63 -50 -63 -125q1 -65 56 -128q61 -71 110 -75q52 -4 115 74q53 66 53 127q0 79 -59 126zM543 91q-123 -91 -509 -91h-41q-56 0 -56 86v19q0 75 56 75h41q304 2 326 9q-151 126 -152 267q0 134 74 221q105 124 264 123q156 0 254 -110
q82 -95 82 -231q0 -149 -148 -270q29 -9 254 -9h32q18 0 18 -75v-19q0 -86 -18 -86h-30q-325 0 -447 91zM406.901 1140.2l134.813 134.813l135.883 -135.883l-134.812 -134.813z" />
    <glyph glyph-name="uniFED5" unicode="&#x642;" horiz-adv-x="1384" arabic-form="isolated" 
d="M694 -229q391 1 429 306l-81 1q-400 2 -399 299q0 115 48 205q90 169 262 169q218 0 292 -212q49 -138 49 -378q0 -164 -59 -290q-129 -272 -554 -272q-181 0 -320 72q-257 133 -256 495q0 158 65 347l159 -45q-54 -168 -54 -300q0 -398 419 -397zM1125 253
q-20 318 -172 318q-84 0 -125 -84q-22 -44 -22 -97q0 -134 236 -139q41 0 81 -1h3zM920.326 1056.2l135.883 134.813l134.813 -135.883l-134.813 -134.813zM617.531 1056.2l134.813 134.813l135.883 -135.883l-135.883 -134.813z" />
    <glyph glyph-name="uniFED6" unicode="&#x642;" horiz-adv-x="1396" arabic-form="final" 
d="M681 -468q-182 1 -320 72q-257 133 -256 495q0 158 65 347l159 -45q-54 -168 -54 -300q1 -395 419 -397q386 -2 425 296l-58 1q-430 6 -430 332q0 153 87 263q87 109 231 109q193 1 279 -173q58 -116 66 -352h110q6 0 9 -8q6 -14 7 -25q2 -42 2 -43v-19q0 -19 -2 -48
q-2 -17 -7 -28q-4 -9 -9 -9l-115 1h-2v-2q-51 -466 -606 -467zM1134 183q-22 342 -185 343q-74 -1 -115 -56q-40 -54 -40 -125q0 -160 266 -163l72 -1h2v2zM938.326 995.204l135.883 134.813l134.813 -135.883l-134.813 -134.813zM635.531 995.204l134.813 134.813
l135.883 -135.883l-135.883 -134.813z" />
    <glyph glyph-name="uniFED7" unicode="&#x642;" horiz-adv-x="907" arabic-form="initial" 
d="M631 530q-20 318 -173 318q-83 0 -125 -84q-21 -43 -21 -96q0 -135 235 -139q42 -1 82 -1h2v2zM801 482q0 -189 -61 -285q-124 -197 -495 -197h-252q-56 0 -56 86v19q0 75 56 75h263q362 0 373 175h-81q-400 3 -399 300q0 114 47 204q89 169 263 169q218 0 292 -211
q50 -141 50 -335zM435.326 1326.2l135.883 134.813l134.813 -135.883l-134.813 -134.813zM132.531 1326.2l134.813 134.813l135.883 -135.883l-135.883 -134.813z" />
    <glyph glyph-name="uniFED8" unicode="&#x642;" horiz-adv-x="1012" arabic-form="medial" 
d="M653 583q-107 87 -212 1q-63 -50 -63 -125q1 -65 56 -128q61 -71 110 -75q52 -4 115 74q53 66 53 127q0 79 -59 126zM543 91q-123 -91 -509 -91h-41q-56 0 -56 86v19q0 75 56 75h41q304 2 326 9q-151 126 -152 267q0 134 74 221q105 124 264 123q156 0 254 -110
q82 -95 82 -231q0 -149 -148 -270q29 -9 254 -9h32q18 0 18 -75v-19q0 -86 -18 -86h-30q-325 0 -447 91zM537.326 1131.2l135.883 134.813l134.813 -135.883l-134.813 -134.813zM234.531 1131.2l134.813 134.813l135.883 -135.883l-135.883 -134.813z" />
    <glyph glyph-name="uniFED9" unicode="&#x643;" horiz-adv-x="1863" arabic-form="isolated" 
d="M1012 0h-169q-737 0 -737 464q0 99 27 221l156 -30q-18 -86 -18 -172q2 -302 572 -303h182q521 -1 514 270v947h169v-945q0 -452 -696 -452zM650 612q92 -10 160 -11q112 0 161 22q13 6 24 13q10 7 17 16t11 19q3 11 3 23q0 22 -7 39q-8 18 -24 31q-15 14 -38 22
q-23 9 -54 13q-212 33 -209 211q5 204 389 233v-124q-129 -12 -194 -41t-65 -76q0 -76 140 -97q96 -15 144 -67q47 -51 47 -140q0 -120 -118 -184q-75 -41 -209 -41q-79 0 -178 15v124z" />
    <glyph glyph-name="uniFEDA" unicode="&#x643;" horiz-adv-x="1911" arabic-form="final" 
d="M650 612q92 -10 160 -11q112 0 161 22q13 6 24 13q10 7 17 16t11 19q3 11 3 23q0 22 -7 39q-8 18 -24 31q-15 14 -38 22q-23 9 -54 13q-212 33 -209 211q5 204 389 233v-124q-129 -12 -194 -41t-65 -76q0 -76 140 -97q96 -15 144 -67q47 -51 47 -140q0 -120 -118 -184
q-75 -41 -209 -41q-79 0 -178 15v124zM1708 452q0 -272 188 -272h23q18 0 18 -70v-24q0 -86 -18 -86h-31q-196 0 -267 189q-159 -189 -609 -189h-169q-737 0 -737 464q0 99 27 221l156 -30q-18 -86 -18 -172q2 -302 572 -303h182q521 -1 514 270v947h169v-945z" />
    <glyph glyph-name="uniFEDB" unicode="&#x643;" horiz-adv-x="960" arabic-form="initial" 
d="M236 0h-243q-56 0 -56 86v19q0 75 56 75h242q343 0 346 203q1 96 -81 178q-49 49 -300 244q-110 85 -110 177q0 62 36 110q28 39 103 70l670 277v-180l-651 -271l-3 -1l2 -2l343 -279q159 -130 156 -328q-5 -378 -510 -378z" />
    <glyph glyph-name="uniFEDC" unicode="&#x643;" horiz-adv-x="987" arabic-form="medial" 
d="M236 0h-243q-56 0 -56 86v19q0 75 56 75h242q343 0 346 203q1 96 -81 178q-49 49 -300 244q-110 85 -110 177q0 60 36 110q28 39 103 70l670 277v-180l-651 -271l-3 -1l2 -2l343 -279q149 -122 156 -328q8 -198 232 -198h16q18 0 18 -75v-19q0 -86 -18 -86h-16
q-238 0 -311 146q-103 -146 -431 -146z" />
    <glyph glyph-name="uniFEDD" unicode="&#x644;" horiz-adv-x="1371" arabic-form="isolated" 
d="M668 -246q388 -1 389 394l3 1248h166l-1 -1229q0 -584 -558 -584q-223 2 -362 89q-202 127 -201 427q0 158 65 347l160 -45q-54 -168 -54 -300q0 -347 393 -347z" />
    <glyph glyph-name="uniFEDE" unicode="&#x644;" horiz-adv-x="1426" arabic-form="final" 
d="M275 100q0 -347 393 -347q389 0 390 375l2 1267h166l-1 -998q0 -217 190 -217h20q18 0 18 -70v-24q0 -86 -18 -86h-25q-123 0 -194 71q-41 -489 -549 -489q-220 0 -362 89q-202 127 -201 427q0 158 65 347l160 -45q-54 -168 -54 -300z" />
    <glyph glyph-name="uniFEDF" unicode="&#x644;" horiz-adv-x="605" arabic-form="initial" 
d="M-7 0q-56 0 -56 86v19q0 75 56 75h68q223 0 223 257v959h166v-965q0 -431 -394 -431h-63z" />
    <glyph glyph-name="uniFEE0" unicode="&#x644;" horiz-adv-x="668" arabic-form="medial" 
d="M352 133q-91 -133 -289 -133h-70q-56 0 -56 86v19q0 75 56 75h72q218 0 218 213v1003h165v-1003q0 -213 208 -213h17q22 0 22 -75v-19q0 -86 -22 -86h-15q-211 0 -306 133z" />
    <glyph glyph-name="uniFEE1" unicode="&#x645;" horiz-adv-x="1206" arabic-form="isolated" 
d="M419 148q-152 -2 -151 -438q0 -195 14 -355h-170q-11 172 -11 329q0 326 79 482q80 158 208 180h1l1 2q33 148 97 231q99 130 260 131q168 0 274 -133q82 -103 81 -267q0 -148 -92 -238q-80 -79 -214 -79q-155 0 -261 89q-77 66 -116 66zM781 167q101 0 141 71
q17 31 18 69q1 49 -18 99q-27 68 -80 99q-40 24 -91 24q-165 0 -193 -219h-1l1 -1q95 -142 223 -142z" />
    <glyph glyph-name="uniFEE2" unicode="&#x645;" horiz-adv-x="1266" arabic-form="final" 
d="M1097 382q22 -202 169 -202h15q18 0 18 -75v-19q0 -86 -18 -86h-16q-162 0 -229 102q-17 -22 -35 -38q-78 -71 -205 -71q-155 0 -261 89q-77 66 -116 66q-152 -2 -151 -438q0 -195 14 -355h-170q-11 172 -11 329q0 326 79 482q80 158 208 180h1l1 2q33 148 97 231
q99 130 260 131q168 0 274 -133q63 -79 76 -195zM781 167q101 0 141 71q17 31 18 69q1 49 -18 99q-27 68 -80 99q-40 24 -91 24q-165 0 -193 -219h-1l1 -1q95 -142 223 -142z" />
    <glyph glyph-name="uniFEE3" unicode="&#x645;" horiz-adv-x="1016" arabic-form="initial" 
d="M581 167q101 0 141 71q17 31 18 69q1 49 -18 99q-27 68 -80 99q-40 24 -91 24q-165 0 -193 -219h-1l1 -1q95 -142 223 -142zM13 0h-21q-55 0 -55 86v19q0 75 55 75h16q145 0 182 168q33 148 97 231q97 130 260 131q168 0 274 -133q82 -103 81 -267q0 -151 -99 -244
q-77 -73 -218 -73q-186 0 -312 141q-88 -134 -260 -134z" />
    <glyph glyph-name="uniFEE4" unicode="&#x645;" horiz-adv-x="1073" arabic-form="medial" 
d="M581 167q101 0 141 71q17 31 18 69q1 49 -18 99q-27 68 -80 99q-40 24 -91 24q-165 0 -193 -219h-1l1 -1q95 -142 223 -142zM836 102q-15 -19 -33 -36q-77 -73 -218 -73q-186 0 -312 141q-88 -134 -260 -134h-21q-55 0 -55 86v19q0 75 55 75h16q145 0 182 168
q33 148 97 231q97 130 260 131q168 0 274 -133q64 -80 76 -195q22 -202 169 -202h15q18 0 18 -75v-19q0 -86 -18 -86h-16q-162 0 -229 102z" />
    <glyph glyph-name="uniFEE5" unicode="&#x646;" horiz-adv-x="1405" arabic-form="isolated" 
d="M1245 573q56 -169 56 -360q-1 -246 -102 -393q-151 -221 -518 -221q-181 0 -320 72q-257 133 -256 495q0 158 65 347l158 -45q-54 -168 -54 -300q1 -396 419 -397q265 -1 371 161q72 110 73 300q0 130 -59 301zM555.901 657.204l134.813 134.813l135.883 -135.883
l-134.812 -134.813z" />
    <glyph glyph-name="uniFEE6" unicode="&#x646;" horiz-adv-x="1469" arabic-form="final" 
d="M564.901 605.204l134.813 134.813l135.883 -135.883l-134.812 -134.813zM1277 375q23 -99 51 -133q52 -62 131 -62h19q18 0 18 -70v-24q0 -86 -18 -86h-15q-103 0 -165 58q-15 -182 -104 -310q-153 -216 -513 -216q-181 0 -320 72q-257 133 -256 495q0 158 65 347
l159 -45q-54 -168 -54 -300q1 -396 419 -397q265 -1 371 161q72 110 73 300q0 130 -59 301l167 40z" />
    <glyph glyph-name="uniFEE7" unicode="&#x646;" horiz-adv-x="576" arabic-form="initial" 
d="M79 0h-86q-56 0 -56 86v19q0 75 56 75h96q231 0 231 279q0 106 -28 227l163 30q27 -137 27 -253q0 -463 -403 -463zM179.901 1056.2l134.813 134.813l135.883 -135.883l-134.812 -134.813z" />
    <glyph glyph-name="uniFEE8" unicode="&#x646;" horiz-adv-x="627" arabic-form="medial" 
d="M373 133q-94 -133 -297 -133h-84q-55 0 -55 86v19q0 75 55 75h79q206 0 221 194l14 197h121l15 -200q15 -191 185 -191h8q18 0 18 -84v-10q0 -86 -18 -86h-10q-182 0 -252 133zM194.901 940.204l134.813 134.813l135.883 -135.883l-134.812 -134.813z" />
    <glyph glyph-name="uniFEE9" unicode="&#x647;" horiz-adv-x="942" arabic-form="isolated" 
d="M461 644q-191 -167 -191 -295q0 -168 205 -168q208 0 207 169q0 119 -219 294l-1 1zM393 927q456 -324 456 -583q0 -160 -116 -257q-99 -83 -257 -83q-142 0 -237 65q-134 91 -136 275q-1 188 222 415l-2 1l-30 22z" />
    <glyph glyph-name="uniFEEA" unicode="&#x647;" horiz-adv-x="946" arabic-form="final" 
d="M955 180q18 0 18 -70v-24q0 -44 -5 -64q-5 -22 -13 -22h-20q-260 0 -309 346l-21 142q-9 63 -32 93q-24 31 -63 31q-38 0 -93 -33q-71 -42 -112 -107q-38 -58 -38 -116q-1 -139 163 -155q68 -7 158 -8l-6 -172q-172 0 -287 46q-192 77 -192 289q0 193 190 348
q111 91 234 91q131 0 181 -73q22 -30 37 -77q14 -46 21 -109q29 -248 66 -298q42 -58 112 -58h11z" />
    <glyph glyph-name="uniFEEB" unicode="&#x647;" horiz-adv-x="1395" arabic-form="initial" 
d="M516 72q-244 -72 -421 -72h-102q-56 0 -56 86v19q0 75 56 75h321q-148 102 -147 278q0 128 84 225q103 120 267 119q151 -1 262 -107q86 -82 87 -202q0 -159 -132 -261q-20 -15 -42 -28q21 -4 41 -8q102 -17 194 -17q187 0 188 175q0 97 -102 214q-174 203 -396 291
l65 163q608 -333 610 -665q1 -124 -68 -219q-98 -136 -326 -137q-156 -1 -383 71zM622 329q81 73 80 161q-1 50 -38 90q-54 60 -140 60q-101 0 -156 -88q-27 -42 -28 -98q0 -81 65 -139q27 -24 61 -40q24 -11 52 -19q49 23 104 73z" />
    <glyph glyph-name="uniFEEC" unicode="&#x647;" horiz-adv-x="1022" arabic-form="medial" 
d="M617 -291q30 471 391 471h22q18 0 18 -75v-19q0 -86 -18 -86h-24q-260 0 -253 -356q0 -26 4 -116q-408 11 -521 472h-243q-56 0 -56 86v19q0 75 56 75h213h18v2q4 626 326 626q121 0 187 -79q71 -87 72 -234q0 -211 -146 -360q-110 -111 -267 -137q54 -206 221 -289z
M387 179q264 36 264 323q0 135 -111 135q-152 0 -153 -456v-2z" />
    <glyph glyph-name="uniFEED" unicode="&#x648;" horiz-adv-x="845" arabic-form="isolated" 
d="M687 532q56 -116 71 -269q6 -56 6 -108q0 -234 -117 -378q-166 -204 -560 -243l-29 164q439 34 520 302l-58 1q-430 6 -430 331q0 154 87 264q87 109 231 109q195 0 279 -173zM593 183q-22 342 -186 342q-73 0 -115 -55q-39 -54 -39 -125q0 -161 266 -164h72h2v2z" />
    <glyph glyph-name="uniFEEE" unicode="&#x648;" horiz-adv-x="833" arabic-form="final" 
d="M748 0q-18 -82 -39 -125q-141 -293 -622 -341l-29 164q440 34 520 302l-58 1q-430 6 -430 331q0 154 87 264q87 109 231 109q194 0 279 -173q64 -131 72 -352h82q18 0 18 -84v-10q0 -86 -18 -86h-93zM593 183q-22 342 -186 342q-73 0 -115 -55q-39 -54 -39 -125
q0 -161 266 -164h72h2v2z" />
    <glyph glyph-name="uniFEEF" unicode="&#x649;" horiz-adv-x="1413" arabic-form="isolated" 
d="M702 -227q237 1 355 94q87 68 96 164q1 65 -90 66l-81 1q-237 3 -240 218q-3 244 186 369q138 92 377 97v-189q-259 -3 -353 -133q-40 -56 -39 -130q1 -50 63 -50h61q287 0 286 -212q-1 -169 -113 -288q-165 -177 -515 -178q-220 0 -366 85q-228 134 -227 462
q0 203 67 398l158 -45q-54 -180 -54 -351q0 -381 429 -378z" />
    <glyph glyph-name="uniFEF0" unicode="&#x649;" horiz-adv-x="1433" arabic-form="final" 
d="M886 27q-20 23 -34 84q-15 62 3 69h584q19 0 19 -75v-19q0 -86 -19 -86h-62h-90q35 -45 35 -106q0 -33 -11 -72q-36 -129 -187 -207q-158 -82 -419 -83q-193 0 -340 66q-264 116 -263 451q0 129 55 292l159 -45q-43 -149 -43 -245q0 -349 439 -348q331 1 425 142
q23 35 23 68q-2 87 -134 88h-93q-28 3 -47 26z" />
    <glyph glyph-name="uniFEF1" unicode="&#x64a;" horiz-adv-x="1413" arabic-form="isolated" 
d="M702 -227q237 1 355 94q87 68 96 164q1 65 -90 66l-81 1q-237 3 -240 218q-3 244 186 369q138 92 377 97v-189q-259 -3 -353 -133q-40 -56 -39 -130q1 -50 63 -50h61q287 0 286 -212q-1 -169 -113 -288q-165 -177 -515 -178q-220 0 -366 85q-228 134 -227 462
q0 203 67 398l158 -45q-54 -180 -54 -351q0 -381 429 -378zM710.326 -644.796l135.883 134.813l134.813 -135.883l-134.813 -134.813zM407.531 -644.796l134.813 134.813l135.883 -135.883l-135.883 -134.813z" />
    <glyph glyph-name="uniFEF2" unicode="&#x64a;" horiz-adv-x="1433" arabic-form="final" 
d="M739.326 -718.796l135.883 134.813l134.813 -135.883l-134.813 -134.813zM436.531 -718.796l134.813 134.813l135.883 -135.883l-135.883 -134.813zM886 27q-20 23 -34 84q-15 62 3 69h584q19 0 19 -75v-19q0 -86 -19 -86h-62h-90q35 -45 35 -106q0 -33 -11 -72
q-36 -129 -187 -207q-158 -82 -419 -83q-193 0 -340 66q-264 116 -263 451q0 129 55 292l159 -45q-43 -149 -43 -245q0 -349 439 -348q331 1 425 142q23 35 23 68q-2 87 -134 88h-93q-28 3 -47 26z" />
    <glyph glyph-name="uniFEF3" unicode="&#x64a;" horiz-adv-x="616" arabic-form="initial" 
d="M129 0h-136q-56 0 -56 86v19q0 75 56 75h146q231 0 231 279q0 106 -28 227l163 30q27 -137 27 -253q0 -463 -403 -463zM270.326 -316.796l135.883 134.813l134.813 -135.883l-134.813 -134.813zM-32.4688 -316.796l134.813 134.813l135.883 -135.883l-135.883 -134.813z
" />
    <glyph glyph-name="uniFEF4" unicode="&#x64a;" horiz-adv-x="667" arabic-form="medial" 
d="M270.326 -316.796l135.883 134.813l134.813 -135.883l-134.813 -134.813zM-32.4688 -316.796l134.813 134.813l135.883 -135.883l-135.883 -134.813zM413 133q-94 -133 -307 -133h-114q-55 0 -55 86v19q0 75 55 75h109q216 0 231 194l14 197h121l15 -200
q15 -191 185 -191h8q18 0 18 -84v-10q0 -86 -18 -86h-10q-182 0 -252 133z" />
    <glyph glyph-name=".notdef" horiz-adv-x="507" 
 />
    <glyph glyph-name=".null" 
 />
    <glyph glyph-name="nonmarkingreturn" unicode="&#xd;" horiz-adv-x="507" 
 />
    <glyph glyph-name="uni0002" 
 />
    <glyph glyph-name="uni0009" unicode="&#x9;" 
 />
    <glyph glyph-name="space" unicode=" " horiz-adv-x="600" 
 />
    <glyph glyph-name="exclam" unicode="!" horiz-adv-x="577" 
d="M155 138q0 56 39 95t94 39q28 0 51.5 -10t43 -29.5t29 -43t9.5 -51.5q0 -55 -39 -94t-94 -39q-48 0 -84 30q-7 6 -12.5 12t-10.5 12.5t-9 13.5t-7 14q-5 12 -7.5 25t-2.5 26zM183 1402h214l-25 -903h-163z" />
    <glyph glyph-name="quotedbl" unicode="&#x22;" horiz-adv-x="655" 
d="M277 1400l-30 -358h-111l1 348v146h140v-136zM547 1400l-30 -358h-111l1 356v138h140v-136z" />
    <glyph glyph-name="numbersign" unicode="#" horiz-adv-x="1275" 
d="M716 410h-264l-80 -410h-143l80 410h-239v137h265l69 354h-258v139h285l82 416h143l-82 -416h264l82 416h144l-82 -416h204v-139h-231l-69 -354h225v-137h-251l-80 -410h-144zM478 547h264l69 354h-264z" />
    <glyph glyph-name="dollar" unicode="$" horiz-adv-x="1150" 
d="M856 375q0 45 -15 83t-48.5 71t-87 61t-131.5 54q-95 29 -170.5 67.5t-128.5 90.5t-81 120t-28 157q0 83 25 151.5t71.5 119t112.5 82t149 41.5v219h149v-220q168 -23 261.5 -141t93.5 -323h-184q0 67 -16 123t-47.5 97t-78 64t-106.5 23q-63 0 -109 -17t-76 -47.5
t-45 -73.5t-15 -95q0 -48 14 -86.5t47 -70.5t88 -60.5t138 -55.5q96 -31 171 -69.5t126.5 -89.5t78.5 -118t27 -155q0 -87 -27 -156t-77.5 -119t-122 -80t-159.5 -39v-191h-148v191q-77 7 -148.5 35t-127 81t-88.5 134.5t-33 195.5h185q0 -85 25 -141t65.5 -89t90 -46
t99.5 -13q67 0 119 16.5t88 47t55 74t19 97.5z" />
    <glyph glyph-name="percent" unicode="%" horiz-adv-x="1500" 
d="M105 1176q0 62 20.5 116.5t59 95.5t94 65t124.5 24q70 0 125.5 -24t93.5 -65t58.5 -95.5t20.5 -116.5v-77q0 -61 -20 -115.5t-58.5 -95t-93.5 -64.5t-124 -24q-70 0 -125.5 24t-94.5 64.5t-59.5 95t-20.5 115.5v77zM243 1099q0 -35 10 -67t30 -57t50.5 -40t71.5 -15
q40 0 70 15t49.5 39.5t29 57t9.5 67.5v77q0 35 -10 67.5t-29.5 57.5t-50 40t-70.5 15q-41 0 -71 -15t-49.5 -40t-29.5 -57.5t-10 -67.5v-77zM814 357q0 61 20.5 116t59 95.5t94 64.5t124.5 24q70 0 125.5 -24t94 -64.5t59 -95.5t20.5 -116v-78q0 -62 -20.5 -116.5t-59 -95
t-93.5 -64.5t-124 -24q-70 0 -125.5 24t-94.5 64.5t-59.5 95t-20.5 116.5v78zM952 279q0 -35 10 -67.5t30 -57.5t50.5 -40t71.5 -15q40 0 70 15t49.5 40t29 57.5t9.5 67.5v78q0 35 -10 67.5t-29.5 57t-50 39.5t-70.5 15t-70 -15t-50 -39.5t-30 -57t-10 -67.5v-78zM447 110
l-105 66l711 1138l105 -66z" />
    <glyph glyph-name="ampersand" unicode="&#x26;" horiz-adv-x="1273" 
d="M101 391q0 66 20.5 119.5t58 101t89.5 90.5t114 87q-37 45 -67 86t-51.5 81.5t-33 81.5t-11.5 84q0 85 26 151t74 111t115 68.5t149 23.5q80 0 144 -25t109 -67t69 -98t24 -118q0 -53 -14.5 -96.5t-40.5 -82t-62.5 -72t-79.5 -66.5l-110 -81l324 -387q32 61 50 133.5
t18 155.5h167q0 -125 -30 -231t-93 -192l208 -249h-222l-97 115q-38 -34 -83 -59.5t-93.5 -42t-99.5 -25t-100 -8.5q-109 0 -196.5 30.5t-148.5 85t-93.5 130t-32.5 165.5zM572 131q72 0 141 29t128 83l-355 425l-42 -31q-54 -40 -85.5 -77.5t-47.5 -69.5t-20.5 -57.5
t-4.5 -41.5q0 -53 17.5 -100.5t53 -83t89.5 -56t126 -20.5zM405 1128q0 -55 32 -114.5t86 -125.5l105 74q31 21 55.5 42t41.5 45t25.5 52.5t8.5 66.5q0 30 -11.5 58t-34 49.5t-55.5 35t-75 13.5q-44 0 -77 -15.5t-55.5 -42.5t-34 -62.5t-11.5 -75.5z" />
    <glyph glyph-name="quotesingle" unicode="'" horiz-adv-x="357" 
d="M253 1425l-21 -368h-129l1 352v127h149v-111z" />
    <glyph glyph-name="parenleft" unicode="(" horiz-adv-x="700" 
d="M133 591q0 145 23 272.5t61.5 235.5t89 197t105 157t109 116t102.5 74l38 -122q-59 -45 -119.5 -124t-110.5 -194.5t-81.5 -267.5t-31.5 -342v-14q0 -190 31.5 -342t81.5 -268t110.5 -197t119.5 -129l-38 -113q-47 26 -102 74t-109.5 116.5t-105 156.5t-89 196t-61.5 235
t-23 273v10z" />
    <glyph glyph-name="parenright" unicode=")" horiz-adv-x="712" 
d="M567 581q0 -146 -23 -273t-61.5 -235t-89 -196t-105 -156.5t-109.5 -116.5t-102 -74l-39 113q59 45 120 125.5t110.5 197.5t81 270t31.5 343v14q0 190 -33.5 344t-84.5 271t-111 197.5t-114 124.5l39 113q47 -26 102 -74t109.5 -116t105 -157t89 -197t61.5 -235.5
t23 -272.5v-10z" />
    <glyph glyph-name="asterisk" unicode="*" horiz-adv-x="882" 
d="M330 983l-302 90l46 151l302 -112l-9 344h153l-10 -349l297 110l46 -152l-307 -91l198 -271l-124 -94l-186 288l-180 -281l-125 91z" />
    <glyph glyph-name="plus" unicode="+" horiz-adv-x="1161" 
d="M670 781h406v-175h-406v-460h-186v460h-406v175h406v425h186v-425z" />
    <glyph glyph-name="comma" unicode="," horiz-adv-x="402" 
d="M308 71q0 -45 -11.5 -94t-34 -97t-54.5 -92t-74 -78l-105 72q47 66 72.5 135.5t25.5 150.5v151h181v-148z" />
    <glyph glyph-name="hyphen" unicode="-" horiz-adv-x="565" 
d="M525 543h-488v151h488v-151z" />
    <glyph glyph-name="period" unicode="." horiz-adv-x="577" 
d="M155 138q0 56 39 95t94 39q28 0 51.5 -10t43 -29.5t29 -43t9.5 -51.5q0 -55 -39 -94t-94 -39q-48 0 -84 30q-7 6 -12.5 12t-10.5 12.5t-9 13.5t-7 14q-5 12 -7.5 25t-2.5 26z" />
    <glyph glyph-name="slash" unicode="/" horiz-adv-x="844" 
d="M177 -125h-159l608 1581h158z" />
    <glyph glyph-name="zero" unicode="0" horiz-adv-x="893" 
d="M309 543.5q0 -59.5 41 -100.5q21 -21 46.5 -31.5t56.5 -10.5q60 0 101 42q20 20 30.5 45.5t10.5 55t-10.5 54.5t-30.5 46q-41 41 -102 42q-30 -1 -55.5 -11.5t-46.5 -30.5q-41 -41 -41 -100.5zM224 767q23 24 48.5 41.5t53.5 28.5q56 24 121 24q43 0 82 -10.5t74.5 -31
t66.5 -52.5q46 -46 69.5 -102t23.5 -121q0 -130 -93 -223q-24 -23 -49.5 -40.5t-53 -29t-58 -17t-62.5 -5.5q-65 0 -121 23q-19 7 -36.5 17.5t-34 23.5t-31.5 28q-47 47 -70 102.5t-23 120.5t23 121t70 102z" />
    <glyph glyph-name="one" unicode="1" horiz-adv-x="716" 
d="M310 1366q204 -448 204 -1087v-267h-179v270q0 641 -190 1026z" />
    <glyph glyph-name="two" unicode="2" horiz-adv-x="1197" 
d="M480 772q34 -257 34 -493v-267h-179v270q0 641 -190 1026l164 58l102 -282q61 -172 274 -172q108 0 159 100t52 343l180 -1q-4 -371 -107.5 -500.5t-279.5 -128.5q-135 0 -209 47z" />
    <glyph glyph-name="three" unicode="3" horiz-adv-x="1492" 
d="M480 774q34 -257 34 -495v-267h-179v270q0 641 -190 1026l164 58l110 -314q43 -123 192 -124q159 -1 153 257l-2 117l158 5l4 -145q6 -240 157 -241q69 -1 98.5 64.5t30.5 252.5v133h177l-1 -130q0 -59 -7 -147q-29 -358 -292 -356q-150 1 -250 116q-95 -117 -203.5 -117
t-153.5 37z" />
    <glyph glyph-name="four" unicode="4" horiz-adv-x="1244" 
d="M1083 1330l-43 -172q-77 31 -160 31q-103 0 -173 -51q-116 -87 -130 -221q-5 -45 80 -89q71 -37 196 -37q140 0 262 50l23 -175q-124 -55 -264 -55h-1q-276 1 -396 145l2 -11q35 -246 35 -466v-267h-179v270q0 641 -190 1026l165 58q55 -160 122 -359l15 50
q44 146 149 233q108 90 259 89q121 0 228 -49z" />
    <glyph glyph-name="five" unicode="5" horiz-adv-x="1288" 
d="M284 339q0 -141 94 -141q149 0 212 295l124 -1q50 -298 185 -298q105 0 105 146q0 324 -375 701q-345 -455 -345 -702zM363 12q-254 0 -254 327q0 314 385 831l1 2l-2 2l-54 50l124 152l126 -119q491 -482 490 -908q0 -337 -265 -337q-186 0 -262 211q-71 -211 -289 -211
z" />
    <glyph glyph-name="six" unicode="6" horiz-adv-x="1104" 
d="M752 1175q-52 5 -114 5q-192 0 -269 -87q-57 -64 -57 -139q0 -211 374 -212l1 1q201 109 284 143l11 -190q-449 -202 -664 -724l-169 56q123 308 376 558q-399 38 -397 373q0 94 38 173q117 236 440 234q80 0 172 -14z" />
    <glyph glyph-name="seven" unicode="7" horiz-adv-x="1281" 
d="M1183 1280q-323 -647 -459 -1268h-167q-137 622 -459 1268l169 86q271 -583 373 -1039q103 457 374 1039z" />
    <glyph glyph-name="eight" unicode="8" horiz-adv-x="1281" 
d="M1183 77l-169 -85q-271 581 -374 1038q-102 -455 -373 -1038l-169 85q322 646 459 1269h167q136 -622 459 -1269z" />
    <glyph glyph-name="nine" unicode="9" horiz-adv-x="1139" 
d="M500 573q-388 0 -388 343q0 145 70 258q122 196 333 196q369 0 394 -499q23 -452 33 -859h-172l-14 621q-120 -60 -256 -60v0zM503 755q106 0 235 64l-2 23q-28 337 -212 337q-113 0 -178 -89q-59 -80 -59 -165q0 -170 216 -170z" />
    <glyph glyph-name="colon" unicode=":" horiz-adv-x="577" 
d="M155 1008q0 56 39 95t94 39t94 -39q13 -13 22 -28t13 -31.5t4 -35.5q0 -55 -39 -94q-19 -19 -42.5 -29t-51.5 -10q-48 0 -84 30q-27 23 -39 52q-5 12 -7.5 25t-2.5 26zM155 138q0 56 39 95t94 39q28 0 51.5 -10t43 -29.5t29 -43t9.5 -51.5q0 -55 -39 -94t-94 -39
q-48 0 -84 30q-7 6 -12.5 12t-10.5 12.5t-9 13.5t-7 14q-5 12 -7.5 25t-2.5 26z" />
    <glyph glyph-name="semicolon" unicode=";" horiz-adv-x="433" 
d="M122 1021q0 56 39 95t94 39q28 0 51.5 -10t43 -29.5t29 -43t9.5 -51.5q0 -55 -39 -94t-94 -39q-48 0 -84 30q-7 6 -12.5 12t-10.5 12.5t-9 13.5t-7 14q-5 12 -7.5 25t-2.5 26zM320 71q0 -45 -11.5 -94t-34 -97t-54.5 -92t-74 -78l-105 72q47 66 72.5 135.5t25.5 150.5
v151h181v-148z" />
    <glyph glyph-name="less" unicode="&#x3c;" horiz-adv-x="1041" 
d="M264 644l626 -253v-196l-818 379v146l818 378v-196z" />
    <glyph glyph-name="equal" unicode="=" horiz-adv-x="1124" 
d="M986 814h-834v161h834v-161zM986 399h-834v160h834v-160z" />
    <glyph glyph-name="greater" unicode="&#x3e;" horiz-adv-x="1070" 
d="M795 650l-661 259v190l854 -378v-146l-854 -379v192z" />
    <glyph glyph-name="question" unicode="?" horiz-adv-x="967" 
d="M357 410q1 72 10 123t29 93t52.5 81.5t80.5 88.5q34 35 65.5 66.5t55 65t37.5 72.5t14 90q0 105 -55 164.5t-160 59.5q-44 0 -84.5 -11.5t-72 -36t-50.5 -62t-19 -89.5h-185q1 85 33 152t87 113.5t129.5 71t161.5 24.5q96 0 170.5 -26.5t125.5 -76t77.5 -120t26.5 -157.5
q0 -68 -21 -127t-56.5 -112.5t-80.5 -101t-93 -92.5q-55 -51 -74 -115t-19 -138h-185zM349 93q0 45 27.5 75.5t81.5 30.5t82 -30.5t28 -75.5t-28 -74.5t-82 -29.5t-81.5 29.5t-27.5 74.5z" />
    <glyph glyph-name="at" unicode="@" horiz-adv-x="1839" 
d="M1735 502q-3 -61 -14 -124t-32 -121t-53.5 -108.5t-77 -88t-102.5 -59t-130 -21.5q-94 0 -154.5 44t-85.5 124q-54 -85 -123.5 -126.5t-143.5 -41.5t-128.5 31.5t-89 88.5t-47.5 137.5t-4 179.5q12 132 52 238t99 180t131.5 114t149.5 40q54 0 95.5 -8.5t75 -23t62 -33.5
t56.5 -41l-52 -554q-6 -73 4 -118.5t29.5 -70.5t45 -33.5t49.5 -8.5q60 0 107 31.5t79.5 86t51 128.5t21.5 158q9 187 -25 334.5t-113 250.5t-204.5 157.5t-299.5 54.5q-157 0 -284 -59.5t-217.5 -168t-142.5 -259.5t-60 -334q-9 -187 29.5 -336t120 -253.5t204 -160.5
t282.5 -56q44 0 89.5 5.5t89 16t82.5 25t70 32.5l37 -115q-35 -22 -80 -38.5t-94.5 -28t-100.5 -17t-97 -5.5q-190 0 -338.5 64.5t-249 185.5t-149.5 293.5t-40 387.5q9 205 73 379.5t174.5 302t264 199.5t341.5 72q192 0 339.5 -65.5t245 -186t144.5 -292.5t38 -385z
M709 417q-14 -142 26.5 -218t128.5 -76q26 0 54 11t55.5 34.5t52.5 61t45 90.5q0 6 1 9l46 503q-25 13 -55 21t-65 8q-54 0 -102.5 -28t-86.5 -84t-64 -139t-36 -193z" />
    <glyph glyph-name="A" unicode="A" horiz-adv-x="1336" 
d="M973 380h-610l-137 -380h-198l556 1456h168l557 -1456h-197zM421 538h495l-248 681z" />
    <glyph glyph-name="B" unicode="B" horiz-adv-x="1275" 
d="M169 0v1456h476q112 0 200 -22.5t149.5 -70t94 -120.5t32.5 -175t-58 -180.5t-158 -121.5q61 -17 108.5 -50t80 -78t49.5 -101t17 -117q0 -102 -34.5 -180.5t-97.5 -132t-152 -80.5t-198 -27h-509zM361 681v-524h317q69 0 122.5 18.5t90.5 52t56.5 82t19.5 108.5t-16 109
t-50.5 83t-87.5 52.5t-126 18.5h-326zM361 835h290q62 0 113 16t87.5 46t56.5 73.5t20 98.5q0 120 -70 174.5t-213 54.5h-284v-463z" />
    <glyph glyph-name="C" unicode="C" horiz-adv-x="1333" 
d="M1240 462q-12 -103 -50.5 -191.5t-106.5 -153t-166 -101t-229 -36.5q-129 0 -234 48t-179.5 136.5t-115 212.5t-40.5 277v146q0 153 41 277.5t117 213t184.5 137t243.5 48.5q123 0 218 -36t161.5 -100.5t105.5 -154t50 -197.5h-193q-11 76 -34 137t-63.5 104t-100.5 66
t-144 23q-97 0 -170.5 -37.5t-123 -105t-74.5 -163t-25 -210.5v-148q0 -107 22.5 -201t68.5 -164.5t117 -111t168 -40.5q92 0 155 22t104.5 63.5t64.5 102t35 137.5h193z" />
    <glyph glyph-name="D" unicode="D" horiz-adv-x="1343" 
d="M169 0v1456h411q144 0 262 -48t202.5 -137t131 -216t46.5 -285v-86q0 -158 -46.5 -285t-132 -215.5t-207.5 -136t-273 -47.5h-394zM361 1298v-1141h202q116 0 204 37.5t147 106.5t88.5 166t29.5 217v89q0 125 -30 222.5t-88 165t-142 102.5t-192 35h-219z" />
    <glyph glyph-name="E" unicode="E" horiz-adv-x="1164" 
d="M992 673h-631v-516h733v-157h-925v1456h915v-158h-723v-468h631v-157z" />
    <glyph glyph-name="F" unicode="F" horiz-adv-x="1132" 
d="M972 643h-611v-643h-192v1456h902v-158h-710v-498h611v-157z" />
    <glyph glyph-name="G" unicode="G" horiz-adv-x="1395" 
d="M1244 191q-21 -30 -58 -66.5t-97.5 -68.5t-148.5 -54t-211 -22q-133 0 -244.5 47t-192 135.5t-125.5 217t-45 291.5v114q0 163 38.5 291t113 217t183.5 136t250 47q125 0 219 -33.5t160 -93t105 -141.5t53 -179h-192q-11 59 -34.5 111.5t-64.5 92t-101 62.5t-144 23
q-102 0 -176 -37t-122 -106t-71.5 -167t-23.5 -221v-116q0 -126 30 -225t84.5 -168t131 -105t169.5 -36q78 0 132.5 10.5t92 26t60.5 34t38 34.5v327h-337v156h528v-534z" />
    <glyph glyph-name="H" unicode="H" horiz-adv-x="1460" 
d="M1288 0h-193v673h-734v-673h-192v1456h192v-626h734v626h193v-1456z" />
    <glyph glyph-name="I" unicode="I" horiz-adv-x="557" 
d="M375 0h-192v1456h192v-1456z" />
    <glyph glyph-name="J" unicode="J" horiz-adv-x="1130" 
d="M779 1456h193v-1031q0 -108 -34 -191.5t-95.5 -139.5t-146 -85t-184.5 -29q-101 0 -185 25.5t-145 78t-95 132t-34 186.5h192q0 -69 20 -119t55 -82.5t84 -48t108 -15.5q57 0 106 18.5t85 54.5t56 90t20 125v1031z" />
    <glyph glyph-name="K" unicode="K" horiz-adv-x="1284" 
d="M539 677l-178 -185v-492h-192v1456h192v-720l158 176l489 544h232l-573 -643l618 -813h-230z" />
    <glyph glyph-name="L" unicode="L" horiz-adv-x="1102" 
d="M362 157h690v-157h-883v1456h193v-1299z" />
    <glyph glyph-name="M" unicode="M" horiz-adv-x="1788" 
d="M417 1456l476 -1188l476 1188h249v-1456h-192v567l18 612l-478 -1179h-147l-477 1176l19 -609v-567h-192v1456h248z" />
    <glyph glyph-name="N" unicode="N" horiz-adv-x="1460" 
d="M1288 0h-193l-733 1122v-1122h-193v1456h193l735 -1127v1127h191v-1456z" />
    <glyph glyph-name="O" unicode="O" horiz-adv-x="1408" 
d="M1289 681q0 -164 -41.5 -293.5t-117.5 -220.5t-184 -139t-241 -48q-129 0 -237 48t-186 139t-121 220.5t-43 293.5v92q0 163 43 293.5t120 221.5t185 139.5t237 48.5q133 0 241.5 -48.5t185 -139.5t118 -221.5t41.5 -293.5v-92zM1098 775q0 130 -26.5 230t-77.5 168
t-124.5 103t-166.5 35q-89 0 -162 -35t-124.5 -103t-79.5 -168t-28 -230v-94q0 -131 28.5 -231t80.5 -168.5t125 -103.5t162 -35q94 0 167 35t123.5 103.5t76.5 168.5t26 231v94z" />
    <glyph glyph-name="P" unicode="P" horiz-adv-x="1292" 
d="M361 570v-570h-192v1456h537q124 0 219 -33t159.5 -92.5t98 -141t33.5 -178.5q0 -105 -33.5 -187.5t-98 -138.5t-159.5 -85.5t-219 -29.5h-345zM361 727h345q84 0 144.5 21t99 58.5t56.5 89t18 113.5q0 56 -18 108.5t-56.5 92.5t-99 64t-144.5 24h-345v-571z" />
    <glyph glyph-name="Q" unicode="Q" horiz-adv-x="1408" 
d="M1281 681q0 -211 -67 -363.5t-188 -238.5l260 -204l-131 -121l-307 244q-72 -18 -152 -18q-129 0 -237 48t-186 139t-121 220.5t-43 293.5v92q0 163 43 293.5t120 221.5t185 139.5t237 48.5q133 0 241.5 -48.5t185.5 -139.5t118.5 -221.5t41.5 -293.5v-92zM1089 775
q0 130 -26.5 230t-77 168t-124 103t-167.5 35q-89 0 -161.5 -35t-124 -103t-79.5 -168t-28 -230v-94q0 -131 28.5 -231t80 -168.5t124.5 -103.5t162 -35q94 0 167 35t123.5 103.5t76.5 168.5t26 231v94z" />
    <glyph glyph-name="R" unicode="R" horiz-adv-x="1261" 
d="M703 589h-342v-589h-193v1456h482q246 0 378.5 -112t132.5 -326q0 -136 -73.5 -237t-204.5 -151l342 -618v-12h-206zM361 746h295q78 0 136.5 21.5t97.5 58t58.5 86t19.5 106.5q0 63 -18.5 114.5t-57.5 88.5t-99 57t-143 20h-289v-552z" />
    <glyph glyph-name="S" unicode="S" horiz-adv-x="1215" 
d="M945 368q0 51 -15.5 90t-55 71.5t-106.5 61t-170 58.5q-108 31 -195.5 70.5t-149 91t-94.5 117.5t-33 151t35.5 157.5t100.5 126t156 83.5t203 30q123 0 219 -37t161.5 -98t99.5 -141t34 -165h-193q0 61 -19.5 113t-59.5 90t-100 59t-142 21q-77 0 -134 -18t-94 -49.5
t-55 -74.5t-18 -94q0 -46 19.5 -84t60.5 -70t105.5 -59t154.5 -52q124 -35 214 -77.5t148.5 -96.5t87 -121t28.5 -152q0 -89 -36 -161t-102.5 -123t-160 -78.5t-208.5 -27.5q-67 0 -134 12.5t-128.5 37.5t-114 62t-91.5 86t-61 110t-22 134h193q0 -75 29.5 -128.5t79 -88.5
t114 -51.5t135.5 -16.5q152 0 233 62t81 169z" />
    <glyph glyph-name="T" unicode="T" horiz-adv-x="1222" 
d="M1175 1298h-468v-1298h-191v1298h-467v158h1126v-158z" />
    <glyph glyph-name="U" unicode="U" horiz-adv-x="1328" 
d="M1194 1456v-986q0 -123 -43 -215t-115.5 -153t-168.5 -91.5t-202 -30.5q-111 0 -207 30.5t-166.5 91.5t-111 153t-40.5 215v986h190v-986q0 -85 24.5 -147.5t68.5 -104t105.5 -61.5t136.5 -20q76 0 138 20t106 61.5t68 104t24 147.5v986h193z" />
    <glyph glyph-name="V" unicode="V" horiz-adv-x="1303" 
d="M651 255l416 1201h210l-540 -1456h-170l-539 1456h209z" />
    <glyph glyph-name="W" unicode="W" horiz-adv-x="1817" 
d="M483 459l28 -192l41 173l288 1016h162l281 -1016l40 -176l31 196l226 996h193l-353 -1456h-175l-300 1061l-23 111l-23 -111l-311 -1061h-175l-352 1456h192z" />
    <glyph glyph-name="X" unicode="X" horiz-adv-x="1284" 
d="M644 898l349 558h226l-460 -722l471 -734h-228l-358 568l-360 -568h-227l472 734l-461 722h225z" />
    <glyph glyph-name="Y" unicode="Y" horiz-adv-x="1230" 
d="M613 725l380 731h218l-502 -913v-543h-192v543l-502 913h220z" />
    <glyph glyph-name="Z" unicode="Z" horiz-adv-x="1226" 
d="M313 157h833v-157h-1060v144l798 1154h-785v158h1015v-141z" />
    <glyph glyph-name="bracketleft" unicode="[" horiz-adv-x="543" 
d="M523 1512h-191v-1672h191v-152h-377v1976h377v-152z" />
    <glyph glyph-name="backslash" unicode="\" horiz-adv-x="840" 
d="M40 1456h176l608 -1581h-176z" />
    <glyph glyph-name="bracketright" unicode="]" horiz-adv-x="543" 
d="M9 1664h378v-1976h-378v152h193v1672h-193v152z" />
    <glyph glyph-name="asciicircum" unicode="^" horiz-adv-x="856" 
d="M426 1211l-190 -482h-172l299 727h127l298 -727h-171z" />
    <glyph glyph-name="underscore" unicode="_" horiz-adv-x="924" 
d="M920 -151h-916v151h916v-151z" />
    <glyph glyph-name="grave" unicode="`" horiz-adv-x="633" 
d="M474 1240h-159l-258 294h223z" />
    <glyph glyph-name="a" unicode="a" horiz-adv-x="1114" 
d="M808 0q-10 20 -16 50.5t-10 63.5q-26 -27 -58.5 -51.5t-71 -43t-83.5 -29t-95 -10.5q-83 0 -150.5 25t-115 68t-73.5 101.5t-26 125.5q0 87 34 153.5t97.5 111.5t153.5 68t201 23h184v85q0 97 -58 154.5t-171 57.5q-52 0 -95 -14t-73.5 -37.5t-47.5 -54.5t-17 -65h-186
q0 58 30.5 115t86.5 102.5t135.5 74t177.5 28.5q88 0 162.5 -22.5t127.5 -68t83 -113.5t30 -159v-503q0 -55 9.5 -115.5t28.5 -104.5v-16h-194zM501 141q50 0 94 14t80 36.5t62.5 51.5t41.5 60v222h-154q-159 0 -245 -49.5t-86 -149.5q0 -39 13 -73t39.5 -58.5t65 -39
t89.5 -14.5z" />
    <glyph glyph-name="b" unicode="b" horiz-adv-x="1149" 
d="M1056 529q0 -119 -28 -219.5t-82 -174t-132 -114.5t-178 -41q-107 0 -185 37.5t-132 107.5l-9 -125h-170v1536h185v-573q54 67 130 103t179 36q102 0 180.5 -40t132 -112.5t81.5 -174t28 -225.5v-21zM871 550q0 81 -15 152.5t-48.5 125.5t-87.5 85.5t-132 31.5
q-51 0 -92 -13t-73.5 -36t-56.5 -54t-41 -67v-468q18 -36 42.5 -67t57 -54t73.5 -36t92 -13q75 0 128 31t87 84t50 124.5t16 152.5v21z" />
    <glyph glyph-name="c" unicode="c" horiz-adv-x="1072" 
d="M574 131q49 0 94 16t79.5 44t56 66.5t25.5 83.5h175q-4 -72 -39.5 -137.5t-93.5 -115t-134.5 -79t-162.5 -29.5q-122 0 -212.5 43.5t-150.5 117.5t-89.5 172t-29.5 207v42q0 109 29.5 207t89.5 172t150 117.5t212 43.5q95 0 172.5 -30t134 -82.5t88.5 -124.5t36 -155
h-175q-4 50 -23.5 93.5t-52.5 76t-78.5 51.5t-101.5 19q-86 0 -142.5 -34t-91 -89.5t-48.5 -125t-14 -139.5v-42q0 -72 14 -141.5t48 -124.5t91 -89t144 -34z" />
    <glyph glyph-name="d" unicode="d" horiz-adv-x="1155" 
d="M95 550q0 124 30.5 225.5t86.5 174t134.5 112.5t175.5 40q99 0 173 -33.5t128 -96.5v564h185v-1536h-170l-9 116q-54 -66 -130 -101t-179 -35q-95 0 -173.5 41t-134.5 114.5t-86.5 174t-30.5 219.5v21zM280 529q0 -81 16.5 -152.5t51.5 -124.5t89 -84t129 -31
q49 0 88 11.5t70.5 32.5t56 50t42.5 64v497q-18 33 -42 61t-55.5 48.5t-70.5 32t-87 11.5q-76 0 -130.5 -31.5t-89.5 -85.5t-51.5 -125.5t-16.5 -152.5v-21z" />
    <glyph glyph-name="e" unicode="e" horiz-adv-x="1085" 
d="M589 -20q-113 0 -204.5 39t-156.5 108.5t-100 165.5t-35 210v42q0 132 39.5 236t105.5 175t151 108.5t177 37.5q116 0 200 -40.5t138.5 -111.5t80.5 -168t26 -211v-83h-733q2 -75 24.5 -140t64 -113t100 -76t132.5 -28q98 0 166 40t119 106l113 -88q-26 -40 -63 -77.5
t-86.5 -67t-113.5 -47t-145 -17.5zM566 950q-56 0 -103 -20.5t-84 -59.5t-61.5 -97t-33.5 -133h542v14q-3 54 -17.5 107t-45 95t-78.5 68t-119 26z" />
    <glyph glyph-name="f" unicode="f" horiz-adv-x="711" 
d="M231 0v939h-171v143h171v114q0 87 24.5 154.5t70.5 113.5t112 69.5t149 23.5q64 0 127 -17l-10 -150q-21 4 -47.5 6.5t-52.5 2.5q-90 0 -139 -52.5t-49 -150.5v-114h231v-143h-231v-939h-185z" />
    <glyph glyph-name="g" unicode="g" horiz-adv-x="1149" 
d="M96 550q0 124 29.5 225.5t85 174t134.5 112.5t178 40q103 0 179 -36t130 -104l9 120h169v-1059q0 -107 -33.5 -190.5t-94.5 -141t-145 -87.5t-186 -30q-42 0 -96.5 9.5t-110 31t-106.5 57.5t-87 89l96 111q34 -42 70 -70t72.5 -45t74 -24.5t74.5 -7.5q65 0 118 18.5
t90.5 55.5t57.5 90.5t20 124.5v94q-54 -62 -128.5 -95t-174.5 -33q-97 0 -175.5 41t-134 114.5t-85.5 174t-30 219.5v21zM282 529q0 -81 16.5 -152.5t51 -124.5t88.5 -84t129 -31q49 0 88.5 12t71 33t55.5 50t42 64v494q-18 33 -42 61.5t-55.5 49.5t-70.5 32.5t-87 11.5
q-76 0 -130 -31.5t-89 -85.5t-51.5 -125.5t-16.5 -152.5v-21z" />
    <glyph glyph-name="h" unicode="h" horiz-adv-x="1128" 
d="M325 951q58 71 139 111t181 40q79 0 143 -21.5t109 -69t69.5 -122t24.5 -180.5v-709h-185v711q0 63 -14 107.5t-41.5 72.5t-68 41t-93.5 13q-90 0 -158 -48t-106 -126v-771h-185v1536h185v-585z" />
    <glyph glyph-name="i" unicode="i" horiz-adv-x="497" 
d="M341 0h-185v1082h185v-1082zM141 1369q0 45 27.5 76t81.5 31t82 -31t28 -76t-28 -75t-82 -30t-81.5 30t-27.5 75z" />
    <glyph glyph-name="j" unicode="j" horiz-adv-x="489" 
d="M331 1082v-1211q0 -150 -70 -229t-213 -79q-26 0 -58 5t-55 13v148q20 -5 43.5 -6.5t40.5 -1.5q62 0 94.5 33.5t32.5 116.5v1211h185zM127 1369q0 44 27.5 75.5t80.5 31.5q54 0 82 -31t28 -76t-28 -75t-82 -30t-81 30t-27 75z" />
    <glyph glyph-name="k" unicode="k" horiz-adv-x="1038" 
d="M442 501l-116 -121v-380h-185v1536h185v-929l99 119l337 356h225l-421 -452l470 -630h-217z" />
    <glyph glyph-name="l" unicode="l" horiz-adv-x="497" 
d="M341 0h-185v1536h185v-1536z" />
    <glyph glyph-name="m" unicode="m" horiz-adv-x="1795" 
d="M314 1082l5 -120q56 66 135.5 103t185.5 37q105 0 185.5 -41.5t123.5 -132.5q54 78 140.5 126t204.5 48q87 0 154 -22.5t113.5 -70.5t70.5 -122t24 -176v-711h-185v712q0 68 -16.5 113t-46.5 72t-73 37.5t-95 10.5q-57 0 -101 -18t-75.5 -48.5t-50 -72t-23.5 -88.5v-718
h-186v711q0 63 -16.5 107.5t-46.5 72.5t-72.5 41t-95.5 13q-99 0 -159 -43t-90 -112v-790h-185v1082h175z" />
    <glyph glyph-name="n" unicode="n" horiz-adv-x="1130" 
d="M315 1082l6 -136q58 73 140 114.5t184 41.5q79 0 143 -21.5t109 -69t69.5 -122t24.5 -180.5v-709h-185v711q0 63 -14 107.5t-41.5 72.5t-68 41t-93.5 13q-90 0 -158 -48t-106 -126v-771h-185v1082h175z" />
    <glyph glyph-name="o" unicode="o" horiz-adv-x="1168" 
d="M91 551q0 118 34.5 218.5t98 174.5t154.5 116t204 42q115 0 206.5 -42t155.5 -116t98 -174.5t34 -218.5v-22q0 -118 -34 -218.5t-98 -174t-155 -115t-205 -41.5t-205 41.5t-155 115t-98.5 174t-34.5 218.5v22zM277 529q0 -81 19 -153t57.5 -126.5t96 -86.5t134.5 -32
q76 0 134 32t96 86.5t57.5 126.5t19.5 153v22q0 80 -19.5 152.5t-58 127t-96.5 87t-135 32.5q-76 0 -133 -32.5t-95.5 -87t-57.5 -127t-19 -152.5v-22z" />
    <glyph glyph-name="p" unicode="p" horiz-adv-x="1149" 
d="M1054 529q0 -119 -28 -219.5t-81.5 -174t-131.5 -114.5t-178 -41q-102 0 -178.5 32t-131.5 93v-521h-185v1498h169l9 -120q55 68 133 104t181 36q102 0 180.5 -40t132.5 -112.5t81.5 -174t27.5 -225.5v-21zM869 550q0 81 -17 152.5t-53 125.5t-91 85.5t-131 31.5
q-47 0 -85.5 -11t-69.5 -31t-55 -47.5t-42 -59.5v-517q18 -32 42 -59.5t55 -47t70 -30.5t87 -11q75 0 129.5 32t90.5 86t53 126.5t17 153.5v21z" />
    <glyph glyph-name="q" unicode="q" horiz-adv-x="1164" 
d="M95 550q0 124 29 225.5t84.5 174t135.5 112.5t182 40q99 0 174 -33t129 -96l8 109h170v-1498h-185v516q-54 -58 -128 -89t-170 -31q-101 0 -180.5 41t-134.5 114.5t-84.5 174t-29.5 219.5v21zM280 529q0 -81 17 -153.5t53 -126.5t90.5 -86t129.5 -32q92 0 153 41t99 105
v530q-19 31 -43.5 57t-55.5 45t-68.5 30t-82.5 11q-76 0 -131 -32.5t-91 -87t-53 -127t-17 -153.5v-21z" />
    <glyph glyph-name="r" unicode="r" horiz-adv-x="693" 
d="M663 916q-24 4 -44.5 5.5t-46.5 1.5q-96 0 -156.5 -42t-90.5 -113v-768h-185v1082h180l3 -125q42 67 105 106t153 39q20 0 46 -4.5t36 -9.5v-172z" />
    <glyph glyph-name="s" unicode="s" horiz-adv-x="1056" 
d="M770 287q0 30 -9 56.5t-35.5 50t-75.5 43.5t-129 37q-90 19 -162 45t-122.5 62.5t-77.5 86.5t-27 117q0 64 28.5 121.5t80.5 101t126 69t165 25.5q97 0 173.5 -26.5t130 -72.5t81.5 -107.5t28 -131.5h-186q0 33 -15 66.5t-44 60t-71 43t-97 16.5q-58 0 -98.5 -13.5
t-66.5 -36t-38 -51t-12 -58.5t10 -54t38 -43.5t76.5 -36t125.5 -33.5q99 -23 172 -52t121 -67.5t71.5 -88.5t23.5 -116q0 -71 -29.5 -130t-84.5 -101t-132 -65.5t-171 -23.5q-108 0 -190.5 30t-138.5 79.5t-85 113t-29 130.5h185q3 -57 27.5 -95.5t61.5 -62.5t81 -34t88 -10
q57 0 100 12t72.5 33t44.5 49.5t15 61.5z" />
    <glyph glyph-name="t" unicode="t" horiz-adv-x="669" 
d="M391 1344v-262h202v-143h-202v-671q0 -42 10 -67.5t26.5 -39.5t38 -18.5t44.5 -4.5t48.5 4.5t39.5 7.5v-150q-22 -6 -57 -13t-85 -7q-51 0 -96.5 14.5t-79.5 48.5t-54 89.5t-20 136.5v670h-197v143h197v262h185z" />
    <glyph glyph-name="u" unicode="u" horiz-adv-x="1129" 
d="M808 107q-51 -60 -129 -93.5t-188 -33.5q-80 0 -145 22.5t-112 71t-72.5 125t-25.5 184.5v699h185v-701q0 -73 17 -120.5t45 -75t64 -38t74 -10.5q113 0 181.5 43t100.5 115v787h185v-1082h-176z" />
    <glyph glyph-name="v" unicode="v" horiz-adv-x="992" 
d="M497 251l268 831h189l-388 -1082h-141l-392 1082h189z" />
    <glyph glyph-name="w" unicode="w" horiz-adv-x="1539" 
d="M1098 255l208 827h185l-315 -1082h-150l-263 820l-256 -820h-150l-314 1082h184l213 -810l252 810h149z" />
    <glyph glyph-name="x" unicode="x" horiz-adv-x="1015" 
d="M503 687l240 395h216l-354 -535l365 -547h-214l-250 405l-250 -405h-215l365 547l-354 535h214z" />
    <glyph glyph-name="y" unicode="y" horiz-adv-x="969" 
d="M494 271l252 811h198l-435 -1249q-15 -40 -39 -87t-62.5 -87.5t-92.5 -68t-127 -27.5q-11 0 -26 2t-30 4.5t-28 5t-20 4.5v150q4 -1 11 -1.5t14.5 -1t14 -1t10.5 -0.5q47 0 83 9t64 29.5t48.5 54.5t37.5 84l41 110l-386 1070h202z" />
    <glyph glyph-name="z" unicode="z" horiz-adv-x="1015" 
d="M314 151h633v-151h-859v136l597 793h-588v153h820v-131z" />
    <glyph glyph-name="braceleft" unicode="{" horiz-adv-x="693" 
d="M632 -366q-102 29 -170.5 76t-109.5 107t-58.5 132t-17.5 150v206q0 54 -12 98t-37.5 75t-66 48t-96.5 17v145q112 0 162 64t50 173v207q0 79 17.5 150.5t58.5 132t109.5 107t170.5 75.5l38 -115q-59 -19 -99 -53t-64.5 -79.5t-35 -101t-10.5 -116.5v-207
q0 -101 -39.5 -182t-127.5 -128q87 -47 127 -128.5t40 -181.5v-206q0 -62 10.5 -117t35 -100.5t64.5 -79.5t99 -53z" />
    <glyph glyph-name="bar" unicode="|" horiz-adv-x="499" 
d="M324 -270h-149v1726h149v-1726z" />
    <glyph glyph-name="braceright" unicode="}" horiz-adv-x="693" 
d="M19 -251q59 19 99.5 53t65 79.5t35 100.5t10.5 117v206q0 104 43 185t138 125q-95 43 -138 124t-43 186v207q0 61 -10.5 116.5t-35 101t-64.5 79.5t-99 53l38 115q102 -29 170.5 -75.5t110 -107t58.5 -132t17 -150.5v-207q0 -54 12 -98t37.5 -75t66 -47.5t96.5 -16.5
v-145q-56 0 -96.5 -17t-66 -48t-37.5 -75t-12 -98v-206q0 -78 -17 -150t-58.5 -132t-110 -107t-170.5 -76z" />
    <glyph glyph-name="asciitilde" unicode="~" horiz-adv-x="1393" 
d="M1263 777q0 -77 -24 -145t-67 -119t-102.5 -81t-130.5 -30q-44 0 -81.5 9t-73 26t-70 43t-73.5 61q-52 47 -94.5 72.5t-92.5 25.5q-78 0 -120 -53.5t-42 -147.5l-161 -2q0 78 23.5 145t66.5 116t102 77t131 28q43 0 81.5 -9.5t74 -27t70.5 -43.5t72 -59
q27 -25 50.5 -43.5t45.5 -30.5t44 -18t47 -6q39 0 70.5 15.5t54 43.5t34.5 66.5t12 85.5z" />
    <glyph glyph-name="uni00A0" unicode="&#xa0;" horiz-adv-x="600" 
 />
    <glyph glyph-name="exclamdown" unicode="&#xa1;" horiz-adv-x="499" 
d="M170 684h168l13 -1044h-194zM358 996q0 -45 -27.5 -76t-81.5 -31t-82 31t-28 76t28 75t82 30t81.5 -30t27.5 -75z" />
    <glyph glyph-name="cent" unicode="&#xa2;" horiz-adv-x="1121" 
d="M587 131q49 0 94 16t79.5 44t56 66.5t25.5 83.5h175q-3 -63 -31 -121.5t-74.5 -105.5t-108.5 -80t-133 -46v-233h-186v235q-96 17 -167 65.5t-118.5 119.5t-70.5 159.5t-23 185.5v42q0 96 23.5 184.5t70.5 159.5t118 119.5t167 66.5v226h186v-223q77 -12 139.5 -46.5
t107.5 -85t71 -115.5t29 -138h-175q-4 50 -23.5 93.5t-52.5 76t-78.5 51.5t-101.5 19q-86 0 -142.5 -34t-91 -89.5t-48.5 -125t-14 -139.5v-42q0 -72 14 -141.5t48 -124.5t91 -89t144 -34z" />
    <glyph glyph-name="sterling" unicode="&#xa3;" horiz-adv-x="1190" 
d="M449 622l8 -220q0 -70 -15 -134t-47 -111h733l-1 -157h-1032v157h77q26 6 43.5 32.5t28.5 62.5t15.5 76t4.5 73l-8 221h-165v157h160l-9 260q0 103 33.5 184.5t93 137.5t141 85.5t177.5 29.5q97 0 174 -28.5t129.5 -79.5t80.5 -122.5t28 -158.5h-191q0 63 -20 106.5
t-53 71.5t-76 40.5t-89 12.5q-49 0 -92 -18.5t-74.5 -54t-50 -87.5t-18.5 -119l9 -260h319v-157h-314z" />
    <glyph glyph-name="currency" unicode="&#xa4;" horiz-adv-x="1460" 
d="M1103 112q-76 -63 -169.5 -97.5t-198.5 -34.5q-104 0 -197 34t-169 96l-134 -136l-130 135l139 141q-50 75 -77 165.5t-27 192.5q0 106 29.5 199t82.5 170l-147 151l130 136l147 -150q75 57 164 88.5t189 31.5t190 -32t165 -89l149 152l132 -137l-151 -154
q52 -77 81 -169.5t29 -196.5q0 -100 -27 -190t-75 -165l143 -144l-132 -136zM311 608q0 -95 33.5 -178t91 -145t134.5 -98t165 -36q87 0 164 36t134.5 98t90.5 145t33 178q0 94 -33 177t-90.5 144.5t-134.5 97t-164 35.5q-88 0 -165 -35.5t-134.5 -97t-91 -144.5t-33.5 -177
z" />
    <glyph glyph-name="yen" unicode="&#xa5;" horiz-adv-x="1240" 
d="M614 782l364 674h219l-418 -720h312v-125h-384v-165h384v-124h-384v-322h-193v322h-378v124h378v165h-378v125h313l-418 720h220z" />
    <glyph glyph-name="brokenbar" unicode="&#xa6;" horiz-adv-x="491" 
d="M147 -270v791h186v-791h-186zM333 698h-186v758h186v-758z" />
    <glyph glyph-name="section" unicode="&#xa7;" horiz-adv-x="1256" 
d="M1145 431q0 -96 -49 -165t-137 -109q69 -49 105 -117t36 -168q0 -87 -35 -155t-98.5 -115.5t-153.5 -72t-201 -24.5q-96 0 -190 22t-167.5 72t-119 132.5t-45.5 204.5l186 2q0 -79 30.5 -133t78.5 -87t108 -47t119 -14q72 0 128.5 16.5t95 45t58.5 67.5t20 84
q0 46 -17 80.5t-57.5 63.5t-108 55.5t-168.5 56.5q-110 29 -196.5 64t-146.5 84t-92 116t-32 161q0 93 47.5 162.5t134.5 111.5q-66 49 -101.5 117t-35.5 168q0 83 34.5 150.5t98.5 115.5t154.5 74t201.5 26q115 0 206 -28.5t154.5 -83t97.5 -135t34 -184.5h-185
q0 58 -20 109t-59 89t-96 60t-132 22q-78 0 -135.5 -17t-94.5 -46t-55 -68t-18 -82q0 -50 15 -85.5t54 -64t106.5 -54t173.5 -54.5q112 -31 199 -66t147 -83.5t91.5 -114.5t31.5 -159zM602 691q-90 24 -165 51q-80 -19 -117.5 -69.5t-37.5 -119.5q0 -51 15 -87.5t55 -65.5
t108.5 -55t175.5 -56q45 -13 85 -25t76 -26q78 20 120 70.5t42 119.5q0 46 -17.5 81.5t-58.5 65.5t-110 57.5t-171 58.5z" />
    <glyph glyph-name="dieresis" unicode="&#xa8;" horiz-adv-x="856" 
d="M102 1371q0 45 27.5 75.5t81.5 30.5t82 -30.5t28 -75.5t-28 -75t-82 -30t-81.5 30t-27.5 75zM532 1369q0 45 27.5 76t81.5 31t82 -31t28 -76t-28 -75t-82 -30t-81.5 30t-27.5 75z" />
    <glyph glyph-name="copyright" unicode="&#xa9;" horiz-adv-x="1609" 
d="M1119 597q0 -79 -23 -138t-66 -98t-104.5 -58.5t-137.5 -19.5q-80 0 -144 28t-109 79t-69 122.5t-24 157.5v116q0 86 24 157t69 122t109 79.5t144 28.5q76 0 137.5 -19.5t104.5 -58.5t66.5 -98t23.5 -137h-146q0 99 -47.5 141.5t-138.5 42.5q-50 0 -87.5 -19t-63 -53
t-38.5 -81.5t-13 -103.5v-117q0 -57 13 -104.5t38.5 -81.5t63 -53t87.5 -19q92 0 138.5 42t46.5 143h146zM206 729q0 -134 47 -249t127.5 -200t189 -133.5t231.5 -48.5t231 48.5t188.5 133.5t127.5 200t47 249q0 133 -47 247.5t-127.5 199t-188.5 132.5t-231 48t-231.5 -48
t-189 -132.5t-127.5 -199t-47 -247.5zM91 729q0 106 25.5 202.5t71.5 179.5t111 150.5t144 115t169.5 73.5t188.5 26t188.5 -26t169 -73.5t143.5 -115t111 -150.5t71.5 -179.5t25.5 -202.5t-25.5 -202.5t-71.5 -180t-111 -151t-143.5 -116t-169 -74.5t-188.5 -26t-188.5 26
t-169.5 74.5t-144 116t-111 151t-71.5 180t-25.5 202.5z" />
    <glyph glyph-name="ordfeminine" unicode="&#xaa;" horiz-adv-x="915" 
d="M618 705q-12 34 -18 72q-31 -35 -81.5 -60.5t-122.5 -25.5q-60 0 -106.5 16t-78 46t-48 72t-16.5 93q0 111 83.5 171t255.5 60h108v52q0 66 -30.5 100.5t-93.5 34.5q-69 0 -108.5 -27t-39.5 -78l-161 12q0 51 22 93.5t62.5 73.5t97.5 48.5t127 17.5q64 0 117 -17.5
t91 -52t58.5 -86t20.5 -120.5v-314q0 -49 6 -93t20 -88h-165zM435 828q43 0 87 20t72 47v142h-107q-46 0 -79.5 -9t-55 -25t-32 -36.5t-10.5 -44.5q0 -44 30 -69t95 -25z" />
    <glyph glyph-name="guillemotleft" unicode="&#xab;" horiz-adv-x="1184" 
d="M449 1q-312 462 -312 526q-1 64 312 487h196q-310 -423 -310 -488q0 -66 307 -525h-193zM877 1q-312 462 -312 526q-1 64 313 487h195q-310 -424 -309 -491q0 -64 307 -522h-194z" />
    <glyph glyph-name="logicalnot" unicode="&#xac;" horiz-adv-x="1134" 
d="M958 375h-186v264h-645v161h831v-425z" />
    <glyph glyph-name="uni00AD" unicode="&#xad;" horiz-adv-x="565" 
d="M525 543h-488v151h488v-151z" />
    <glyph glyph-name="registered" unicode="&#xae;" horiz-adv-x="1610" 
d="M90 729q0 106 25.5 202.5t71.5 179.5t111 150.5t144 115t169.5 73.5t188.5 26t188.5 -26t169 -73.5t143.5 -115t111 -150.5t71.5 -179.5t25.5 -202.5t-25.5 -202.5t-71.5 -180t-111 -151t-143.5 -116t-169 -74.5t-188.5 -26t-188.5 26t-169.5 74.5t-144 116t-111 151
t-71.5 180t-25.5 202.5zM205 729q0 -134 47 -249t127.5 -200t189 -133.5t231.5 -48.5t231 48.5t189 133.5t127.5 200t46.5 249q0 133 -46.5 247.5t-127.5 199t-189 132.5t-231 48t-231.5 -48t-189 -132.5t-127.5 -199t-47 -247.5zM653 654v-338h-141v849h276q74 0 133.5 -16
t101.5 -47.5t64.5 -80t22.5 -112.5q0 -63 -32.5 -109.5t-95.5 -78.5q34 -14 57.5 -35t38 -47.5t21 -58t6.5 -66.5v-55q0 -38 3.5 -71t13.5 -56v-16h-145q-5 13 -8 33t-4.5 41t-1.5 40v30v53q0 72 -33.5 106.5t-113.5 34.5h-163zM653 782h156q32 1 61 9t51 23t35 37.5
t13 52.5q0 37 -9.5 62.5t-30.5 41.5t-55.5 23t-85.5 7h-135v-256z" />
    <glyph glyph-name="macron" unicode="&#xaf;" horiz-adv-x="938" 
d="M834 1313h-714v143h714v-143z" />
    <glyph glyph-name="degree" unicode="&#xb0;" horiz-adv-x="765" 
d="M130 1216q0 53 20.5 100.5t55 83t81 56t98.5 20.5t97.5 -20.5t79.5 -56t54 -83t20 -100.5q0 -54 -20 -100.5t-54 -81t-79.5 -54.5t-97.5 -20t-98.5 20t-81 54.5t-55 81t-20.5 100.5zM255 1216q0 -28 10.5 -51.5t28 -40.5t41 -26.5t50.5 -9.5t50.5 9.5t41 26.5t27 40.5
t9.5 51.5t-9.5 52.5t-27 42.5t-41 28t-50.5 10t-50.5 -10t-41 -28t-28 -42.5t-10.5 -52.5z" />
    <glyph glyph-name="plusminus" unicode="&#xb1;" horiz-adv-x="1095" 
d="M650 855h363v-152h-363v-414h-167v414h-386v152h386v412h167v-412zM970 1h-835v151h835v-151z" />
    <glyph glyph-name="twosuperior" unicode="&#xb2;" horiz-adv-x="751" 
d="M683 667h-599v108l288 271q67 61 94 105t27 77q0 49 -32 79.5t-92 30.5q-75 0 -110.5 -38t-35.5 -95h-157q0 54 20.5 101.5t59 83t94 56.5t125.5 21q67 0 120 -16.5t90 -47.5t56.5 -75t19.5 -98q0 -40 -13.5 -75.5t-38 -70t-60 -69.5t-79.5 -75l-176 -145h399v-128z" />
    <glyph glyph-name="threesuperior" unicode="&#xb3;" horiz-adv-x="751" 
d="M265 1125h84q74 0 110 30.5t36 78.5q0 45 -31.5 74t-101.5 29q-28 0 -52 -6.5t-42 -18.5t-28 -29t-10 -38h-157q0 51 22 91.5t61 69.5t91.5 44.5t112.5 15.5q65 0 119 -14.5t92.5 -43t60 -70.5t21.5 -97t-35 -100.5t-101 -70.5q77 -21 113 -68t36 -116q0 -56 -23.5 -99
t-64.5 -72t-97 -44.5t-121 -15.5q-56 0 -109.5 13.5t-95.5 42t-67.5 72.5t-25.5 105h158q0 -45 39.5 -75t106.5 -30q70 0 106.5 30t36.5 81q0 62 -43.5 88.5t-116.5 26.5h-84v116z" />
    <glyph glyph-name="acute" unicode="&#xb4;" horiz-adv-x="642" 
d="M316 1534h224l-268 -294h-149z" />
    <glyph glyph-name="mu" unicode="&#xb5;" horiz-adv-x="1160" 
d="M339 1082v-622q0 -103 17 -167.5t47 -100.5t70 -49t86 -13q108 0 170 40.5t91 111.5v800h186v-1082h-166l-10 116q-43 -65 -108 -100.5t-155 -35.5q-73 0 -129.5 17.5t-98.5 55.5v-469h-185v1498h185z" />
    <glyph glyph-name="paragraph" unicode="&#xb6;" horiz-adv-x="1001" 
d="M646 0v520h-87q-119 0 -211 35t-154.5 97.5t-94.5 148.5t-32 187q0 100 32 186t94.5 148.5t154.5 98t211 35.5h273v-1456h-186z" />
    <glyph glyph-name="periodcentered" unicode="&#xb7;" horiz-adv-x="534" 
d="M147 729q0 48 28.5 80t85.5 32t86.5 -32t29.5 -80q0 -47 -29.5 -78.5t-86.5 -31.5t-85.5 31.5t-28.5 78.5z" />
    <glyph glyph-name="cedilla" unicode="&#xb8;" horiz-adv-x="507" 
d="M285 0l-12 -52q28 -5 55.5 -16.5t49.5 -32t35 -51t13 -73.5q0 -47 -19.5 -85.5t-58 -66.5t-95 -43t-130.5 -15l-7 107q34 0 64.5 5.5t53 17.5t35.5 31t13 45q0 25 -9.5 41.5t-29 27t-50.5 16.5t-73 10l32 134h133z" />
    <glyph glyph-name="onesuperior" unicode="&#xb9;" horiz-adv-x="697" 
d="M495 674h-157v601l-216 -57v128l355 117h18v-789z" />
    <glyph glyph-name="ordmasculine" unicode="&#xba;" horiz-adv-x="931" 
d="M122 1123q0 77 24 142t68.5 112t108 73t141.5 26q80 0 143.5 -26t108 -73t68 -112t23.5 -142v-80q0 -77 -23.5 -142t-68 -112t-107.5 -73t-142 -26t-142.5 26t-108.5 73t-69 112t-24 142v80zM285 1043q0 -46 11 -85t33.5 -67.5t56.5 -45t80 -16.5q45 0 78.5 16.5t55.5 45
t33 67.5t11 85v80q0 45 -11 84t-33.5 67.5t-56 45t-79.5 16.5q-45 0 -78.5 -16.5t-56 -45t-33.5 -67.5t-11 -84v-80z" />
    <glyph glyph-name="guillemotright" unicode="&#xbb;" horiz-adv-x="1184" 
d="M741 1h-193q307 459 307 525q0 65 -310 488h196q313 -423 312 -487q0 -64 -312 -526zM313 1h-194q307 458 307 522q1 67 -309 491h195q314 -423 313 -487q0 -64 -312 -526z" />
    <glyph glyph-name="onequarter" unicode="&#xbc;" horiz-adv-x="1500" 
d="M1318 299h107v-130h-107v-169h-157v169h-375l-6 102l377 518h161v-490zM938 299h223v289l-17 -28zM458 664h-157v601l-216 -57v128l355 117h18v-789zM443 118l-104 66l711 1138l104 -66z" />
    <glyph glyph-name="onehalf" unicode="&#xbd;" horiz-adv-x="1589" 
d="M1481 0h-599v108l288 271q67 61 94 105t27 77q0 49 -32 79.5t-92 30.5q-75 0 -110.5 -38t-35.5 -95h-157q0 54 20.5 101.5t59 83t94 56.5t125.5 21q67 0 120 -16.5t90 -47.5t56.5 -75t19.5 -98q0 -40 -13.5 -75.5t-38 -70t-60 -69.5t-79.5 -75l-176 -145h399v-128z
M453 664h-157v601l-216 -57v128l355 117h18v-789zM399 118l-104 66l711 1138l104 -66z" />
    <glyph glyph-name="threequarters" unicode="&#xbe;" horiz-adv-x="1593" 
d="M1410 299h107v-130h-107v-169h-157v169h-375l-6 102l377 518h161v-490zM1030 299h223v289l-17 -28zM314 1126h84q74 0 110 30.5t36 78.5q0 45 -31.5 74t-101.5 29q-28 0 -52 -6.5t-42 -18.5t-28 -29t-10 -38h-157q0 51 22 91.5t61 69.5t91.5 44.5t112.5 15.5
q65 0 119 -14.5t92.5 -43t60 -70.5t21.5 -97t-35 -100.5t-101 -70.5q77 -21 113 -68t36 -116q0 -56 -23.5 -99t-64.5 -72t-97 -44.5t-121 -15.5q-56 0 -109.5 13.5t-95.5 42t-67.5 72.5t-25.5 105h158q0 -45 39.5 -75t106.5 -30q70 0 106.5 30t36.5 81q0 62 -43.5 88.5
t-116.5 26.5h-84v116zM570 118l-104 66l711 1138l104 -66z" />
    <glyph glyph-name="questiondown" unicode="&#xbf;" horiz-adv-x="969" 
d="M588 680q-1 -72 -10 -122t-29 -91t-52 -80t-78 -89q-32 -35 -62 -66.5t-53 -66t-37 -74.5t-14 -91q0 -109 58 -166.5t167 -57.5q43 0 84 12.5t72 38t50 63.5t19 90h185q-1 -85 -33 -152.5t-86.5 -115t-129 -72.5t-161.5 -25q-98 0 -174 25.5t-128.5 74.5t-80 119.5
t-27.5 160.5q0 68 21.5 128t56 113.5t78.5 102t89 92.5q54 51 72 112.5t18 136.5h185zM596 997q0 -45 -27.5 -76t-81.5 -31t-82 31t-28 76q0 44 28 74t82 30t81.5 -30t27.5 -74z" />
    <glyph glyph-name="uni02BC" unicode="&#x2bc;" horiz-adv-x="409" 
d="M327 1408q0 -46 -11.5 -95.5t-34 -97.5t-54.5 -91.5t-74 -77.5l-105 72q47 66 71.5 135.5t24.5 151.5v131h183v-128z" />
    <glyph glyph-name="circumflex" unicode="&#x2c6;" horiz-adv-x="964" 
d="M774 1262v-10h-153l-150 170l-149 -170h-153v12l246 272h112z" />
    <glyph glyph-name="caron" unicode="&#x2c7;" horiz-adv-x="909" 
d="M448 1365l150 170h160v-10l-254 -274h-113l-251 274v10h157z" />
    <glyph glyph-name="breve" unicode="&#x2d8;" horiz-adv-x="874" 
d="M728 1495q0 -59 -20.5 -108t-59.5 -84.5t-94.5 -55.5t-124.5 -20t-124.5 20t-94.5 55.5t-60 84.5t-21 108h151q0 -30 8 -57t25.5 -47.5t46 -32.5t69.5 -12q40 0 68.5 12t46.5 32.5t26 47.5t8 57h150z" />
    <glyph glyph-name="dotaccent" unicode="&#x2d9;" horiz-adv-x="497" 
d="M141 1367q0 45 27.5 76t81.5 31t82 -31t28 -76t-28 -75t-82 -30t-81.5 30t-27.5 75z" />
    <glyph glyph-name="ring" unicode="&#x2da;" horiz-adv-x="685" 
d="M121 1408q0 43 16.5 81t45.5 66.5t68 44.5t85 16q45 0 84.5 -16t68.5 -44.5t45.5 -66.5t16.5 -81q0 -44 -16.5 -81t-45.5 -64.5t-68.5 -43t-84.5 -15.5q-46 0 -85 15.5t-68 43t-45.5 64.5t-16.5 81zM220 1408q0 -22 8.5 -43t24 -37t36.5 -25.5t47 -9.5q25 0 46.5 9.5
t37 25t24 36.5t8.5 44q0 24 -8.5 45t-24 37.5t-37 26t-46.5 9.5q-26 0 -47 -9.5t-36.5 -26t-24 -37.5t-8.5 -45z" />
    <glyph glyph-name="ogonek" unicode="&#x2db;" horiz-adv-x="554" 
d="M382 0q-32 -24 -63 -49t-55 -53t-38.5 -57.5t-14.5 -62.5t17 -52.5t61 -19.5q33 0 58.5 9t41.5 17l13 -121q-24 -15 -62 -29.5t-98 -14.5q-41 0 -76 12t-60.5 36t-40.5 59.5t-15 82.5q0 40 14.5 80t46 78.5t80 74t116.5 66.5z" />
    <glyph glyph-name="tilde" unicode="&#x2dc;" horiz-adv-x="966" 
d="M830 1500q0 -55 -16.5 -100t-46 -76.5t-68.5 -48.5t-84 -17q-51 0 -84 15t-60 32.5t-55 32.5t-70 15q-21 0 -39 -8.5t-31.5 -23.5t-21 -35.5t-7.5 -44.5l-124 7q0 55 16.5 100.5t45 78t68 50.5t84.5 18q43 0 75.5 -15t62 -33t60.5 -33t71 -15q21 0 39 8.5t31.5 24
t21.5 36t8 44.5z" />
    <glyph glyph-name="hungarumlaut" unicode="&#x2dd;" horiz-adv-x="764" 
d="M605 1535h207l-269 -303h-169zM265 1535h197l-218 -303h-150z" />
    <glyph glyph-name="uni02F3" unicode="&#x2f3;" horiz-adv-x="602" 
d="M126 -242q0 36 14 67t37.5 53t55 34.5t67.5 12.5q35 0 65.5 -12.5t53.5 -34.5t36.5 -53t13.5 -67q0 -37 -13.5 -67t-36.5 -51.5t-53.5 -33t-65.5 -11.5q-36 0 -67.5 11.5t-55 33t-37.5 51.5t-14 67zM213 -242q0 -17 7 -32.5t19 -26.5t27.5 -17.5t33.5 -6.5q35 0 59 24
t24 59q0 36 -24 61t-59 25q-18 0 -33.5 -6.5t-27.5 -18.5t-19 -27.5t-7 -33.5z" />
    <glyph glyph-name="gravecomb" unicode="&#x300;" 
d="M-458 1240h-126l-130 295h176z" />
    <glyph glyph-name="acutecomb" unicode="&#x301;" 
d="M-523 1536h172l-167 -293h-116z" />
    <glyph glyph-name="tildecomb" unicode="&#x303;" 
d="M-178 1500q0 -55 -16.5 -100t-46 -76.5t-68.5 -48.5t-84 -17q-51 0 -84 15t-60 32.5t-55 32.5t-70 15q-21 0 -39 -8.5t-31.5 -23.5t-21 -35.5t-7.5 -44.5l-124 7q0 55 16.5 100.5t45 78t68 50.5t84.5 18q43 0 75.5 -15t62 -33t60.5 -33t71 -15q21 0 39 8.5t31.5 24
t21.5 36t8 44.5z" />
    <glyph glyph-name="hook" unicode="&#x309;" 
d="M-652 1241l-1 153q75 5 110 20t35 54q0 21 -13 36t-35.5 24t-53 13.5t-64.5 4.5l7 106q149 0 226 -51.5t77 -136.5q0 -38 -13.5 -65t-35 -45t-49.5 -28t-57 -14l-1 -71h-132z" />
    <glyph glyph-name="uni030F" unicode="&#x30f;" 
d="M-510 1252h-169l-306 266h225zM-249 1252h-150l-246 266h206z" />
    <glyph glyph-name="dotbelow" unicode="&#x323;" horiz-adv-x="495" 
d="M-712 -245q0 45 27.5 76t81.5 31t82 -31t28 -76t-28 -75t-82 -30t-81.5 30t-27.5 75z" />
    <glyph glyph-name="tonos" unicode="&#x384;" horiz-adv-x="525" 
d="M237 1599h174l-116 -337h-112z" />
    <glyph glyph-name="dieresistonos" unicode="&#x385;" horiz-adv-x="1035" 
d="M481 1672h188l-101 -264h-135zM113 1371q0 45 27.5 75.5t81.5 30.5t82 -30.5t28 -75.5t-28 -75t-82 -30t-81.5 30t-27.5 75zM680 1369q0 45 27.5 76t81.5 31t82 -31t28 -76t-28 -75t-82 -30t-81.5 30t-27.5 75z" />
    <glyph glyph-name="Delta" unicode="&#x394;" horiz-adv-x="1444" 
d="M646 1456h170l579 -1456h-1364zM293 157h844l-409 1064z" />
    <glyph glyph-name="Omega" unicode="&#x3a9;" horiz-adv-x="1362" 
d="M737 162q67 13 121.5 55t93 112.5t59.5 169.5t21 227v115q0 117 -25 206t-72.5 149t-114.5 91t-151 31q-83 0 -149.5 -31t-113.5 -91t-72.5 -149t-25.5 -206v-115q0 -128 22 -227.5t61.5 -170t95 -112t123.5 -54.5v-162h-492v157h221q-52 50 -94 114.5t-71 138t-45 154
t-16 162.5v113q0 142 40.5 259t113.5 201t175.5 130.5t226.5 46.5t227 -46.5t176.5 -130.5t114 -201t40.5 -259v-113q0 -82 -16 -162.5t-45 -154t-71 -138t-94 -114.5h220v-157h-484v162z" />
    <glyph glyph-name="afii57388" unicode="&#x60c;" horiz-adv-x="629" 
d="M167 288q50 243 245 392l45 -28q-157 -143 -173 -365v-2h2q132 2 165 -63q19 -38 18 -76q-4 -136 -143 -137q-28 0 -52 4q-118 24 -118 171q0 46 11 104z" />
    <glyph glyph-name="uni060D" unicode="&#x60d;" horiz-adv-x="828" 
d="M610 1461l147 -44l-558 -1628l-147 44z" />
    <glyph glyph-name="uni0615" unicode="&#x615;" 
d="M541 1786h137q104 0 169 35t67.5 89.5t-31.5 72.5q-54 31 -140 -18t-203 -176l-3 -3h4zM989 1927q0 -213 -321 -213h-311v72h106h2v2v530l73 -1l-1 -425v-5l4 4q207 235 371 172q77 -29 77 -136z" />
    <glyph glyph-name="uni061B" unicode="&#x61b;" horiz-adv-x="629" 
d="M167 758q50 243 245 392l45 -28q-157 -143 -173 -365v-2h2q132 2 165 -63q19 -38 18 -76q-4 -136 -143 -137q-28 0 -52 4q-118 24 -118 171q0 46 11 104zM184 138q0 56 39 95t94 39q28 0 51 -10q24 -10 43 -29q39 -39 39 -95q0 -55 -39 -94t-94 -39q-48 0 -84 30
q-9 8 -16 16q-8 8 -13 17q-6 10 -10 19q-5 12 -7.5 25t-2.5 26z" />
    <glyph glyph-name="uni061F" unicode="&#x61f;" horiz-adv-x="974" 
d="M420 138q0 56 39 95t94 39t94 -39t39 -94.5t-39 -94.5t-94 -39q-48 0 -84 30q-9 8 -16.5 16t-13 17.5t-9.5 18.5q-5 12 -7.5 25t-2.5 26zM454 496q-13 88 -117 183q-224 204 -221 367q3 135 82 224q117 131 311 131q365 -2 365 -387v-8h-156v7q0 198 -200 198
q-113 0 -168 -56q-49 -50 -49 -119q1 -110 187 -277q154 -144 165 -263h-199z" />
    <glyph glyph-name="uni0621" unicode="&#x621;" horiz-adv-x="908" 
d="M120 13v174q127 80 239 116l4 1l-4 2q-231 121 -230 311q0 123 83 221q98 114 277 114q154 0 273 -100l-56 -125q-50 27 -101 40t-105 13q-103 0 -155 -40.5t-52 -122.5q0 -126 224 -231h1l280 57v-169q-260 -31 -678 -261z" />
    <glyph glyph-name="uni0627" unicode="&#x627;" horiz-adv-x="497" 
d="M167 1396h165v-1395h-165v1395z" />
    <glyph glyph-name="uni0628" unicode="&#x628;" horiz-adv-x="1747" 
d="M271 483q2 -303 595 -303q630 1 620 303q-2 78 -31 184l158 30q40 -120 40 -209q-1 -488 -789 -488h-3q-754 0 -755 464q0 99 27 221l156 -30q-18 -86 -18 -172zM782.901 -316.796l134.813 134.813l135.883 -135.883l-134.812 -134.813z" />
    <glyph glyph-name="uni0629" unicode="&#x629;" horiz-adv-x="942" 
d="M461 644q-191 -167 -191 -295q0 -168 205 -168q208 0 207 169q0 119 -219 294l-1 1zM393 927q456 -324 456 -583q0 -160 -116 -257q-99 -83 -257 -83q-142 0 -237 65q-134 91 -136 275q-1 188 222 415l-2 1l-30 22zM469.326 1200.2l135.883 134.813l134.813 -135.883
l-134.813 -134.813zM166.531 1200.2l134.813 134.813l135.883 -135.883l-135.883 -134.813z" />
    <glyph glyph-name="uni062A" unicode="&#x62a;" horiz-adv-x="1747" 
d="M271 483q2 -303 595 -303q630 1 620 303q-2 78 -31 184l158 30q40 -120 40 -209q-1 -488 -789 -488h-3q-754 0 -755 464q0 99 27 221l156 -30q-18 -86 -18 -172zM904.326 942.204l135.883 134.813l134.813 -135.883l-134.813 -134.813zM601.531 942.204l134.813 134.813
l135.883 -135.883l-135.883 -134.813z" />
    <glyph glyph-name="uni062B" unicode="&#x62b;" horiz-adv-x="1747" 
d="M271 483q2 -303 595 -303q630 1 620 303q-2 78 -31 184l158 30q40 -120 40 -209q-1 -488 -789 -488h-3q-754 0 -755 464q0 99 27 221l156 -30q-18 -86 -18 -172zM756.674 1127.03l131.603 131.604l131.604 -132.674l-131.604 -131.604zM908.605 879.875l131.604 131.604
l131.604 -132.673l-131.604 -131.604zM604.741 879.875l131.604 131.604l131.603 -132.673l-131.603 -131.604z" />
    <glyph glyph-name="uni062C" unicode="&#x62c;" horiz-adv-x="1306" 
d="M794 535q-289 117 -365 117q-95 0 -221 -148l-126 106q152 220 333 220q90 0 407 -128q227 -92 377 -101l-16 -174q-175 -11 -291 -37q-609 -143 -609 -511q0 -351 533 -351q191 0 370 85v-184q-152 -72 -384 -72q-487 0 -632 276q-53 100 -53 230q0 522 677 672z
M669.901 -64.7959l134.813 134.813l135.883 -135.883l-134.812 -134.813z" />
    <glyph glyph-name="uni062D" unicode="&#x62d;" horiz-adv-x="1306" 
d="M794 535q-289 117 -365 117q-95 0 -221 -148l-126 106q152 220 333 220q90 0 407 -128q227 -92 377 -101l-16 -174q-175 -11 -291 -37q-609 -143 -609 -511q0 -351 533 -351q191 0 370 85v-184q-152 -72 -384 -72q-487 0 -632 276q-53 100 -53 230q0 522 677 672z" />
    <glyph glyph-name="uni062E" unicode="&#x62e;" horiz-adv-x="1306" 
d="M444.901 1178.2l134.813 134.813l135.883 -135.883l-134.812 -134.813zM794 535q-289 117 -365 117q-95 0 -221 -148l-126 106q152 220 333 220q90 0 407 -128q227 -92 377 -101l-16 -174q-175 -11 -291 -37q-609 -143 -609 -511q0 -351 533 -351q191 0 370 85v-184
q-152 -72 -384 -72q-487 0 -632 276q-53 100 -53 230q0 522 677 672z" />
    <glyph glyph-name="uni062F" unicode="&#x62f;" horiz-adv-x="950" 
d="M103 205q120 -25 229 -25q342 0 342 170q0 195 -369 427l72 163q470 -284 469 -587q0 -350 -501 -351q-136 0 -242 23v180z" />
    <glyph glyph-name="uni0630" unicode="&#x630;" horiz-adv-x="950" 
d="M103 205q120 -25 229 -25q342 0 342 170q0 195 -369 427l72 163q470 -284 469 -587q0 -350 -501 -351q-136 0 -242 23v180zM231.901 1266.2l134.813 134.813l135.883 -135.883l-134.812 -134.813z" />
    <glyph glyph-name="uni0631" unicode="&#x631;" horiz-adv-x="791" 
d="M545 160q0 148 -92 281l147 78q111 -165 111 -358q0 -560 -681 -627l-29 164q544 44 544 462z" />
    <glyph glyph-name="uni0632" unicode="&#x632;" horiz-adv-x="816" 
d="M545 160q0 148 -92 281l147 78q111 -165 111 -358q0 -560 -681 -627l-29 164q544 44 544 462zM335.83 905.882l139.312 139.312l140.418 -140.418l-139.312 -139.312z" />
    <glyph glyph-name="uni0633" unicode="&#x633;" horiz-adv-x="2428" 
d="M681 -468q-181 0 -320 72q-257 133 -256 495q0 158 65 347l159 -45q-54 -168 -54 -300q0 -397 419 -397q442 0 444 462q0 130 -59 301l167 40l31 -131q46 -196 227 -196q178 0 197 201l15 159h121l15 -160q18 -198 153 -200q158 -1 157 240q-1 106 -28 227l163 30
q26 -137 26 -253q-1 -423 -313 -423q-168 0 -233 132q-95 -133 -275 -133q-132 0 -204 58q-15 -182 -104 -310q-153 -216 -513 -216z" />
    <glyph glyph-name="uni0634" unicode="&#x634;" horiz-adv-x="2428" 
d="M1601.67 1158.03l131.603 131.604l131.604 -132.674l-131.604 -131.604zM1753.61 910.875l131.604 131.604l131.604 -132.673l-131.604 -131.604zM1449.74 910.875l131.604 131.604l131.603 -132.673l-131.603 -131.604zM681 -468q-181 0 -320 72q-257 133 -256 495
q0 158 65 347l159 -45q-54 -168 -54 -300q0 -397 419 -397q442 0 444 462q0 130 -59 301l167 40l31 -131q46 -196 227 -196q178 0 197 201l15 159h121l15 -160q18 -198 153 -200q158 -1 157 240q-1 106 -28 227l163 30q26 -137 26 -253q-1 -423 -313 -423q-168 0 -233 132
q-95 -133 -275 -133q-132 0 -204 58q-15 -182 -104 -310q-153 -216 -513 -216z" />
    <glyph glyph-name="uni0635" unicode="&#x635;" horiz-adv-x="2525" 
d="M680 -468q-180 0 -319 72q-257 133 -256 495q0 158 65 347l159 -45q-54 -168 -54 -300q1 -395 419 -397q442 -2 444 461q0 130 -59 301l167 40l31 -131q38 -162 88 -166q340 573 678 572q214 0 320 -153q60 -87 60 -202q-1 -426 -720 -426h-51q-238 0 -355 58
q-15 -182 -104 -310q-151 -216 -513 -216zM2042 599q-224 -1 -491 -419l158 1q535 0 536 226q0 86 -58 139t-145 53z" />
    <glyph glyph-name="uni0636" unicode="&#x636;" horiz-adv-x="2525" 
d="M1856.9 1153.2l134.813 134.813l135.883 -135.883l-134.812 -134.813zM680 -468q-180 0 -319 72q-257 133 -256 495q0 158 65 347l159 -45q-54 -168 -54 -300q1 -395 419 -397q442 -2 444 461q0 130 -59 301l167 40l31 -131q38 -162 88 -166q340 573 678 572
q214 0 320 -153q60 -87 60 -202q-1 -426 -720 -426h-51q-238 0 -355 58q-15 -182 -104 -310q-151 -216 -513 -216zM2042 599q-224 -1 -491 -419l158 1q535 0 536 226q0 86 -58 139t-145 53z" />
    <glyph glyph-name="uni0637" unicode="&#x637;" horiz-adv-x="1474" 
d="M567 521q200 250 421 250q214 0 320 -153q60 -87 60 -202q-1 -416 -710 -416h-555v180h219h2h1l76 118l1 1v1098h165v-876zM326 183zM664 181q525 0 526 216q0 86 -58 139t-145 53q-221 0 -481 -408h158z" />
    <glyph glyph-name="uni0638" unicode="&#x638;" horiz-adv-x="1474" 
d="M567 521q200 250 421 250q214 0 320 -153q60 -87 60 -202q-1 -416 -710 -416h-555v180h219h2h1l76 118l1 1v1098h165v-876zM326 183zM664 181q525 0 526 216q0 86 -58 139t-145 53q-221 0 -481 -408h158zM834.901 1153.2l134.813 134.813l135.883 -135.883
l-134.812 -134.813z" />
    <glyph glyph-name="uni0639" unicode="&#x639;" horiz-adv-x="1286" 
d="M489 405q-128 148 -128 290t106.5 254t280.5 112t324 -122l-65 -146q-139 89 -241 89q-128 0 -189 -100q-30 -48 -30 -100q0 -46 24 -95q22 -45 86 -127q169 30 320 30q80 0 155 -9v-171q-65 2 -125 2q-734 0 -734 -423q0 -361 534 -361q190 0 369 85v-184
q-152 -72 -384 -72q-538 0 -655 330q-30 83 -30 186q0 376 382 532z" />
    <glyph glyph-name="uni063A" unicode="&#x63a;" horiz-adv-x="1286" 
d="M489 405q-128 148 -128 290t106.5 254t280.5 112t324 -122l-65 -146q-139 89 -241 89q-128 0 -189 -100q-30 -48 -30 -100q0 -46 24 -95q22 -45 86 -127q169 30 320 30q80 0 155 -9v-171q-65 2 -125 2q-734 0 -734 -423q0 -361 534 -361q190 0 369 85v-184
q-152 -72 -384 -72q-538 0 -655 330q-30 83 -30 186q0 376 382 532zM599.901 1367.2l134.813 134.813l135.883 -135.883l-134.812 -134.813z" />
    <glyph glyph-name="afii57440" unicode="&#x640;" horiz-adv-x="286" 
d="M313 86q0 -86 -18 -86h-302q-56 0 -56 86v19q0 75 56 75h302q18 0 18 -75v-19z" />
    <glyph glyph-name="uni0641" unicode="&#x641;" horiz-adv-x="1761" 
d="M1147.9 1329.2l134.813 134.813l135.883 -135.883l-134.812 -134.813zM1480 530q-20 318 -173 318q-67 0 -107 -55q-39 -54 -39 -125q0 -135 235 -139q42 -1 82 -1h2v2zM1094 0h-243q-744 0 -745 464q0 99 27 221l156 -30q-18 -86 -18 -172q2 -303 571 -303h263
q362 0 373 175h-81q-400 3 -399 300q0 153 86 264q85 109 244 109q198 0 272 -211q50 -141 50 -335q0 -189 -61 -285q-124 -197 -495 -197z" />
    <glyph glyph-name="uni0642" unicode="&#x642;" horiz-adv-x="1384" 
d="M694 -229q391 1 429 306l-81 1q-400 2 -399 299q0 115 48 205q90 169 262 169q218 0 292 -212q49 -138 49 -378q0 -164 -59 -290q-129 -272 -554 -272q-181 0 -320 72q-257 133 -256 495q0 158 65 347l159 -45q-54 -168 -54 -300q0 -398 419 -397zM1125 253
q-20 318 -172 318q-84 0 -125 -84q-22 -44 -22 -97q0 -134 236 -139q41 0 81 -1h3zM920.326 1056.2l135.883 134.813l134.813 -135.883l-134.813 -134.813zM617.531 1056.2l134.813 134.813l135.883 -135.883l-135.883 -134.813z" />
    <glyph glyph-name="uni0643" unicode="&#x643;" horiz-adv-x="1863" 
d="M1012 0h-169q-737 0 -737 464q0 99 27 221l156 -30q-18 -86 -18 -172q2 -302 572 -303h182q521 -1 514 270v947h169v-945q0 -452 -696 -452zM650 612q92 -10 160 -11q112 0 161 22q13 6 24 13q10 7 17 16t11 19q3 11 3 23q0 22 -7 39q-8 18 -24 31q-15 14 -38 22
q-23 9 -54 13q-212 33 -209 211q5 204 389 233v-124q-129 -12 -194 -41t-65 -76q0 -76 140 -97q96 -15 144 -67q47 -51 47 -140q0 -120 -118 -184q-75 -41 -209 -41q-79 0 -178 15v124z" />
    <glyph glyph-name="uni0644" unicode="&#x644;" horiz-adv-x="1371" 
d="M668 -246q388 -1 389 394l3 1248h166l-1 -1229q0 -584 -558 -584q-223 2 -362 89q-202 127 -201 427q0 158 65 347l160 -45q-54 -168 -54 -300q0 -347 393 -347z" />
    <glyph glyph-name="uni0645" unicode="&#x645;" horiz-adv-x="1206" 
d="M419 148q-152 -2 -151 -438q0 -195 14 -355h-170q-11 172 -11 329q0 326 79 482q80 158 208 180h1l1 2q33 148 97 231q99 130 260 131q168 0 274 -133q82 -103 81 -267q0 -148 -92 -238q-80 -79 -214 -79q-155 0 -261 89q-77 66 -116 66zM781 167q101 0 141 71
q17 31 18 69q1 49 -18 99q-27 68 -80 99q-40 24 -91 24q-165 0 -193 -219h-1l1 -1q95 -142 223 -142z" />
    <glyph glyph-name="uni0646" unicode="&#x646;" horiz-adv-x="1405" 
d="M1245 573q56 -169 56 -360q-1 -246 -102 -393q-151 -221 -518 -221q-181 0 -320 72q-257 133 -256 495q0 158 65 347l158 -45q-54 -168 -54 -300q1 -396 419 -397q265 -1 371 161q72 110 73 300q0 130 -59 301zM555.901 657.204l134.813 134.813l135.883 -135.883
l-134.812 -134.813z" />
    <glyph glyph-name="uni0647" unicode="&#x647;" horiz-adv-x="942" 
d="M461 644q-191 -167 -191 -295q0 -168 205 -168q208 0 207 169q0 119 -219 294l-1 1zM393 927q456 -324 456 -583q0 -160 -116 -257q-99 -83 -257 -83q-142 0 -237 65q-134 91 -136 275q-1 188 222 415l-2 1l-30 22z" />
    <glyph glyph-name="uni0648" unicode="&#x648;" horiz-adv-x="845" 
d="M687 532q56 -116 71 -269q6 -56 6 -108q0 -234 -117 -378q-166 -204 -560 -243l-29 164q439 34 520 302l-58 1q-430 6 -430 331q0 154 87 264q87 109 231 109q195 0 279 -173zM593 183q-22 342 -186 342q-73 0 -115 -55q-39 -54 -39 -125q0 -161 266 -164h72h2v2z" />
    <glyph glyph-name="uni0649" unicode="&#x649;" horiz-adv-x="1413" 
d="M702 -227q237 1 355 94q87 68 96 164q1 65 -90 66l-81 1q-237 3 -240 218q-3 244 186 369q138 92 377 97v-189q-259 -3 -353 -133q-40 -56 -39 -130q1 -50 63 -50h61q287 0 286 -212q-1 -169 -113 -288q-165 -177 -515 -178q-220 0 -366 85q-228 134 -227 462
q0 203 67 398l158 -45q-54 -180 -54 -351q0 -381 429 -378z" />
    <glyph glyph-name="uni064A" unicode="&#x64a;" horiz-adv-x="1413" 
d="M702 -227q237 1 355 94q87 68 96 164q1 65 -90 66l-81 1q-237 3 -240 218q-3 244 186 369q138 92 377 97v-189q-259 -3 -353 -133q-40 -56 -39 -130q1 -50 63 -50h61q287 0 286 -212q-1 -169 -113 -288q-165 -177 -515 -178q-220 0 -366 85q-228 134 -227 462
q0 203 67 398l158 -45q-54 -180 -54 -351q0 -381 429 -378zM710.326 -644.796l135.883 134.813l134.813 -135.883l-134.813 -134.813zM407.531 -644.796l134.813 134.813l135.883 -135.883l-135.883 -134.813z" />
    <glyph glyph-name="uni064B" unicode="&#x64b;" 
d="M329 1077v100l451 184v-99zM329 1329v100l451 184v-99z" />
    <glyph glyph-name="uni064C" unicode="&#x64c;" 
d="M586 1716q-20 -23 -20 -54q0 -58 67 -86l74 -25l2 -1l1 2l6.5 13t6.5 13.5t5 13.5t4 13.5t3 13.5t1.5 14t0.5 14q0 100 -83 99q-43 0 -68 -30zM317 1510q2 -113 36 -169q35 -57 100 -56q36 1 73 19.5t76 56.5q22 22 43 52q22 32 41 70l2 3h-3l-30 6q-13 3 -31 8
q-15 5 -28 10t-24 10q-12 6 -21 13q-10 6 -17 13q-8 7 -14 15q-16 21 -24 44t-8 48q0 51 17 84q22 42 58 63t87 21q71 1 114 -40q47 -46 47 -133q1 -40 -21 -108l-1 -3h3l30 -1q29 -2 56 -2v-75q-37 1 -48 2l-76 7h-2v-1q-15 -37 -35 -70t-48.5 -56t-57.5 -48
q-71 -63 -75 -65q-40 -17 -82 -17q-92 -1 -139 74t-50 225h52z" />
    <glyph glyph-name="uni064D" unicode="&#x64d;" 
d="M334 -485v99l452 185v-99zM334 -233v99l452 185v-99z" />
    <glyph glyph-name="uni064E" unicode="&#x64e;" 
d="M298 1350v99l452 185v-99z" />
    <glyph glyph-name="uni064F" unicode="&#x64f;" 
d="M821 1474q-15 0 -28.5 0.5t-25.5 1t-22.5 1.5t-20.5 2l-31 4h-1l-1 -1q-33 -46 -72.5 -82t-86 -61t-99.5 -39t-112 -17v74q189 9 287 147l1 3h-3q-42 9 -88 34q-86 48 -86 133q0 15 2.5 30t7 28t11 25t15.5 23q45 54 125 54q30 0 56 -9t48 -27q32 -25 47 -63
q5 -14 7.5 -29.5t2.5 -32.5q-1 -19 -3.5 -38.5t-8.5 -39.5t-14 -40l-1 -3h3l19 -2q39 -3 72 -2v-74zM652 1567l6 14q21 49 21 91t-26 63q-25 22 -56 22q-15 1 -28 -2.5t-24 -11t-19 -18.5q-9 -12 -13.5 -25.5t-4.5 -29.5q0 -48 67 -79q23 -11 74 -25l2 -1z" />
    <glyph glyph-name="uni0650" unicode="&#x650;" 
d="M345 -345v100l451 184v-99z" />
    <glyph glyph-name="uni0651" unicode="&#x651;" 
d="M583 1544q-25 -106 -151 -106q-132 0 -136 167q-1 58 13 106l74 -12q-35 -167 61 -167q84 -1 88 115q2 50 1 117h74l2 -80q-1 -94 68 -94q102 1 56 219l85 14q17 -61 17 -120q0 -200 -145 -201q-72 -1 -107 42z" />
    <glyph glyph-name="uni0652" unicode="&#x652;" 
d="M400 1460q0 81 56 137t137.5 56t137.5 -56q28 -28 42 -62.5t14 -74.5q0 -81 -56 -138q-14 -14 -30 -24.5t-33 -17.5t-35.5 -10.5t-39.5 -3.5q-40 0 -74.5 14t-62.5 42.5t-42 62.5t-14 75zM483 1459q-1 -48 33 -81q32 -33 80 -33q47 0 81 33q32 33 33 81q-1 47 -33 80
q-11 11 -24 18.5t-27 11t-30 3.5q-48 0 -80 -33q-34 -33 -33 -80z" />
    <glyph glyph-name="uni0653" unicode="&#x653;" 
d="M401 1637q-56 7 -107 -16.5t-97 -76.5l-99 103q118 168 285 141l149 -24q97 -16 219 45l64 -133q-64 -39 -132 -54t-142 -5z" />
    <glyph glyph-name="uni0654" unicode="&#x654;" 
d="M523 1846q-93 72 -93 179q0 87 58 149q69 72 176 72q47 0 89.5 -10.5t79.5 -31.5l1 -127q-92 40 -156 40q-32 0 -56.5 -8.5t-41.5 -26.5q-29 -29 -29 -70q1 -38 30 -67t86 -49q12 -4 25 -3q49 6 168 27v-131l-433 -97v129l95 22h4z" />
    <glyph glyph-name="uni0655" unicode="&#x655;" 
d="M523 -306q-93 72 -93 179q0 87 58 149q69 72 176 72q47 0 89.5 -10.5t79.5 -31.5l1 -127q-92 40 -156 40q-32 0 -56.5 -8.5t-41.5 -26.5q-29 -29 -29 -70q1 -38 30 -67t86 -49q12 -4 25 -3q49 6 168 27v-131l-433 -97v129l95 22h4z" />
    <glyph glyph-name="uni0657" unicode="&#x657;" 
d="M267 1801q58 -2 127 -9l1 -1l1 1l1 2q148 211 386 235v-75q-185 -30 -298 -177l-2 -2l3 -1q61 -18 104 -49q66 -50 66 -128q0 -69 -44 -115q-43 -44 -111 -44q-36 0 -68 13t-58 39q-41 41 -41 111q0 44 23 119l1 2h-2q-14 2 -28.5 2.5t-29.5 1t-31 0.5v75zM501 1512
q42 1 62 29q8 11 12 24.5t4 29.5q0 8 -1.5 16.5t-5 16t-8.5 14.5t-11.5 13.5t-14.5 12t-17.5 11t-20.5 10.5q-6 2 -12.5 4.5t-12.5 4.5t-12.5 4t-12.5 3.5t-12 3.5h-2l-1 -1q-27 -65 -27 -105q0 -11 1.5 -20t5 -17t9 -15t12.5 -13t15 -11q13 -8 25.5 -11.5t24.5 -3.5z" />
    <glyph glyph-name="uni065A" unicode="&#x65a;" horiz-adv-x="1135" 
d="M504 1444l-192 320h100l160 -239l1 -3l2 3l160 239h100l-192 -320h-139z" />
    <glyph glyph-name="afii57392" unicode="&#x660;" horiz-adv-x="893" 
d="M309 543.5q0 -59.5 41 -100.5q21 -21 46.5 -31.5t56.5 -10.5q60 0 101 42q20 20 30.5 45.5t10.5 55t-10.5 54.5t-30.5 46q-41 41 -102 42q-30 -1 -55.5 -11.5t-46.5 -30.5q-41 -41 -41 -100.5zM224 767q23 24 48.5 41.5t53.5 28.5q56 24 121 24q43 0 82 -10.5t74.5 -31
t66.5 -52.5q46 -46 69.5 -102t23.5 -121q0 -130 -93 -223q-24 -23 -49.5 -40.5t-53 -29t-58 -17t-62.5 -5.5q-65 0 -121 23q-19 7 -36.5 17.5t-34 23.5t-31.5 28q-47 47 -70 102.5t-23 120.5t23 121t70 102z" />
    <glyph glyph-name="afii57393" unicode="&#x661;" horiz-adv-x="716" 
d="M310 1366q204 -448 204 -1087v-267h-179v270q0 641 -190 1026z" />
    <glyph glyph-name="afii57394" unicode="&#x662;" horiz-adv-x="1197" 
d="M480 772q34 -257 34 -493v-267h-179v270q0 641 -190 1026l164 58l102 -282q61 -172 274 -172q108 0 159 100t52 343l180 -1q-4 -371 -107.5 -500.5t-279.5 -128.5q-135 0 -209 47z" />
    <glyph glyph-name="afii57395" unicode="&#x663;" horiz-adv-x="1492" 
d="M480 774q34 -257 34 -495v-267h-179v270q0 641 -190 1026l164 58l110 -314q43 -123 192 -124q159 -1 153 257l-2 117l158 5l4 -145q6 -240 157 -241q69 -1 98.5 64.5t30.5 252.5v133h177l-1 -130q0 -59 -7 -147q-29 -358 -292 -356q-150 1 -250 116q-95 -117 -203.5 -117
t-153.5 37z" />
    <glyph glyph-name="afii57396" unicode="&#x664;" horiz-adv-x="1244" 
d="M1083 1330l-43 -172q-77 31 -160 31q-103 0 -173 -51q-116 -87 -130 -221q-5 -45 80 -89q71 -37 196 -37q140 0 262 50l23 -175q-124 -55 -264 -55h-1q-276 1 -396 145l2 -11q35 -246 35 -466v-267h-179v270q0 641 -190 1026l165 58q55 -160 122 -359l15 50
q44 146 149 233q108 90 259 89q121 0 228 -49z" />
    <glyph glyph-name="afii57397" unicode="&#x665;" horiz-adv-x="1288" 
d="M284 339q0 -141 94 -141q149 0 212 295l124 -1q50 -298 185 -298q105 0 105 146q0 324 -375 701q-345 -455 -345 -702zM363 12q-254 0 -254 327q0 314 385 831l1 2l-2 2l-54 50l124 152l126 -119q491 -482 490 -908q0 -337 -265 -337q-186 0 -262 211q-71 -211 -289 -211
z" />
    <glyph glyph-name="afii57398" unicode="&#x666;" horiz-adv-x="1104" 
d="M752 1175q-52 5 -114 5q-192 0 -269 -87q-57 -64 -57 -139q0 -211 374 -212l1 1q201 109 284 143l11 -190q-449 -202 -664 -724l-169 56q123 308 376 558q-399 38 -397 373q0 94 38 173q117 236 440 234q80 0 172 -14z" />
    <glyph glyph-name="afii57399" unicode="&#x667;" horiz-adv-x="1281" 
d="M1183 1280q-323 -647 -459 -1268h-167q-137 622 -459 1268l169 86q271 -583 373 -1039q103 457 374 1039z" />
    <glyph glyph-name="afii57400" unicode="&#x668;" horiz-adv-x="1281" 
d="M1183 77l-169 -85q-271 581 -374 1038q-102 -455 -373 -1038l-169 85q322 646 459 1269h167q136 -622 459 -1269z" />
    <glyph glyph-name="afii57401" unicode="&#x669;" horiz-adv-x="1139" 
d="M500 573q-388 0 -388 343q0 145 70 258q122 196 333 196q369 0 394 -499q23 -452 33 -859h-172l-14 621q-120 -60 -256 -60v0zM503 755q106 0 235 64l-2 23q-28 337 -212 337q-113 0 -178 -89q-59 -80 -59 -165q0 -170 216 -170z" />
    <glyph glyph-name="afii57381" unicode="&#x66a;" horiz-adv-x="1288" 
d="M750 345q0 70 50 119q49 49 118 50q36 0 65.5 -12.5t53.5 -37.5q25 -24 37.5 -54t12.5 -65q0 -70 -49.5 -119t-119 -49t-119.5 49q-49 49 -49 119zM201 1199q0 70 50 119q49 49 119 50q70 0 119 -50q49 -49 49 -119t-49 -119q-25 -24 -54 -36q-30 -13 -65 -13
q-70 0 -119 49q-50 49 -50 119zM873 1407l153 -79l-671 -1294l-153 84z" />
    <glyph glyph-name="uni066B" unicode="&#x66b;" horiz-adv-x="822" 
d="M533 818l131 -56l-464 -1071l-134 58z" />
    <glyph glyph-name="uni066C" unicode="&#x66c;" horiz-adv-x="588" 
d="M147 141q1 48 19 80q36 65 125 65q146 1 173 -128q14 -68 -12 -167q-59 -224 -263 -392l-72 33q195 176 207 368h-3h-7q-28 -1 -47 3q-122 25 -120 138z" />
    <glyph glyph-name="afii63167" unicode="&#x66d;" horiz-adv-x="1584" 
d="M239 1035h424h2h1l1 1v2l133 404l133 -404v-2l1 -1h1h2h424l-342 -251l-2 -1l-1 -1v-1l1 -2l131 -403l-345 249l-2 2l-1 1l-1 -1l-2 -2l-345 -249l131 403l1 2v1l-1 1l-2 1z" />
    <glyph glyph-name="uni066E" unicode="&#x66e;" horiz-adv-x="1747" 
d="M271 483q2 -303 595 -303q630 1 620 303q-2 78 -31 184l158 30q40 -120 40 -209q-1 -488 -789 -488h-3q-754 0 -755 464q0 99 27 221l156 -30q-18 -86 -18 -172z" />
    <glyph glyph-name="uni066F" unicode="&#x66f;" horiz-adv-x="1393" 
d="M694 -229q391 1 429 306l-81 1q-400 2 -399 299q0 115 48 205q90 169 262 169q218 0 292 -212q49 -138 49 -378q0 -164 -59 -290q-129 -272 -554 -272q-181 0 -320 72q-257 133 -256 495q0 158 65 347l159 -45q-54 -168 -54 -300q0 -398 419 -397zM1125 253
q-20 318 -172 318q-84 0 -125 -84q-22 -44 -22 -97q0 -134 236 -139q41 0 81 -1h3z" />
    <glyph glyph-name="uni0670" unicode="&#x670;" 
d="M595 1568v368h84v-368h-84z" />
    <glyph glyph-name="uni0674" unicode="&#x674;" horiz-adv-x="711" 
d="M256 1990q-93 72 -93 179q0 87 58 149q69 72 176 72q47 0 89.5 -10.5t79.5 -31.5l1 -127q-92 40 -156 40q-32 0 -56.5 -8.5t-41.5 -26.5q-29 -29 -29 -70q1 -38 30 -67t86 -49q12 -4 25 -3q49 6 168 27v-131l-433 -97v129l95 22h4z" />
    <glyph glyph-name="afii57506" unicode="&#x67e;" horiz-adv-x="1747" 
d="M271 483q2 -303 595 -303q630 1 620 303q-2 78 -31 184l158 30q40 -120 40 -209q-1 -488 -789 -488h-3q-754 0 -755 464q0 99 27 221l156 -30q-18 -86 -18 -172zM786.674 -537.974l131.603 131.604l131.604 -131.604l-131.604 -131.604zM938.605 -290.816
l131.604 131.604l131.604 -130.533l-131.604 -132.674zM634.741 -290.816l131.604 131.604l131.603 -130.533l-131.603 -132.674z" />
    <glyph glyph-name="afii57507" unicode="&#x686;" horiz-adv-x="1306" 
d="M794 535q-289 117 -365 117q-95 0 -221 -148l-126 106q152 220 333 220q90 0 407 -128q227 -92 377 -101l-16 -174q-175 -11 -291 -37q-609 -143 -609 -511q0 -351 533 -351q191 0 370 85v-184q-152 -72 -384 -72q-487 0 -632 276q-53 100 -53 230q0 522 677 672z
M661.674 -193.974l131.603 131.604l131.604 -131.604l-131.604 -131.604zM813.605 53.1836l131.604 131.604l131.604 -130.533l-131.604 -132.674zM509.741 53.1836l131.604 131.604l131.603 -130.533l-131.603 -132.674z" />
    <glyph glyph-name="afii57508" unicode="&#x698;" horiz-adv-x="820" 
d="M545 160q0 148 -92 281l147 78q111 -165 111 -358q0 -560 -681 -627l-29 164q544 44 544 462zM341.674 1064.03l131.603 131.604l131.604 -132.674l-131.604 -131.604zM493.605 816.875l131.604 131.604l131.604 -132.673l-131.604 -131.604zM189.741 816.875
l131.604 131.604l131.603 -132.673l-131.603 -131.604z" />
    <glyph glyph-name="uni06A1" unicode="&#x6a1;" horiz-adv-x="1761" 
d="M1480 530q-20 318 -173 318q-67 0 -107 -55q-39 -54 -39 -125q0 -135 235 -139q42 -1 82 -1h2v2zM1094 0h-243q-744 0 -745 464q0 99 27 221l156 -30q-18 -86 -18 -172q2 -303 571 -303h263q362 0 373 175h-81q-400 3 -399 300q0 153 86 264q85 109 244 109
q198 0 272 -211q50 -141 50 -335q0 -189 -61 -285q-124 -197 -495 -197z" />
    <glyph glyph-name="uni06A9" unicode="&#x6a9;" horiz-adv-x="1810" 
d="M271 483q2 -303 572 -303h242q343 0 346 203q1 96 -81 178q-49 49 -300 244q-110 85 -110 177q0 62 37 111q30 39 102 69l670 277v-180l-654 -272l345 -281q159 -130 156 -328q-5 -378 -510 -378h-243q-737 0 -737 464q0 99 27 221l156 -30q-18 -86 -18 -172z" />
    <glyph glyph-name="uni06AF" unicode="&#x6af;" horiz-adv-x="1821" 
d="M271 483q2 -303 572 -303h242q343 0 346 203q1 96 -81 178q-49 49 -300 244q-110 85 -110 177q0 62 37 111q30 39 102 69l670 277v-180l-654 -272l345 -281q159 -130 156 -328q-5 -378 -510 -378h-243q-737 0 -737 464q0 99 27 221l156 -30q-18 -86 -18 -172z
M1742.81 1599.01l-756.452 -327.404v124.114l756.452 326.333v-123.043z" />
    <glyph glyph-name="afii57514" unicode="&#x6ba;" horiz-adv-x="1405" 
d="M1245 573q56 -169 56 -360q-1 -246 -102 -393q-151 -221 -518 -221q-181 0 -320 72q-257 133 -256 495q0 158 65 347l158 -45q-54 -168 -54 -300q1 -396 419 -397q265 -1 371 161q72 110 73 300q0 130 -59 301z" />
    <glyph glyph-name="uni06CA" unicode="&#x6ca;" horiz-adv-x="845" 
d="M434 1036l127 126l126 -127l-126 -126zM151 1036l126 126l127 -127l-127 -126zM687 532q56 -116 71 -269q6 -56 6 -108q0 -234 -117 -378q-166 -204 -560 -243l-29 164q439 34 520 302l-58 1q-430 6 -430 331q0 154 87 264q87 109 231 109q195 0 279 -173zM593 183
q-22 342 -186 342q-73 0 -115 -55q-39 -54 -39 -125q0 -161 266 -164h72h2v2z" />
    <glyph glyph-name="uni06CC" unicode="&#x6cc;" horiz-adv-x="1413" 
d="M702 -227q237 1 355 94q87 68 96 164q1 65 -90 66l-81 1q-237 3 -240 218q-3 244 186 369q138 92 377 97v-189q-259 -3 -353 -133q-40 -56 -39 -130q1 -50 63 -50h61q287 0 286 -212q-1 -169 -113 -288q-165 -177 -515 -178q-220 0 -366 85q-228 134 -227 462
q0 203 67 398l158 -45q-54 -180 -54 -351q0 -381 429 -378z" />
    <glyph glyph-name="afii57534" unicode="&#x6d5;" horiz-adv-x="942" 
d="M461 644q-191 -167 -191 -295q0 -168 205 -168q208 0 207 169q0 119 -219 294l-1 1zM393 927q456 -324 456 -583q0 -160 -116 -257q-99 -83 -257 -83q-142 0 -237 65q-134 91 -136 275q-1 188 222 415l-2 1l-30 22z" />
    <glyph glyph-name="uni06F0" unicode="&#x6f0;" horiz-adv-x="893" 
d="M309 543.5q0 -59.5 41 -100.5q21 -21 46.5 -31.5t56.5 -10.5q60 0 101 42q20 20 30.5 45.5t10.5 55t-10.5 54.5t-30.5 46q-41 41 -102 42q-30 -1 -55.5 -11.5t-46.5 -30.5q-41 -41 -41 -100.5zM224 767q23 24 48.5 41.5t53.5 28.5q56 24 121 24q43 0 82 -10.5t74.5 -31
t66.5 -52.5q46 -46 69.5 -102t23.5 -121q0 -130 -93 -223q-24 -23 -49.5 -40.5t-53 -29t-58 -17t-62.5 -5.5q-65 0 -121 23q-19 7 -36.5 17.5t-34 23.5t-31.5 28q-47 47 -70 102.5t-23 120.5t23 121t70 102z" />
    <glyph glyph-name="uni06F1" unicode="&#x6f1;" horiz-adv-x="716" 
d="M310 1366q204 -448 204 -1087v-267h-179v270q0 641 -190 1026z" />
    <glyph glyph-name="uni06F2" unicode="&#x6f2;" horiz-adv-x="1197" 
d="M480 772q34 -257 34 -493v-267h-179v270q0 641 -190 1026l164 58l102 -282q61 -172 274 -172q108 0 159 100t52 343l180 -1q-4 -371 -107.5 -500.5t-279.5 -128.5q-135 0 -209 47z" />
    <glyph glyph-name="uni06F3" unicode="&#x6f3;" horiz-adv-x="1492" 
d="M480 774q34 -257 34 -495v-267h-179v270q0 641 -190 1026l164 58l110 -314q43 -123 192 -124q159 -1 153 257l-2 117l158 5l4 -145q6 -240 157 -241q69 -1 98.5 64.5t30.5 252.5v133h177l-1 -130q0 -59 -7 -147q-29 -358 -292 -356q-150 1 -250 116q-95 -117 -203.5 -117
t-153.5 37z" />
    <glyph glyph-name="uni06F4" unicode="&#x6f4;" horiz-adv-x="1244" 
d="M1083 1330l-43 -172q-77 31 -160 31q-103 0 -173 -51q-116 -87 -130 -221q-5 -45 80 -89q71 -37 196 -37q140 0 262 50l23 -175q-124 -55 -264 -55h-1q-276 1 -396 145l2 -11q35 -246 35 -466v-267h-179v270q0 641 -190 1026l165 58q55 -160 122 -359l15 50
q44 146 149 233q108 90 259 89q121 0 228 -49z" />
    <glyph glyph-name="uni06F5" unicode="&#x6f5;" horiz-adv-x="1288" 
d="M284 339q0 -141 94 -141q149 0 212 295l124 -1q50 -298 185 -298q105 0 105 146q0 324 -375 701q-345 -455 -345 -702zM363 12q-254 0 -254 327q0 314 385 831l1 2l-2 2l-54 50l124 152l126 -119q491 -482 490 -908q0 -337 -265 -337q-186 0 -262 211q-71 -211 -289 -211
z" />
    <glyph glyph-name="uni06F6" unicode="&#x6f6;" horiz-adv-x="1104" 
d="M752 1175q-52 5 -114 5q-192 0 -269 -87q-57 -64 -57 -139q0 -211 374 -212l1 1q201 109 284 143l11 -190q-449 -202 -664 -724l-169 56q123 308 376 558q-399 38 -397 373q0 94 38 173q117 236 440 234q80 0 172 -14z" />
    <glyph glyph-name="uni06F7" unicode="&#x6f7;" horiz-adv-x="1281" 
d="M1183 1280q-323 -647 -459 -1268h-167q-137 622 -459 1268l169 86q271 -583 373 -1039q103 457 374 1039z" />
    <glyph glyph-name="uni06F8" unicode="&#x6f8;" horiz-adv-x="1281" 
d="M1183 77l-169 -85q-271 581 -374 1038q-102 -455 -373 -1038l-169 85q322 646 459 1269h167q136 -622 459 -1269z" />
    <glyph glyph-name="uni06F9" unicode="&#x6f9;" horiz-adv-x="1139" 
d="M500 573q-388 0 -388 343q0 145 70 258q122 196 333 196q369 0 394 -499q23 -452 33 -859h-172l-14 621q-120 -60 -256 -60v0zM503 755q106 0 235 64l-2 23q-28 337 -212 337q-113 0 -178 -89q-59 -80 -59 -165q0 -170 216 -170z" />
    <glyph glyph-name="uni2000" unicode="&#x2000;" horiz-adv-x="1044" 
 />
    <glyph glyph-name="uni2001" unicode="&#x2001;" horiz-adv-x="2089" 
 />
    <glyph glyph-name="uni2002" unicode="&#x2002;" horiz-adv-x="1044" 
 />
    <glyph glyph-name="uni2003" unicode="&#x2003;" horiz-adv-x="2089" 
 />
    <glyph glyph-name="uni2004" unicode="&#x2004;" horiz-adv-x="697" 
 />
    <glyph glyph-name="uni2005" unicode="&#x2005;" horiz-adv-x="522" 
 />
    <glyph glyph-name="uni2006" unicode="&#x2006;" horiz-adv-x="348" 
 />
    <glyph glyph-name="uni2007" unicode="&#x2007;" horiz-adv-x="1151" 
 />
    <glyph glyph-name="uni2008" unicode="&#x2008;" horiz-adv-x="560" 
 />
    <glyph glyph-name="uni2009" unicode="&#x2009;" horiz-adv-x="418" 
 />
    <glyph glyph-name="uni200A" unicode="&#x200a;" horiz-adv-x="209" 
 />
    <glyph glyph-name="uni200B" unicode="&#x200b;" 
 />
    <glyph glyph-name="afii61664" unicode="&#x200c;" 
 />
    <glyph glyph-name="afii301" unicode="&#x200d;" 
 />
    <glyph glyph-name="endash" unicode="&#x2013;" horiz-adv-x="1344" 
d="M1164.55 651h-1001.96v151h1001.96v-151z" />
    <glyph glyph-name="emdash" unicode="&#x2014;" horiz-adv-x="1599" 
d="M1480.78 651h-1335.98v151h1335.98v-151z" />
    <glyph glyph-name="uni2015" unicode="&#x2015;" horiz-adv-x="1599" 
d="M1480.78 651h-1335.98v151h1335.98v-151z" />
    <glyph glyph-name="underscoredbl" unicode="&#x2017;" horiz-adv-x="934" 
d="M929 -404h-916v151h916v-151zM929 -151h-916v151h916v-151z" />
    <glyph glyph-name="quoteleft" unicode="&#x2018;" horiz-adv-x="409" 
d="M96 1193q0 45 11.5 94.5t34 97.5t55 92t73.5 78l106 -72q-48 -66 -72 -135.5t-24 -151.5v-123h-184v120z" />
    <glyph glyph-name="quoteright" unicode="&#x2019;" horiz-adv-x="409" 
d="M327 1408q0 -46 -11.5 -95.5t-34 -97.5t-54.5 -91.5t-74 -77.5l-105 72q47 66 71.5 135.5t24.5 151.5v131h183v-128z" />
    <glyph glyph-name="quotesinglbase" unicode="&#x201a;" horiz-adv-x="407" 
d="M315 78q0 -45 -11.5 -94t-34 -97t-54.5 -92t-74 -78l-105 73q47 66 70.5 135.5t23.5 149.5v106h185v-103z" />
    <glyph glyph-name="quotereversed" unicode="&#x201b;" horiz-adv-x="410" 
d="M80 1408v128h183v-131q0 -82 24.5 -151.5t71.5 -135.5l-105 -72q-42 34 -74 77.5t-54.5 91.5t-34 97.5t-11.5 95.5z" />
    <glyph glyph-name="quotedblleft" unicode="&#x201c;" horiz-adv-x="724" 
d="M104 1193q0 45 11.5 94.5t34 97.5t55 92t73.5 78l106 -72q-48 -66 -72 -135.5t-24 -151.5v-123h-184v120zM419 1193q0 45 11.5 94.5t34 97.5t55 92t73.5 78l106 -72q-48 -66 -72 -135.5t-24 -151.5v-123h-184v120z" />
    <glyph glyph-name="quotedblright" unicode="&#x201d;" horiz-adv-x="731" 
d="M339 1408q0 -46 -11.5 -95.5t-34 -97.5t-54.5 -91.5t-74 -77.5l-105 72q47 66 71.5 135.5t24.5 151.5v131h183v-128zM646 1408q0 -46 -11.5 -95.5t-34 -97.5t-54.5 -91.5t-74 -77.5l-105 72q47 66 71.5 135.5t24.5 151.5v131h183v-128z" />
    <glyph glyph-name="quotedblbase" unicode="&#x201e;" horiz-adv-x="705" 
d="M315 78q0 -47 -11.5 -99t-34 -102t-54.5 -96t-74 -82l-105 72q47 71 70.5 144.5t23.5 159.5v171h185v-168zM612 78q0 -47 -11.5 -99t-34 -102t-55 -96t-74.5 -82l-105 72q47 71 70.5 144.5t23.5 159.5v171h186v-168z" />
    <glyph glyph-name="dagger" unicode="&#x2020;" horiz-adv-x="1129" 
d="M1060 929h-404v-929h-186v929h-400v153h400v374h186v-374h404v-153z" />
    <glyph glyph-name="daggerdbl" unicode="&#x2021;" horiz-adv-x="1167" 
d="M1076 0h-406v-416h-186v416h-397v151h397v778h-397v153h397v374h186v-374h406v-153h-406v-778h406v-151z" />
    <glyph glyph-name="bullet" unicode="&#x2022;" horiz-adv-x="690" 
d="M138 793q0 43 14.5 79.5t40.5 62.5t63.5 41t84.5 15q48 0 86 -15t64.5 -41t40.5 -62.5t14 -79.5v-61q0 -43 -14 -79t-40.5 -62.5t-64 -41t-85.5 -14.5q-47 0 -84.5 14.5t-64 41t-41 62.5t-14.5 79v61z" />
    <glyph glyph-name="uni2025" unicode="&#x2025;" horiz-adv-x="964" 
d="M159 138q0 56 39 95t94 39q28 0 51.5 -10t43 -29.5t29 -43t9.5 -51.5q0 -55 -39 -94t-94 -39q-48 0 -84 30q-7 6 -12.5 12t-10.5 12.5t-9 13.5t-7 14q-5 12 -7.5 25t-2.5 26zM596 138q0 56 39 95t94 39q28 0 51.5 -10t43 -29.5t29 -43t9.5 -51.5q0 -55 -39 -94t-94 -39
q-48 0 -84 30q-7 6 -12.5 12t-10.5 12.5t-9 13.5t-7 14q-5 12 -7.5 25t-2.5 26z" />
    <glyph glyph-name="ellipsis" unicode="&#x2026;" horiz-adv-x="1370" 
d="M159 138q0 56 39 95t94 39q28 0 51.5 -10t43 -29.5t29 -43t9.5 -51.5q0 -55 -39 -94t-94 -39q-48 0 -84 30q-7 6 -12.5 12t-10.5 12.5t-9 13.5t-7 14q-5 12 -7.5 25t-2.5 26zM596 138q0 56 39 95t94 39q28 0 51.5 -10t43 -29.5t29 -43t9.5 -51.5q0 -55 -39 -94t-94 -39
q-48 0 -84 30q-7 6 -12.5 12t-10.5 12.5t-9 13.5t-7 14q-5 12 -7.5 25t-2.5 26zM1011 138q0 56 39 95t94 39q28 0 51.5 -10t43 -29.5t29 -43t9.5 -51.5q0 -55 -39 -94t-94 -39q-48 0 -84 30q-7 6 -12.5 12t-10.5 12.5t-9 13.5t-7 14q-5 12 -7.5 25t-2.5 26z" />
    <glyph glyph-name="uni202F" unicode="&#x202f;" horiz-adv-x="126" 
 />
    <glyph glyph-name="perthousand" unicode="&#x2030;" horiz-adv-x="1962" 
d="M823 357q0 61 20.5 116t59.5 95.5t94 64.5t124 24q78 0 136 -33t94 -88q35 55 93 88t136 33q70 0 125.5 -24t94 -64.5t59 -95.5t20.5 -116v-78q0 -62 -20.5 -116.5t-58.5 -95t-93.5 -64.5t-124.5 -24q-78 0 -136.5 32.5t-94.5 87.5q-35 -55 -93 -87.5t-135 -32.5
q-70 0 -125.5 24t-94.5 64.5t-59.5 95t-20.5 116.5v78zM68 1176q0 62 20.5 116.5t59.5 95.5t94 65t124 24q70 0 125.5 -24t94 -65t59 -95.5t20.5 -116.5v-77q0 -61 -20.5 -115.5t-58.5 -95t-93 -64.5t-125 -24t-125.5 24t-94.5 64.5t-59.5 95t-20.5 115.5v77zM962 279
q0 -35 10 -67.5t30 -57.5t50 -40t71 -15q40 0 70 15t50 40t29.5 57.5t9.5 67.5v78q0 35 -10 67.5t-30 57.5t-50 40t-71 15q-40 0 -70 -15t-49.5 -40t-29.5 -57.5t-10 -67.5v-78zM1420 279q0 -35 10 -67.5t30 -57.5t50 -40t71 -15q40 0 70 15t49.5 40t29.5 57.5t10 67.5v78
q0 35 -10 67.5t-30 57.5t-50 40t-71 15q-40 0 -70 -15t-49.5 -40t-29.5 -57.5t-10 -67.5v-78zM207 1099q0 -35 10 -67t30 -57t50 -40t71 -15q40 0 70 15t50 39.5t29.5 57t9.5 67.5v77q0 35 -10 68t-30 58t-50 40t-71 15q-40 0 -70 -15t-49.5 -40t-29.5 -58t-10 -68v-77z
M429 110l-104 66l711 1138l104 -66z" />
    <glyph glyph-name="minute" unicode="&#x2032;" horiz-adv-x="357" 
d="M253 1425l-21 -368h-129l1 352v127h149v-111z" />
    <glyph glyph-name="second" unicode="&#x2033;" horiz-adv-x="655" 
d="M277 1400l-30 -358h-111l1 348v146h140v-136zM547 1400l-30 -358h-111l1 356v138h140v-136z" />
    <glyph glyph-name="guilsinglleft" unicode="&#x2039;" horiz-adv-x="614" 
d="M286 550l258 -397h-141l-295 388v19l295 389h141z" />
    <glyph glyph-name="guilsinglright" unicode="&#x203a;" horiz-adv-x="614" 
d="M231 949l295 -389v-19l-295 -389h-142l258 398l-258 399h142z" />
    <glyph glyph-name="exclamdbl" unicode="&#x203c;" horiz-adv-x="1054" 
d="M155 138q0 56 39 95t94 39q28 0 51.5 -10t43 -29.5t29 -43t9.5 -51.5q0 -55 -39 -94t-94 -39q-48 0 -84 30q-7 6 -12.5 12t-10.5 12.5t-9 13.5t-7 14q-5 12 -7.5 25t-2.5 26zM183 1402h214l-25 -903h-163zM682 138q0 56 39 95t94 39q28 0 51.5 -10t43 -29.5t29 -43
t9.5 -51.5q0 -55 -39 -94t-94 -39q-48 0 -84 30q-7 6 -12.5 12t-10.5 12.5t-9 13.5t-7 14q-5 12 -7.5 25t-2.5 26zM710 1402h214l-25 -903h-163z" />
    <glyph glyph-name="fraction" unicode="&#x2044;" horiz-adv-x="931" 
d="M163 110l-104 66l711 1138l104 -66z" />
    <glyph glyph-name="uni2074" unicode="&#x2074;" horiz-adv-x="751" 
d="M592 966h107v-130h-107v-169h-157v169h-375l-6 102l377 518h161v-490zM212 966h223v289l-17 -28z" />
    <glyph glyph-name="nsuperior" unicode="&#x207f;" horiz-adv-x="864" 
d="M250 1451l30 -123q35 65 91 101.5t129 36.5q60 0 108 -17.5t81.5 -55t52 -95.5t18.5 -139v-508h-170v476q0 54 -10.5 91.5t-29 60.5t-45 33t-59.5 10q-59 0 -96.5 -29.5t-57.5 -79.5v-562h-170v800h128z" />
    <glyph glyph-name="franc" unicode="&#x20a3;" horiz-adv-x="1132" 
d="M654 266h-636v151h636v-151zM972 643h-611v-643h-192v1456h902v-158h-710v-498h611v-157z" />
    <glyph glyph-name="lira" unicode="&#x20a4;" horiz-adv-x="1190" 
d="M789 470h-335l3 -68q0 -70 -15 -134t-47 -111h733l-1 -157h-1032v157h77q26 6 43.5 32.5t28.5 62.5t15.5 76t4.5 73l-3 69h-170v125h166l-4 136h-162v125h157l-6 183q0 103 33.5 184.5t93 137.5t141 85.5t177.5 29.5q97 0 174 -28.5t129.5 -79.5t80.5 -122.5t28 -158.5
h-191q0 63 -20 106.5t-53 71.5t-76 40.5t-89 12.5q-49 0 -92 -18.5t-74.5 -54t-50 -87.5t-18.5 -119l6 -183h348v-125h-343l4 -136h339v-125z" />
    <glyph glyph-name="peseta" unicode="&#x20a7;" horiz-adv-x="1681" 
d="M352 565v-565h-185v1456h378q124 0 211.5 -33.5t143.5 -93t82 -141t26 -177.5t-26 -178t-82 -141.5t-143.5 -93t-211.5 -33.5h-193zM352 717h193q87 0 141 25t84.5 65.5t41 93t10.5 108.5t-10.5 109t-41 94.5t-84.5 66.5t-141 25h-193v-587zM1331 1344v-262h202v-143
h-202v-671q0 -42 10 -67.5t26.5 -39.5t38 -18.5t44.5 -4.5t48.5 4.5t39.5 7.5v-150q-22 -6 -57 -13t-85 -7q-51 0 -96.5 14.5t-79.5 48.5t-54 89.5t-20 136.5v670h-197v143h197v262h185z" />
    <glyph glyph-name="uni20AB" unicode="&#x20ab;" horiz-adv-x="1185" 
d="M1196 1234h-636v151h636v-151zM95 550q0 124 30.5 225.5t86.5 174t134.5 112.5t175.5 40q99 0 173 -33.5t128 -96.5v564h185v-1536h-170l-9 116q-54 -66 -130 -101t-179 -35q-95 0 -173.5 41t-134.5 114.5t-86.5 174t-30.5 219.5v21zM280 529q0 -81 16.5 -152.5
t51.5 -124.5t89 -84t129 -31q49 0 88 11.5t70.5 32.5t56 50t42.5 64v497q-18 33 -42 61t-55.5 48.5t-70.5 32t-87 11.5q-76 0 -130.5 -31.5t-89.5 -85.5t-51.5 -125.5t-16.5 -152.5v-21zM1079 -307h-916v151h916v-151z" />
    <glyph glyph-name="Euro" unicode="&#x20ac;" horiz-adv-x="1150" 
d="M849 541h-384q2 -103 27.5 -179t71 -126.5t109 -75t141.5 -24.5q58 0 112.5 8.5t105.5 25.5l20 -160q-56 -14 -116.5 -22t-123.5 -8q-117 0 -215 35t-169 105t-111.5 175.5t-43.5 245.5h-178v124h178v137h-178v125h178q5 136 46 239t112 172t167.5 103.5t212.5 34.5
q63 0 121.5 -8.5t119.5 -22.5l-20 -162q-50 16 -105.5 25.5t-113.5 9.5q-77 0 -139.5 -23.5t-107.5 -72t-71 -122t-29 -173.5h383v-125h-384v-137h384v-124z" />
    <glyph glyph-name="uni2105" unicode="&#x2105;" horiz-adv-x="1512" 
d="M681 1054q0 -52 -19 -98.5t-54.5 -81t-87 -54.5t-115.5 -20q-65 0 -117.5 24t-89 64.5t-56 95t-19.5 115.5v77q0 62 19.5 116.5t56 95.5t88 65t116.5 24t116.5 -20.5t87.5 -55t55 -81.5t19 -99h-139q0 27 -8.5 51.5t-25.5 43t-43 30t-62 11.5q-35 0 -61.5 -15t-44 -40
t-26.5 -58t-9 -68v-77q0 -35 9 -67t27 -57t44.5 -40t62.5 -15q35 0 61 12t43 31.5t25 43t8 47.5h139zM814 357q0 61 20.5 116t59.5 95.5t94 64.5t124 24q70 0 125.5 -24t94 -64.5t59 -95.5t20.5 -116v-78q0 -62 -20.5 -116.5t-58.5 -95t-93.5 -64.5t-124.5 -24
q-70 0 -125.5 24t-94.5 64.5t-59.5 95t-20.5 116.5v78zM953 279q0 -35 10 -67.5t30 -57.5t50 -40t71 -15q40 0 70 15t50 40t29.5 57.5t9.5 67.5v78q0 35 -10 67.5t-30 57.5t-50 40t-71 15q-40 0 -70 -15t-49.5 -40t-29.5 -57.5t-10 -67.5v-78zM445 110l-104 66l711 1138
l104 -66z" />
    <glyph glyph-name="uni2113" unicode="&#x2113;" horiz-adv-x="974" 
d="M716 -21q-102 0 -178 32t-126.5 91.5t-75 143t-24.5 185.5v17q-49 -14 -100.5 -21t-107.5 -7v176q58 0 110 9t98 26v545q0 89 20 159.5t58 119t91.5 74.5t121.5 26q59 0 108.5 -22t85.5 -62.5t56.5 -99.5t20.5 -132v-41q0 -89 -24.5 -183.5t-72.5 -183.5t-118.5 -167
t-161.5 -135v-98q0 -69 11 -123.5t36.5 -92.5t67.5 -58.5t104 -20.5v-157zM497 747q49 47 85.5 103.5t60 115.5t35 118t11.5 112v43q0 82 -24 120t-62 38q-106 0 -106 -221v-429z" />
    <glyph glyph-name="uni2116" unicode="&#x2116;" horiz-adv-x="2106" 
d="M1956 412h-615v142h615v-142zM1305 1127q0 77 24 140.5t68.5 109t107.5 70.5t142 25q80 0 143.5 -25t108 -70.5t68 -109t23.5 -140.5v-98q0 -77 -23.5 -140.5t-68 -108.5t-107.5 -69.5t-142 -24.5q-80 0 -143.5 24.5t-108 69.5t-68.5 108.5t-24 140.5v98zM1468 1029
q0 -46 11 -83.5t33.5 -64.5t56.5 -42t80 -15q45 0 78.5 15t55.5 42t33 64.5t11 83.5v98q0 45 -11 82.5t-33.5 64.5t-56 42t-79.5 15q-45 0 -78.5 -15t-56 -42t-33.5 -64.5t-11 -82.5v-98zM1144 0h-204l-593 1134v-1134h-185v1456h203l596 -1137v1137h183v-1456z" />
    <glyph glyph-name="trademark" unicode="&#x2122;" horiz-adv-x="1281" 
d="M990 1313l-140 -394h-52l-140 393v-393h-90v537h112l144 -399l144 399h112v-537h-90v394zM489 1375h-147v-456h-91v456h-148v81h386v-81z" />
    <glyph glyph-name="estimated" unicode="&#x212e;" horiz-adv-x="1303" 
d="M1046 94q-85 -53 -178 -83.5t-192 -30.5q-72 0 -139.5 20t-125.5 57t-106 88t-82 113.5t-52.5 134t-18.5 148.5t20.5 148.5t57 134t86 113.5t108 88t122.5 57t130 20q103 0 193 -41t157 -113t106 -171t39 -216v-47h-768v-328q55 -51 125 -80.5t148 -29.5q94 0 186.5 29.5
t181.5 92.5zM676 1008q-75 0 -145.5 -32.5t-127.5 -89.5v-277h540v286q-53 52 -121.5 82.5t-145.5 30.5z" />
    <glyph glyph-name="oneeighth" unicode="&#x215b;" horiz-adv-x="1574" 
d="M1439 579q0 -58 -31.5 -102.5t-87.5 -70.5q64 -27 101.5 -75.5t37.5 -114.5q0 -57 -22.5 -99.5t-62.5 -71t-94 -42.5t-117 -14t-117 14t-94 42.5t-62.5 71t-22.5 99.5q0 66 37 114.5t101 75.5q-56 26 -87.5 70.5t-31.5 102.5q0 54 20.5 95t57.5 69t87.5 42.5t110.5 14.5
t111 -14.5t88 -42.5t57.5 -69t20.5 -95zM1302 228q0 52 -39 81t-101 29q-63 0 -100.5 -29t-37.5 -81q0 -53 38 -82t101 -29t101 29t38 82zM1282 570q0 46 -32 73.5t-88 27.5q-55 0 -86.5 -26.5t-31.5 -74.5q0 -46 31.5 -74t87.5 -28t87.5 28t31.5 74zM457 646h-157v601
l-216 -57v128l355 117h18v-789zM393 110l-104 66l711 1138l104 -66z" />
    <glyph glyph-name="threeeighths" unicode="&#x215c;" horiz-adv-x="1751" 
d="M1599 579q0 -58 -31.5 -102.5t-87.5 -70.5q64 -27 101.5 -75.5t37.5 -114.5q0 -57 -22.5 -99.5t-62.5 -71t-94 -42.5t-117 -14t-117 14t-94 42.5t-62.5 71t-22.5 99.5q0 66 37 114.5t101 75.5q-56 26 -87.5 70.5t-31.5 102.5q0 54 20.5 95t57.5 69t87.5 42.5t110.5 14.5
t111 -14.5t88 -42.5t57.5 -69t20.5 -95zM1462 228q0 52 -39 81t-101 29q-63 0 -100.5 -29t-37.5 -81q0 -53 38 -82t101 -29t101 29t38 82zM1442 570q0 46 -32 73.5t-88 27.5q-55 0 -86.5 -26.5t-31.5 -74.5q0 -46 31.5 -74t87.5 -28t87.5 28t31.5 74zM303 1119h84
q74 0 110 30.5t36 78.5q0 45 -31.5 74t-101.5 29q-28 0 -52 -6.5t-42 -18.5t-28 -29t-10 -38h-157q0 51 22 91.5t61 69.5t91.5 44.5t112.5 15.5q65 0 119 -14.5t92.5 -43t60 -70.5t21.5 -97t-35 -100.5t-101 -70.5q77 -21 113 -68t36 -116q0 -56 -23.5 -99t-64.5 -72
t-97 -44.5t-121 -15.5q-56 0 -109.5 13.5t-95.5 42t-67.5 72.5t-25.5 105h158q0 -45 39.5 -75t106.5 -30q70 0 106.5 30t36.5 81q0 62 -43.5 88.5t-116.5 26.5h-84v116zM584 110l-104 66l711 1138l104 -66z" />
    <glyph glyph-name="fiveeighths" unicode="&#x215d;" horiz-adv-x="1743" 
d="M1589 579q0 -58 -31.5 -102.5t-87.5 -70.5q64 -27 101.5 -75.5t37.5 -114.5q0 -57 -22.5 -99.5t-62.5 -71t-94 -42.5t-117 -14t-117 14t-94 42.5t-62.5 71t-22.5 99.5q0 66 37 114.5t101 75.5q-56 26 -87.5 70.5t-31.5 102.5q0 54 20.5 95t57.5 69t87.5 42.5t110.5 14.5
t111 -14.5t88 -42.5t57.5 -69t20.5 -95zM1452 228q0 52 -39 81t-101 29q-63 0 -100.5 -29t-37.5 -81q0 -53 38 -82t101 -29t101 29t38 82zM1432 570q0 46 -32 73.5t-88 27.5q-55 0 -86.5 -26.5t-31.5 -74.5q0 -46 31.5 -74t87.5 -28t87.5 28t31.5 74zM120 1042l50 402h478
v-132h-349l-22 -170q18 8 55.5 18.5t83.5 10.5q128 0 199.5 -68.5t71.5 -189.5q0 -54 -17.5 -103t-54 -85.5t-92 -58.5t-130.5 -22q-56 0 -107.5 15t-92 44t-66 71.5t-28.5 96.5h155q5 -52 42.5 -75.5t96.5 -23.5q36 0 62 11t42.5 30t24.5 45t8 57q0 62 -39 100.5t-113 38.5
q-27 0 -47 -4t-35.5 -10t-27 -13.5t-22.5 -15.5zM550 110l-104 66l711 1138l104 -66z" />
    <glyph glyph-name="seveneighths" unicode="&#x215e;" horiz-adv-x="1642" 
d="M1513 579q0 -58 -31.5 -102.5t-87.5 -70.5q64 -27 101.5 -75.5t37.5 -114.5q0 -57 -22.5 -99.5t-62.5 -71t-94 -42.5t-117 -14t-117 14t-94 42.5t-62.5 71t-22.5 99.5q0 66 37 114.5t101 75.5q-56 26 -87.5 70.5t-31.5 102.5q0 54 20.5 95t57.5 69t87.5 42.5t110.5 14.5
t111 -14.5t88 -42.5t57.5 -69t20.5 -95zM1376 228q0 52 -39 81t-101 29q-63 0 -100.5 -29t-37.5 -81q0 -53 38 -82t101 -29t101 29t38 82zM1356 570q0 46 -32 73.5t-88 27.5q-55 0 -86.5 -26.5t-31.5 -74.5q0 -46 31.5 -74t87.5 -28t87.5 28t31.5 74zM708 1354l-349 -699
h-166l349 659h-453v130h619v-90zM451 110l-104 66l711 1138l104 -66z" />
    <glyph glyph-name="partialdiff" unicode="&#x2202;" horiz-adv-x="1167" 
d="M572 1022q93 0 176 -38.5t141 -106.5q-11 110 -45 198.5t-85 150.5t-115.5 95.5t-135.5 33.5q-80 0 -146.5 -16t-137.5 -43l-16 151q27 12 57.5 24.5t68 22t84 16t106.5 6.5q138 0 241 -59t171.5 -167t103 -261t34.5 -340v-59q0 -138 -33 -257t-95.5 -206.5t-153 -137.5
t-204.5 -50t-203.5 40t-151.5 111t-94.5 167.5t-32.5 209.5v23q0 105 31.5 195t91.5 156t146.5 103.5t196.5 37.5zM590 870q-77 0 -133.5 -27.5t-93 -74.5t-54.5 -108.5t-18 -129.5v-23q0 -76 18 -144.5t54.5 -120t92.5 -82t132 -30.5q78 0 134.5 36t93.5 98.5t55 147
t18 181.5v66q-5 25 -23.5 61.5t-54 69.5t-90 56.5t-131.5 23.5z" />
    <glyph glyph-name="product" unicode="&#x220f;" horiz-adv-x="1422" 
d="M1253 -213h-185v1517h-714v-1517h-185v1669h1084v-1669z" />
    <glyph glyph-name="summation" unicode="&#x2211;" horiz-adv-x="1199" 
d="M875 577l-581 -694h901v-152h-1126v143l609 716l-609 722v144h1049v-152h-825l582 -702v-25z" />
    <glyph glyph-name="minus" unicode="&#x2212;" horiz-adv-x="1170" 
d="M1003 651h-835v151h835v-151z" />
    <glyph glyph-name="radical" unicode="&#x221a;" horiz-adv-x="1221" 
d="M560 284l427 1172h189l-542 -1456h-141l-245 628h-185v154h315z" />
    <glyph glyph-name="infinity" unicode="&#x221e;" horiz-adv-x="2106" 
d="M1995 527q0 -109 -35 -208.5t-98.5 -175t-153.5 -120t-199 -44.5q-93 0 -166.5 33.5t-129.5 85.5t-97.5 116t-69.5 126q-28 -62 -69 -126t-97 -116t-129 -85.5t-166 -33.5q-110 0 -200 44.5t-153.5 120t-98.5 175t-35 208.5v26q0 109 35 208.5t98.5 175t153 120.5
t198.5 45q93 0 166.5 -33.5t130 -86t97.5 -116.5t69 -126q28 62 69.5 126t98 116.5t130.5 86t167 33.5q109 0 198 -45t152.5 -120.5t98.5 -175t35 -208.5v-26zM283 527q0 -81 19.5 -153.5t58 -126.5t94.5 -85.5t130 -31.5q59 0 107.5 23t87 59t67.5 80.5t49.5 88t33 80.5
t17.5 59v42q-5 21 -17.5 57.5t-33 80t-50 88t-68 80.5t-87.5 59t-108 23q-73 0 -129 -32t-94 -86t-57.5 -126t-19.5 -153v-26zM1810 553q0 81 -20 153t-58 126t-93.5 86t-127.5 32q-60 0 -108.5 -23t-87.5 -59t-68.5 -80.5t-50 -88t-33 -80t-17.5 -57.5v-42q5 -22 17.5 -59
t33 -80.5t50 -88t68 -80.5t87 -59t107.5 -23q72 0 128.5 31.5t94.5 85.5t58 126.5t20 153.5v26z" />
    <glyph glyph-name="integral" unicode="&#x222b;" horiz-adv-x="524" 
d="M357 -107q0 -84 -22 -146.5t-63.5 -103t-101 -60.5t-135.5 -20q-30 0 -58 5t-57 15l18 145q7 -2 17.5 -4.5t21.5 -4.5t21.5 -3t18.5 -1q74 0 114.5 42.5t40.5 135.5v1305q0 87 23.5 154t67 112.5t106 69t141.5 23.5q37 0 72.5 -6t71.5 -15l-24 -142q-17 5 -39.5 8
t-51.5 3q-89 0 -135.5 -54.5t-46.5 -152.5v-1305v0z" />
    <glyph glyph-name="approxequal" unicode="&#x2248;" horiz-adv-x="1154" 
d="M102 901q48 51 113.5 80t131.5 29q40 1 69.5 -4.5t55.5 -15.5t51.5 -23.5t57.5 -29.5q30 -15 53.5 -27.5t48 -22t52 -14.5t64.5 -5q66 0 127 34t109 94v-190q-48 -51 -109 -80t-127 -29q-37 0 -64.5 5t-52 14.5t-48 22t-53.5 27.5q-32 16 -57.5 30t-51.5 24t-55.5 15.5
t-69.5 4.5q-66 0 -131.5 -34t-113.5 -94v189zM101 483q48 51 113 80.5t131 29.5q40 1 69.5 -4.5t55.5 -15.5t51.5 -23.5t57.5 -29.5q30 -15 54 -28t48 -22t52 -14.5t65 -5.5q66 0 126.5 34t108.5 94l1 -189q-48 -51 -109 -80t-127 -29q-37 0 -64.5 5t-52 14.5t-48 22
t-53.5 27.5q-32 16 -57.5 29.5t-51.5 23.5t-55.5 15.5t-69.5 4.5q-66 0 -131.5 -34t-113.5 -94v189z" />
    <glyph glyph-name="notequal" unicode="&#x2260;" horiz-adv-x="1124" 
d="M986 399h-531l-141 -243l-95 59l107 184h-174v160h268l149 255h-417v161h511l153 262l94 -59l-119 -203h195v-161h-289l-148 -255h437v-160z" />
    <glyph glyph-name="lessequal" unicode="&#x2264;" horiz-adv-x="1041" 
d="M264 676.576l626 -227.69v-176.393l-818 341.086v131.395l818 340.187v-176.394zM897 2h-835v151h835v-151z" />
    <glyph glyph-name="greaterequal" unicode="&#x2265;" horiz-adv-x="1071" 
d="M795 699.977l-661 233.09v170.993l854 -340.186v-131.396l-854 -341.086v172.793zM968 1h-835v151h835v-151z" />
    <glyph glyph-name="lozenge" unicode="&#x25ca;" horiz-adv-x="1032" 
d="M444 1456h140l404 -729l-400 -727h-141l-404 727zM513 1254l-279 -527l284 -526l280 526z" />
    <glyph glyph-name="colon.lnum" unicode="&#xee01;" horiz-adv-x="588" 
d="M192 316q0 56 39 95t94 39q28 0 51.5 -10t43 -29.5t29 -43t9.5 -51.5q0 -55 -39 -94t-94 -39q-48 0 -84 30q-7 6 -12.5 12t-10.5 12.5t-9 13.5t-7 14q-5 12 -7.5 25t-2.5 26zM192 1198q0 56 39 95t94 39q28 0 51.5 -10t43 -29.5t29 -43t9.5 -51.5q0 -55 -39 -94t-94 -39
q-48 0 -84 30q-7 6 -12.5 12t-10.5 12.5t-9 13.5t-7 14q-5 12 -7.5 25t-2.5 26z" />
    <glyph glyph-name="quotedblx" unicode="&#xee02;" horiz-adv-x="655" 
d="M251 633h-141v449h141v-449zM563 633h-141v449h141v-449z" />
    <glyph glyph-name="commaaccent" unicode="&#xf6c3;" horiz-adv-x="515" 
d="M343 160q0 -40 -9 -83.5t-27 -86.5t-45.5 -82t-64.5 -69l-105 72q38 58 56 117.5t18 128.5v82h177v-79z" />
    <glyph glyph-name="uniFB02" unicode="&#xfb02;" horiz-adv-x="1208" 
d="M231 0v939h-171v143h171v114q0 87 24.5 154.5t70.5 113.5t112 69.5t149 23.5q64 0 127 -17l-10 -150q-21 4 -47.5 6.5t-52.5 2.5q-90 0 -139 -52.5t-49 -150.5v-114h231v-143h-231v-939h-185zM1052 0h-185v1536h185v-1536z" />
    <glyph glyph-name="uniFB03" unicode="&#xfb03;" horiz-adv-x="1845" 
d="M231 0v939h-171v143h171v114q0 87 24.5 154.5t70.5 113.5t112 69.5t149 23.5q64 0 127 -17l-10 -150q-21 4 -47.5 6.5t-52.5 2.5q-90 0 -139 -52.5t-49 -150.5v-114h231v-143h-231v-939h-185zM913 0v939h-171v143h171v94q0 92 27.5 163t78.5 119.5t124.5 73.5t165.5 25
q73 0 141.5 -17.5t141.5 -43.5l-31 -156q-45 18 -105.5 34t-132.5 16q-119 0 -171.5 -53.5t-52.5 -160.5v-94h221v-143h-221v-939h-186zM1684 0h-186v1082h186v-1082z" />
    <glyph glyph-name="uniFB04" unicode="&#xfb04;" horiz-adv-x="1919" 
d="M231 0v939h-171v143h171v114q0 87 24.5 154.5t70.5 113.5t112 69.5t149 23.5q64 0 127 -17l-10 -150q-21 4 -47.5 6.5t-52.5 2.5q-90 0 -139 -52.5t-49 -150.5v-114h231v-143h-231v-939h-185zM942 0v939h-171v143h171v114q0 87 24.5 154.5t70.5 113.5t112 69.5t149 23.5
q64 0 127 -17l-10 -150q-21 4 -47.5 6.5t-52.5 2.5q-90 0 -139 -52.5t-49 -150.5v-114h231v-143h-231v-939h-185zM1763 0h-185v1536h185v-1536z" />
    <glyph glyph-name="uniFE73" unicode="&#xfe73;" horiz-adv-x="662" 
d="M288 444q0 -139 127 -213q73 -43 193 -43h69v-186h-149q-190 0 -308 118t-118 307v22h186v-5z" />
    <glyph glyph-name="uniFEFF" unicode="&#xfeff;" 
 />
    <glyph glyph-name="uniFFFC" unicode="&#xfffc;" horiz-adv-x="2099" 
d="M825 468q0 -49 -16.5 -89t-47 -69t-72.5 -45t-93 -16q-52 0 -94.5 16t-73 45t-47.5 69t-17 89v112q0 48 17 88.5t47 69.5t72.5 45t93.5 16t93.5 -16t73 -45t47.5 -69.5t17 -88.5v-112zM892 252v549h188q98 0 155 -36.5t57 -113.5q0 -38 -21 -69t-63 -47q50 -13 76 -48
t26 -80q0 -77 -52.5 -116t-144.5 -39h-221zM733 580q0 69 -37 108t-102 39q-64 0 -101 -39t-37 -108v-112q0 -69 37 -108t103 -39q64 0 100.5 39t36.5 108v112zM1687 803h92v-378q0 -40 -14 -71.5t-39 -53.5t-59.5 -34t-74.5 -12q-88 0 -142.5 40.5t-54.5 123.5h93
q0 -47 28 -69t76 -22q41 0 68 27t27 71v378zM91 -398v315h113v-202h196v-113h-309zM1720 -398v113h199v202h111v-315h-310zM91 1169v285h309v-116h-196v-169h-113zM1720 1338v116h310v-285h-111v169h-199zM987 496v-169h126q52 0 77.5 22t25.5 61q0 38 -24.5 61t-73.5 25h-5
h-126zM1321 1338v116h278v-116h-278zM922 1338v116h277v-116h-277zM523 1338v116h276v-116h-276zM1321 -398v113h278v-113h-278zM922 -398v113h277v-113h-277zM523 -398v113h276v-113h-276zM987 566h93q118 0 118 80q0 41 -29 56t-89 15h-93v-151zM204 416h-113v252h113
v-252zM204 794h-113v250h113v-250zM204 41h-113v249h113v-249zM2030 416h-111v252h111v-252zM2030 794h-111v250h111v-250zM2030 41h-111v249h111v-249z" />
    <glyph glyph-name="uniFFFD" unicode="&#xfffd;" horiz-adv-x="2101" 
d="M1048 1618l959 -975l-959 -975l-956 975zM1131 402q0 25 2.5 45t10 36.5t20 30.5t33.5 28q34 18 64 44t52.5 57.5t36 68.5t13.5 78q0 64 -21.5 115.5t-62 88t-99.5 56t-133 19.5q-64 0 -119 -15t-96.5 -47.5t-65.5 -83t-25 -120.5h203q1 27 9.5 46.5t23 32t32.5 18.5
t38 6q57 0 85 -32t28 -84t-26.5 -90.5t-66.5 -64.5q-35 -25 -61 -46.5t-43 -47t-25.5 -58.5t-8.5 -81h202zM1131 311h-202v-170h202v170zM1056 -551h4v-4h-4v4zM1054 2163h4v-4h-4v4z" />
    <glyph glyph-name="arabic_dot" horiz-adv-x="193" 
d="M-30 103l126 126l127 -127l-126 -126z" />
    <glyph glyph-name="arabic_2dots" horiz-adv-x="494" 
d="M262 103l127 126l126 -127l-126 -126zM-21 103l126 126l127 -127l-127 -126z" />
    <glyph glyph-name="arabic_3dots" horiz-adv-x="494" 
d="M124 315l123 123l123 -124l-123 -123zM266 84l123 123l123 -124l-123 -123zM-18 84l123 123l123 -124l-123 -123z" />
    <glyph glyph-name="arabic_3dots_a" horiz-adv-x="494" 
d="M124 -114l123 123l123 -123l-123 -123zM266 117l123 123l123 -122l-123 -124zM-18 117l123 123l123 -122l-123 -124z" />
    <glyph glyph-name="arabic_gaf_bar" horiz-adv-x="751" 
d="M755 1873l-707 -306v116l707 305v-115z" />
    <glyph glyph-name="NameMe.302" horiz-adv-x="645" 
d="M331 134q-92 -134 -309 -134h-29q-56 0 -56 86v19q0 75 56 75h31q234 0 234 253v709h169v-709q0 -253 205 -253h11q29 0 29 -75v-19q0 -86 -29 -86h-8q-209 0 -304 134z" />
    <glyph glyph-name="NameMe.303" horiz-adv-x="564" 
d="M-7 0q-56 0 -56 86v19q0 75 56 75h58q202 0 202 217v908h166v-914q0 -391 -374 -391h-52z" />
    <glyph glyph-name="NameMe.65564" horiz-adv-x="531" 
d="M557 86q1 -86 -18 -86h-21q-352 0 -352 436v820h166v-818q0 -258 189 -258h18q18 0 18 -75v-19z" />
    <glyph glyph-name="NameMe.65565" horiz-adv-x="722" 
d="M119 -285q60 -13 114 -13q133 0 187 46q54 47 54 92q0 14 -10 20q-10 7 -29 8l-100 2q-105 3 -105 119q0 137 114 210q88 56 244 57l-9 -122q-226 -6 -243 -133l-1 -10v-2h2l111 -4q114 -3 136 -100q5 -23 5 -45q0 -100 -102 -184q-92 -76 -261 -74q-20 0 -40.5 1
t-41.5 4q-22 2 -43 6z" />
    <glyph glyph-name="NameMe.65541" horiz-adv-x="589" 
d="M79 0h-86q-56 0 -56 86v19q0 75 56 75h96q231 0 231 279q0 106 -28 227l163 30q27 -137 27 -253q0 -463 -403 -463z" />
    <glyph glyph-name="NameMe.65542" horiz-adv-x="627" 
d="M373 133q-94 -133 -297 -133h-84q-55 0 -55 86v19q0 75 55 75h79q206 0 221 194l14 197h121l15 -200q15 -191 185 -191h8q18 0 18 -84v-10q0 -86 -18 -86h-10q-182 0 -252 133z" />
    <glyph glyph-name="zero.sup" horiz-adv-x="751" 
d="M669 325q0 -86 -21 -149t-59 -104.5t-92.5 -62t-120.5 -20.5t-120.5 20.5t-93.5 62t-60.5 104.5t-21.5 149v138q0 85 21 148.5t60 105.5t93 62.5t120 20.5q67 0 121.5 -20.5t93 -62.5t59.5 -105.5t21 -148.5v-138zM512 478q0 100 -35.5 146t-102.5 46q-66 0 -101.5 -46
t-35.5 -146v-167q0 -101 36.5 -147.5t102.5 -46.5t101 46.5t35 147.5v167z" />
    <glyph glyph-name="largerighthook" horiz-adv-x="779" 
d="M-94 833h213q141 0 251.5 -39t187.5 -113.5t117.5 -181.5t40.5 -243q0 -130 -30.5 -231.5t-90 -171t-148 -106t-204.5 -36.5l-2 147q80 0 135.5 28.5t89.5 80.5t49 125.5t15 163.5q-1 203 -103 309t-308 106h-213v162z" />
    <glyph glyph-name="circumflexgravecomb" horiz-adv-x="1011" 
d="M838 1233h-197l-170 158l-170 -158h-196l290 263h152zM178 1408h-140l-200 258h199z" />
    <glyph glyph-name="circumflexacutecomb" horiz-adv-x="1007" 
d="M402 1514h152l290 -262h-197l-169 158l-170 -158h-198zM912 1685h200l-201 -259h-141z" />
    <glyph glyph-name="brevegravecomb" horiz-adv-x="932" 
d="M767 1456q0 -59 -23.5 -107.5t-67.5 -84t-106.5 -55t-140.5 -19.5t-140.5 19.5t-106.5 55t-67.5 84t-23.5 107.5h150q0 -30 10 -56.5t32.5 -47t58 -32.5t87.5 -12q51 0 86.5 12t58 32.5t32.5 47t10 56.5h151zM513 1451h-151l-210 206h216z" />
    <glyph glyph-name="commaaccentrotate" horiz-adv-x="509" 
d="M159 1295q0 45 13 89.5t33.5 84.5t45 72.5t48.5 53.5l107 -83q-35 -59 -48.5 -112t-13.5 -114v-120h-185v129z" />
    <glyph glyph-name="onequarter.ref1" horiz-adv-x="2048" 
d="M1318 299h107v-130h-107v-169h-157v169h-375l-6 102l377 518h161v-490zM938 299h223v289l-17 -28zM458 664h-157v601l-216 -57v128l355 117h18v-789z" />
    <glyph glyph-name="onehalf.ref1" horiz-adv-x="2048" 
d="M1481 0h-599v108l288 271q67 61 94 105t27 77q0 49 -32 79.5t-92 30.5q-75 0 -110.5 -38t-35.5 -95h-157q0 54 20.5 101.5t59 83t94 56.5t125.5 21q67 0 120 -16.5t90 -47.5t56.5 -75t19.5 -98q0 -40 -13.5 -75.5t-38 -70t-60 -69.5t-79.5 -75l-176 -145h399v-128z
M453 664h-157v601l-216 -57v128l355 117h18v-789z" />
    <glyph glyph-name="threequarters.ref1" horiz-adv-x="2048" 
d="M1410 299h107v-130h-107v-169h-157v169h-375l-6 102l377 518h161v-490zM1030 299h223v289l-17 -28zM314 1126h84q74 0 110 30.5t36 78.5q0 45 -31.5 74t-101.5 29q-28 0 -52 -6.5t-42 -18.5t-28 -29t-10 -38h-157q0 51 22 91.5t61 69.5t91.5 44.5t112.5 15.5
q65 0 119 -14.5t92.5 -43t60 -70.5t21.5 -97t-35 -100.5t-101 -70.5q77 -21 113 -68t36 -116q0 -56 -23.5 -99t-64.5 -72t-97 -44.5t-121 -15.5q-56 0 -109.5 13.5t-95.5 42t-67.5 72.5t-25.5 105h158q0 -45 39.5 -75t106.5 -30q70 0 106.5 30t36.5 81q0 62 -43.5 88.5
t-116.5 26.5h-84v116z" />
    <glyph glyph-name="franc.ref1" horiz-adv-x="2048" 
d="M654 266h-636v151h636v-151z" />
    <glyph glyph-name="uni20AB.ref1" horiz-adv-x="2048" 
d="M1196 1234h-636v151h636v-151z" />
    <glyph glyph-name="oneeighth.ref1" horiz-adv-x="2048" 
d="M1439 579q0 -58 -31.5 -102.5t-87.5 -70.5q64 -27 101.5 -75.5t37.5 -114.5q0 -57 -22.5 -99.5t-62.5 -71t-94 -42.5t-117 -14t-117 14t-94 42.5t-62.5 71t-22.5 99.5q0 66 37 114.5t101 75.5q-56 26 -87.5 70.5t-31.5 102.5q0 54 20.5 95t57.5 69t87.5 42.5t110.5 14.5
t111 -14.5t88 -42.5t57.5 -69t20.5 -95zM1302 228q0 52 -39 81t-101 29q-63 0 -100.5 -29t-37.5 -81q0 -53 38 -82t101 -29t101 29t38 82zM1282 570q0 46 -32 73.5t-88 27.5q-55 0 -86.5 -26.5t-31.5 -74.5q0 -46 31.5 -74t87.5 -28t87.5 28t31.5 74zM457 646h-157v601
l-216 -57v128l355 117h18v-789z" />
    <glyph glyph-name="threeeighths.ref1" horiz-adv-x="2048" 
d="M1599 579q0 -58 -31.5 -102.5t-87.5 -70.5q64 -27 101.5 -75.5t37.5 -114.5q0 -57 -22.5 -99.5t-62.5 -71t-94 -42.5t-117 -14t-117 14t-94 42.5t-62.5 71t-22.5 99.5q0 66 37 114.5t101 75.5q-56 26 -87.5 70.5t-31.5 102.5q0 54 20.5 95t57.5 69t87.5 42.5t110.5 14.5
t111 -14.5t88 -42.5t57.5 -69t20.5 -95zM1462 228q0 52 -39 81t-101 29q-63 0 -100.5 -29t-37.5 -81q0 -53 38 -82t101 -29t101 29t38 82zM1442 570q0 46 -32 73.5t-88 27.5q-55 0 -86.5 -26.5t-31.5 -74.5q0 -46 31.5 -74t87.5 -28t87.5 28t31.5 74zM303 1119h84
q74 0 110 30.5t36 78.5q0 45 -31.5 74t-101.5 29q-28 0 -52 -6.5t-42 -18.5t-28 -29t-10 -38h-157q0 51 22 91.5t61 69.5t91.5 44.5t112.5 15.5q65 0 119 -14.5t92.5 -43t60 -70.5t21.5 -97t-35 -100.5t-101 -70.5q77 -21 113 -68t36 -116q0 -56 -23.5 -99t-64.5 -72
t-97 -44.5t-121 -15.5q-56 0 -109.5 13.5t-95.5 42t-67.5 72.5t-25.5 105h158q0 -45 39.5 -75t106.5 -30q70 0 106.5 30t36.5 81q0 62 -43.5 88.5t-116.5 26.5h-84v116z" />
    <glyph glyph-name="fiveeighths.ref1" horiz-adv-x="2048" 
d="M1589 579q0 -58 -31.5 -102.5t-87.5 -70.5q64 -27 101.5 -75.5t37.5 -114.5q0 -57 -22.5 -99.5t-62.5 -71t-94 -42.5t-117 -14t-117 14t-94 42.5t-62.5 71t-22.5 99.5q0 66 37 114.5t101 75.5q-56 26 -87.5 70.5t-31.5 102.5q0 54 20.5 95t57.5 69t87.5 42.5t110.5 14.5
t111 -14.5t88 -42.5t57.5 -69t20.5 -95zM1452 228q0 52 -39 81t-101 29q-63 0 -100.5 -29t-37.5 -81q0 -53 38 -82t101 -29t101 29t38 82zM1432 570q0 46 -32 73.5t-88 27.5q-55 0 -86.5 -26.5t-31.5 -74.5q0 -46 31.5 -74t87.5 -28t87.5 28t31.5 74zM120 1042l50 402h478
v-132h-349l-22 -170q18 8 55.5 18.5t83.5 10.5q128 0 199.5 -68.5t71.5 -189.5q0 -54 -17.5 -103t-54 -85.5t-92 -58.5t-130.5 -22q-56 0 -107.5 15t-92 44t-66 71.5t-28.5 96.5h155q5 -52 42.5 -75.5t96.5 -23.5q36 0 62 11t42.5 30t24.5 45t8 57q0 62 -39 100.5t-113 38.5
q-27 0 -47 -4t-35.5 -10t-27 -13.5t-22.5 -15.5z" />
    <glyph glyph-name="seveneighths.ref1" horiz-adv-x="2048" 
d="M1513 579q0 -58 -31.5 -102.5t-87.5 -70.5q64 -27 101.5 -75.5t37.5 -114.5q0 -57 -22.5 -99.5t-62.5 -71t-94 -42.5t-117 -14t-117 14t-94 42.5t-62.5 71t-22.5 99.5q0 66 37 114.5t101 75.5q-56 26 -87.5 70.5t-31.5 102.5q0 54 20.5 95t57.5 69t87.5 42.5t110.5 14.5
t111 -14.5t88 -42.5t57.5 -69t20.5 -95zM1376 228q0 52 -39 81t-101 29q-63 0 -100.5 -29t-37.5 -81q0 -53 38 -82t101 -29t101 29t38 82zM1356 570q0 46 -32 73.5t-88 27.5q-55 0 -86.5 -26.5t-31.5 -74.5q0 -46 31.5 -74t87.5 -28t87.5 28t31.5 74zM708 1354l-349 -699
h-166l349 659h-453v130h619v-90z" />
    </font>
</defs>
</svg>
